STARTFONT 2.1
FONT -FontForge-Gontserrat-Book-R-Normal--20-190-75-75-P-109-ISO10646-1
SIZE 19 75 75
FONTBOUNDINGBOX 40 31 -11 -8
COMMENT "Generated by fontforge, http://fontforge.sourceforge.net"
COMMENT "Gontserrat is a derivative work of Montserrat under the Open Font License. Copyright 2020 Ospiro Enterprises (ospiro.com)"
COMMENT ""
COMMENT "Copyright notice for Montserrat: Copyright 2011 The Montserrat Project Authors (julieta.ulanovsky@gmail.com)"
STARTPROPERTIES 40
FOUNDRY "FontForge"
FAMILY_NAME "Gontserrat"
WEIGHT_NAME "Book"
SLANT "R"
SETWIDTH_NAME "Normal"
ADD_STYLE_NAME ""
PIXEL_SIZE 20
POINT_SIZE 190
RESOLUTION_X 75
RESOLUTION_Y 75
SPACING "P"
AVERAGE_WIDTH 109
CHARSET_REGISTRY "ISO10646"
CHARSET_ENCODING "1"
FONTNAME_REGISTRY ""
CHARSET_COLLECTIONS "ISO8859-2 ISO8859-9 ISO8859-4 ISO10646-1"
FONT_NAME "Gontserrat-Regular"
FACE_NAME "Gontserrat Regular"
COPYRIGHT "Gontserrat is a derivative work of Montserrat under the Open Font License. Copyright 2020 Ospiro Enterprises (ospiro.com)"
FONT_VERSION "6.001"
FONT_ASCENT 16
FONT_DESCENT 4
UNDERLINE_POSITION -2
UNDERLINE_THICKNESS 1
X_HEIGHT 10
CAP_HEIGHT 13
DEFAULT_CHAR 3
RAW_ASCENT 800
RAW_DESCENT 200
NORM_SPACE 5
RELATIVE_WEIGHT 40
RELATIVE_SETWIDTH 50
SUPERSCRIPT_X 0
SUPERSCRIPT_Y 7
SUPERSCRIPT_SIZE 12
SUBSCRIPT_X 0
SUBSCRIPT_Y 1
SUBSCRIPT_SIZE 12
AVG_LOWERCASE_WIDTH 113
AVG_UPPERCASE_WIDTH 141
ENDPROPERTIES
CHARS 1597
STARTCHAR NULL
ENCODING 0
SWIDTH 0 0
DWIDTH 0 0
BBX 1 1 0 0
BITMAP
00
ENDCHAR
STARTCHAR nonmarkingreturn
ENCODING 13
SWIDTH 262 0
DWIDTH 5 0
BBX 1 1 0 0
BITMAP
00
ENDCHAR
STARTCHAR space
ENCODING 32
SWIDTH 262 0
DWIDTH 5 0
BBX 1 1 0 0
BITMAP
00
ENDCHAR
STARTCHAR exclam
ENCODING 33
SWIDTH 206 0
DWIDTH 4 0
BBX 2 14 1 0
BITMAP
C0
C0
C0
C0
C0
C0
40
40
40
40
00
00
C0
C0
ENDCHAR
STARTCHAR quotedbl
ENCODING 34
SWIDTH 334 0
DWIDTH 7 0
BBX 4 5 1 9
BITMAP
D0
D0
D0
D0
D0
ENDCHAR
STARTCHAR numbersign
ENCODING 35
SWIDTH 721 0
DWIDTH 14 0
BBX 13 14 1 0
BITMAP
0840
0840
1840
FFF8
FFF8
10C0
10C0
1080
1080
FFF0
FFF0
3080
3180
2180
ENDCHAR
STARTCHAR dollar
ENCODING 36
SWIDTH 616 0
DWIDTH 12 0
BBX 10 20 1 -3
BITMAP
0400
0400
1E00
3FC0
60C0
E000
E000
6000
7C00
1F00
0380
00C0
00C0
80C0
E1C0
7F80
3F00
0400
0400
0400
ENDCHAR
STARTCHAR percent
ENCODING 37
SWIDTH 955 0
DWIDTH 19 0
BBX 17 14 1 0
BITMAP
780400
C40800
821800
823000
822000
824F00
C4D180
79B080
012080
022080
062080
0C3080
081180
300F00
ENDCHAR
STARTCHAR ampersand
ENCODING 38
SWIDTH 655 0
DWIDTH 13 0
BBX 12 14 1 0
BITMAP
1E00
3F00
3180
2180
3100
1600
1C00
3C40
4660
C340
C1C0
C1C0
7F60
3E30
ENDCHAR
STARTCHAR quotesingle
ENCODING 39
SWIDTH 193 0
DWIDTH 4 0
BBX 2 5 1 9
BITMAP
C0
C0
C0
C0
C0
ENDCHAR
STARTCHAR parenleft
ENCODING 40
SWIDTH 304 0
DWIDTH 6 0
BBX 4 18 2 -3
BITMAP
30
60
40
C0
C0
C0
80
80
80
80
80
80
C0
C0
C0
40
60
30
ENDCHAR
STARTCHAR parenright
ENCODING 41
SWIDTH 304 0
DWIDTH 6 0
BBX 5 18 0 -3
BITMAP
C0
60
20
30
30
30
10
10
18
18
10
10
30
30
30
20
60
C0
ENDCHAR
STARTCHAR asterisk
ENCODING 42
SWIDTH 337 0
DWIDTH 7 0
BBX 5 6 1 9
BITMAP
20
A8
F0
70
A8
20
ENDCHAR
STARTCHAR plus
ENCODING 43
SWIDTH 494 0
DWIDTH 10 0
BBX 8 9 1 2
BITMAP
18
18
18
18
FF
FF
18
18
18
ENDCHAR
STARTCHAR comma
ENCODING 44
SWIDTH 204 0
DWIDTH 4 0
BBX 2 4 1 -2
BITMAP
C0
C0
C0
80
ENDCHAR
STARTCHAR hyphen
ENCODING 45
SWIDTH 366 0
DWIDTH 7 0
BBX 5 2 1 6
BITMAP
F8
F8
ENDCHAR
STARTCHAR period
ENCODING 46
SWIDTH 207 0
DWIDTH 4 0
BBX 2 2 1 0
BITMAP
C0
C0
ENDCHAR
STARTCHAR slash
ENCODING 47
SWIDTH 323 0
DWIDTH 6 0
BBX 8 20 0 -2
BITMAP
03
02
06
06
04
0C
0C
08
18
18
10
30
30
20
60
60
40
40
C0
80
ENDCHAR
STARTCHAR zero
ENCODING 48
SWIDTH 711 0
DWIDTH 14 0
BBX 12 14 1 0
BITMAP
0F80
3FC0
7060
6070
6030
C030
C030
C030
C030
6030
6070
7060
3FC0
0F80
ENDCHAR
STARTCHAR one
ENCODING 49
SWIDTH 369 0
DWIDTH 7 0
BBX 5 14 0 0
BITMAP
F8
F8
18
18
18
18
18
18
18
18
18
18
18
18
ENDCHAR
STARTCHAR two
ENCODING 50
SWIDTH 578 0
DWIDTH 12 0
BBX 10 14 1 0
BITMAP
3E00
FF00
C180
0180
0180
0300
0300
0600
0C00
1800
3000
6000
FFC0
FFC0
ENDCHAR
STARTCHAR three
ENCODING 51
SWIDTH 585 0
DWIDTH 12 0
BBX 11 14 0 0
BITMAP
7FC0
7FC0
0300
0600
0C00
1F00
1FC0
00C0
0060
0060
0060
40C0
FF80
3F00
ENDCHAR
STARTCHAR four
ENCODING 52
SWIDTH 591 0
DWIDTH 12 0
BBX 11 14 0 0
BITMAP
0600
0C00
0C00
1800
1800
3180
6180
6180
FFE0
FFE0
0180
0180
0180
0180
ENDCHAR
STARTCHAR five
ENCODING 53
SWIDTH 615 0
DWIDTH 12 0
BBX 10 14 1 0
BITMAP
7FC0
7FC0
6000
6000
6000
7F00
7F80
00C0
00C0
00C0
00C0
40C0
FF80
3F00
ENDCHAR
STARTCHAR six
ENCODING 54
SWIDTH 637 0
DWIDTH 13 0
BBX 11 14 1 0
BITMAP
0F80
3FC0
7000
6000
4600
DF80
F0C0
E060
E060
E060
6060
60C0
3FC0
1F00
ENDCHAR
STARTCHAR seven
ENCODING 55
SWIDTH 567 0
DWIDTH 11 0
BBX 11 14 0 0
BITMAP
FFE0
FFE0
C0C0
C0C0
0180
0180
0300
0300
0600
0600
0C00
0C00
1800
1800
ENDCHAR
STARTCHAR eight
ENCODING 56
SWIDTH 636 0
DWIDTH 13 0
BBX 11 14 1 0
BITMAP
1F00
7F80
60C0
40C0
60C0
3F80
3F80
60C0
C040
C060
C060
E0C0
7FC0
1F00
ENDCHAR
STARTCHAR nine
ENCODING 57
SWIDTH 634 0
DWIDTH 13 0
BBX 11 14 1 0
BITMAP
1E00
7F80
60C0
C0C0
C0C0
C0E0
61E0
7F60
1C40
00C0
00C0
4180
7F80
3E00
ENDCHAR
STARTCHAR colon
ENCODING 58
SWIDTH 207 0
DWIDTH 4 0
BBX 2 8 1 0
BITMAP
C0
C0
00
00
00
00
C0
C0
ENDCHAR
STARTCHAR semicolon
ENCODING 59
SWIDTH 206 0
DWIDTH 4 0
BBX 2 10 1 -2
BITMAP
C0
C0
00
00
00
00
C0
C0
C0
80
ENDCHAR
STARTCHAR less
ENCODING 60
SWIDTH 494 0
DWIDTH 10 0
BBX 8 9 1 2
BITMAP
03
0E
38
E0
C0
70
1C
07
01
ENDCHAR
STARTCHAR equal
ENCODING 61
SWIDTH 494 0
DWIDTH 10 0
BBX 8 6 1 4
BITMAP
FF
FF
00
00
FF
FF
ENDCHAR
STARTCHAR greater
ENCODING 62
SWIDTH 494 0
DWIDTH 10 0
BBX 8 10 1 2
BITMAP
80
C0
70
1C
07
03
0E
38
E0
80
ENDCHAR
STARTCHAR question
ENCODING 63
SWIDTH 432 0
DWIDTH 9 0
BBX 8 14 0 0
BITMAP
3E
7F
43
C1
03
03
06
0C
18
00
00
00
18
18
ENDCHAR
STARTCHAR at
ENCODING 64
SWIDTH 981 0
DWIDTH 20 0
BBX 18 18 1 -4
BITMAP
03F000
0FFC00
380600
33CB00
67E980
CC3880
CC18C0
8C18C0
8818C0
8C18C0
8C18C0
CE3880
C7EF80
618700
300000
1C1800
0FF800
01C000
ENDCHAR
STARTCHAR A
ENCODING 65
SWIDTH 726 0
DWIDTH 15 0
BBX 14 14 0 0
BITMAP
0380
0380
0780
06C0
0CC0
0C60
1860
1830
1830
3FF0
3FF8
6018
600C
C00C
ENDCHAR
STARTCHAR B
ENCODING 66
SWIDTH 712 0
DWIDTH 14 0
BBX 11 14 2 0
BITMAP
FF80
FFC0
C0C0
C060
C040
C0C0
FF80
FFC0
C060
C060
C060
C060
FFC0
FF80
ENDCHAR
STARTCHAR C
ENCODING 67
SWIDTH 699 0
DWIDTH 14 0
BBX 12 14 1 0
BITMAP
0FC0
3FF0
7030
6010
C000
C000
C000
C000
C000
C000
6000
7030
3FF0
0FC0
ENDCHAR
STARTCHAR D
ENCODING 68
SWIDTH 783 0
DWIDTH 16 0
BBX 13 14 2 0
BITMAP
FF80
FFC0
C060
C030
C030
C018
C018
C018
C018
C030
C030
C060
FFC0
FF00
ENDCHAR
STARTCHAR E
ENCODING 69
SWIDTH 653 0
DWIDTH 13 0
BBX 10 14 2 0
BITMAP
FFC0
FFC0
C000
C000
C000
C000
FF80
FF80
C000
C000
C000
C000
FFC0
FFC0
ENDCHAR
STARTCHAR F
ENCODING 70
SWIDTH 568 0
DWIDTH 11 0
BBX 9 14 2 0
BITMAP
FF80
FF80
C000
C000
C000
C000
FF00
FF00
C000
C000
C000
C000
C000
C000
ENDCHAR
STARTCHAR G
ENCODING 71
SWIDTH 751 0
DWIDTH 15 0
BBX 12 14 1 0
BITMAP
0FC0
3FF0
7030
6000
C000
C000
C1F0
C1F0
C010
C010
6010
7030
3FF0
0FC0
ENDCHAR
STARTCHAR H
ENCODING 72
SWIDTH 793 0
DWIDTH 16 0
BBX 12 14 2 0
BITMAP
C030
C030
C030
C030
C030
C030
FFF0
FFF0
C030
C030
C030
C030
C030
C030
ENDCHAR
STARTCHAR I
ENCODING 73
SWIDTH 296 0
DWIDTH 6 0
BBX 2 14 2 0
BITMAP
C0
C0
C0
C0
C0
C0
C0
C0
C0
C0
C0
C0
C0
C0
ENDCHAR
STARTCHAR J
ENCODING 74
SWIDTH 490 0
DWIDTH 10 0
BBX 8 14 0 0
BITMAP
7F
7F
03
03
03
03
03
03
03
03
03
C3
FE
3C
ENDCHAR
STARTCHAR K
ENCODING 75
SWIDTH 707 0
DWIDTH 14 0
BBX 12 14 2 0
BITMAP
C060
C0C0
C180
C300
C600
CC00
DC00
FE00
F700
E300
C180
C1C0
C0E0
C070
ENDCHAR
STARTCHAR L
ENCODING 76
SWIDTH 524 0
DWIDTH 10 0
BBX 8 14 2 0
BITMAP
C0
C0
C0
C0
C0
C0
C0
C0
C0
C0
C0
C0
FF
FF
ENDCHAR
STARTCHAR M
ENCODING 77
SWIDTH 939 0
DWIDTH 19 0
BBX 15 14 2 0
BITMAP
E00E
E00E
F01E
F01E
D836
D836
CC66
CC66
C6C6
C6C6
C386
C386
C106
C006
ENDCHAR
STARTCHAR N
ENCODING 78
SWIDTH 794 0
DWIDTH 16 0
BBX 12 14 2 0
BITMAP
C030
E030
F030
F830
D830
CC30
CE30
C630
C330
C1B0
C1F0
C0F0
C070
C030
ENDCHAR
STARTCHAR O
ENCODING 79
SWIDTH 812 0
DWIDTH 16 0
BBX 14 14 1 0
BITMAP
0FC0
1FF0
7038
601C
C00C
C00C
C00C
C00C
C00C
C00C
601C
7038
1FF0
0FC0
ENDCHAR
STARTCHAR P
ENCODING 80
SWIDTH 671 0
DWIDTH 13 0
BBX 11 14 2 0
BITMAP
FF00
FFC0
C0C0
C060
C060
C060
C060
C0C0
FF80
FE00
C000
C000
C000
C000
ENDCHAR
STARTCHAR Q
ENCODING 81
SWIDTH 822 0
DWIDTH 16 0
BBX 15 17 1 -3
BITMAP
0FC0
1FF0
7038
601C
C00C
C00C
C00C
C00C
C00C
C00C
601C
7038
1FF0
0FC0
00C2
00FE
003C
ENDCHAR
STARTCHAR R
ENCODING 82
SWIDTH 723 0
DWIDTH 14 0
BBX 11 14 2 0
BITMAP
FF00
FFC0
C0E0
C060
C060
C060
C060
C0C0
FF80
FF00
C180
C1C0
C0C0
C060
ENDCHAR
STARTCHAR S
ENCODING 83
SWIDTH 616 0
DWIDTH 12 0
BBX 10 14 1 0
BITMAP
1F00
7FC0
6080
E000
E000
7800
3E00
0F80
01C0
00C0
80C0
C0C0
FF80
3F00
ENDCHAR
STARTCHAR T
ENCODING 84
SWIDTH 567 0
DWIDTH 11 0
BBX 11 14 0 0
BITMAP
FFE0
FFE0
0600
0600
0600
0600
0600
0600
0600
0600
0600
0600
0600
0600
ENDCHAR
STARTCHAR U
ENCODING 85
SWIDTH 762 0
DWIDTH 15 0
BBX 12 14 2 0
BITMAP
C030
C030
C030
C030
C030
C030
C030
C030
C030
C060
C060
60E0
7FC0
1F00
ENDCHAR
STARTCHAR V
ENCODING 86
SWIDTH 676 0
DWIDTH 14 0
BBX 13 14 0 0
BITMAP
C018
6018
6030
3030
3030
3060
1860
18C0
08C0
0CC0
0D80
0780
0700
0300
ENDCHAR
STARTCHAR W
ENCODING 87
SWIDTH 1046 0
DWIDTH 21 0
BBX 21 14 0 0
BITMAP
C07018
607030
607030
60D830
30D860
30D860
308860
118C40
198CC0
1904C0
0B0680
0F0780
0E0380
060300
ENDCHAR
STARTCHAR X
ENCODING 88
SWIDTH 677 0
DWIDTH 14 0
BBX 13 14 0 0
BITMAP
6038
3070
3860
18C0
0DC0
0780
0700
0700
0F80
0DC0
18E0
3060
7030
E038
ENDCHAR
STARTCHAR Y
ENCODING 89
SWIDTH 630 0
DWIDTH 13 0
BBX 13 14 0 0
BITMAP
C038
6030
7060
3060
18C0
1980
0D80
0F00
0700
0600
0600
0600
0600
0600
ENDCHAR
STARTCHAR Z
ENCODING 90
SWIDTH 662 0
DWIDTH 13 0
BBX 11 14 1 0
BITMAP
FFE0
FFE0
00C0
01C0
0380
0300
0600
0C00
1C00
3800
3000
6000
FFE0
FFE0
ENDCHAR
STARTCHAR bracketleft
ENCODING 91
SWIDTH 319 0
DWIDTH 6 0
BBX 4 18 2 -3
BITMAP
F0
F0
80
80
80
80
80
80
80
80
80
80
80
80
80
80
F0
F0
ENDCHAR
STARTCHAR backslash
ENCODING 92
SWIDTH 323 0
DWIDTH 6 0
BBX 8 20 -1 -2
BITMAP
80
C0
40
40
60
60
20
30
30
10
18
18
08
0C
0C
04
06
06
02
03
ENDCHAR
STARTCHAR bracketright
ENCODING 93
SWIDTH 319 0
DWIDTH 6 0
BBX 5 18 0 -3
BITMAP
F8
F8
18
18
18
18
18
18
18
18
18
18
18
18
18
18
F8
F8
ENDCHAR
STARTCHAR asciicircum
ENCODING 94
SWIDTH 524 0
DWIDTH 10 0
BBX 9 8 1 3
BITMAP
1800
1C00
3400
2600
6200
4300
C100
8180
ENDCHAR
STARTCHAR underscore
ENCODING 95
SWIDTH 560 0
DWIDTH 11 0
BBX 11 2 0 -4
BITMAP
FFE0
FFE0
ENDCHAR
STARTCHAR grave
ENCODING 96
SWIDTH 330 0
DWIDTH 7 0
BBX 4 3 1 13
BITMAP
20
E0
30
ENDCHAR
STARTCHAR a
ENCODING 97
SWIDTH 581 0
DWIDTH 12 0
BBX 9 11 1 0
BITMAP
3E00
7F00
4180
0180
1F80
7F80
C180
C180
C380
FF80
3D80
ENDCHAR
STARTCHAR b
ENCODING 98
SWIDTH 678 0
DWIDTH 14 0
BBX 11 15 2 0
BITMAP
C000
C000
C000
C000
CF00
FF80
E0C0
C0C0
C060
C060
C060
C0E0
E0C0
FF80
CF00
ENDCHAR
STARTCHAR c
ENCODING 99
SWIDTH 562 0
DWIDTH 11 0
BBX 9 11 1 0
BITMAP
1F00
7F80
6080
C000
C000
C000
C000
C000
6080
7F80
1F00
ENDCHAR
STARTCHAR d
ENCODING 100
SWIDTH 680 0
DWIDTH 14 0
BBX 11 15 1 0
BITMAP
0060
0060
0060
0060
1E60
7F60
E0E0
C0E0
C060
C060
C060
C0E0
60E0
7F60
1E60
ENDCHAR
STARTCHAR e
ENCODING 101
SWIDTH 588 0
DWIDTH 12 0
BBX 10 11 1 0
BITMAP
1E00
7F80
6180
C0C0
C0C0
FFC0
FFC0
C000
6080
7F80
1F00
ENDCHAR
STARTCHAR f
ENCODING 102
SWIDTH 342 0
DWIDTH 7 0
BBX 7 15 1 0
BITMAP
1E
3C
60
60
FC
FC
60
60
60
60
60
60
60
60
60
ENDCHAR
STARTCHAR g
ENCODING 103
SWIDTH 638 0
DWIDTH 13 0
BBX 10 15 1 -4
BITMAP
3EC0
7FC0
E1C0
C0C0
C0C0
C0C0
C0C0
C0C0
61C0
7FC0
1CC0
00C0
41C0
FF80
3E00
ENDCHAR
STARTCHAR h
ENCODING 104
SWIDTH 665 0
DWIDTH 13 0
BBX 10 15 2 0
BITMAP
C000
C000
C000
C000
DF00
FF80
E1C0
C0C0
C0C0
C0C0
C0C0
C0C0
C0C0
C0C0
C0C0
ENDCHAR
STARTCHAR i
ENCODING 105
SWIDTH 274 0
DWIDTH 5 0
BBX 2 15 2 0
BITMAP
C0
C0
00
00
C0
C0
C0
C0
C0
C0
C0
C0
C0
C0
C0
ENDCHAR
STARTCHAR j
ENCODING 106
SWIDTH 263 0
DWIDTH 5 0
BBX 5 19 -1 -4
BITMAP
18
18
00
00
18
18
18
18
18
18
18
18
18
18
18
18
18
F0
E0
ENDCHAR
STARTCHAR k
ENCODING 107
SWIDTH 582 0
DWIDTH 12 0
BBX 9 15 2 0
BITMAP
C000
C000
C000
C000
C380
C700
C600
CC00
D800
FC00
EE00
C600
C300
C300
C180
ENDCHAR
STARTCHAR l
ENCODING 108
SWIDTH 285 0
DWIDTH 6 0
BBX 2 15 2 0
BITMAP
C0
C0
C0
C0
C0
C0
C0
C0
C0
C0
C0
C0
C0
C0
C0
ENDCHAR
STARTCHAR m
ENCODING 109
SWIDTH 1044 0
DWIDTH 21 0
BBX 17 11 2 0
BITMAP
DF1F00
FFBF80
E1E180
C0C180
C0C180
C0C180
C0C180
C0C180
C0C180
C0C180
C0C180
ENDCHAR
STARTCHAR n
ENCODING 110
SWIDTH 659 0
DWIDTH 13 0
BBX 10 11 2 0
BITMAP
DF00
FF80
E180
C0C0
C0C0
C0C0
C0C0
C0C0
C0C0
C0C0
C0C0
ENDCHAR
STARTCHAR o
ENCODING 111
SWIDTH 621 0
DWIDTH 12 0
BBX 11 11 1 0
BITMAP
1F00
7F80
60C0
C0C0
C060
C060
C060
C0C0
60C0
7F80
1F00
ENDCHAR
STARTCHAR p
ENCODING 112
SWIDTH 678 0
DWIDTH 14 0
BBX 11 15 2 -4
BITMAP
CF00
FF80
E0C0
C0C0
C060
C060
C060
C0E0
E0C0
FF80
CF00
C000
C000
C000
C000
ENDCHAR
STARTCHAR q
ENCODING 113
SWIDTH 680 0
DWIDTH 14 0
BBX 11 15 1 -4
BITMAP
1E60
7F60
E0E0
C0E0
C060
C060
C060
C0E0
60E0
7F60
1E60
0060
0060
0060
0060
ENDCHAR
STARTCHAR r
ENCODING 114
SWIDTH 382 0
DWIDTH 8 0
BBX 5 11 2 0
BITMAP
D8
F8
E0
C0
C0
C0
C0
C0
C0
C0
C0
ENDCHAR
STARTCHAR s
ENCODING 115
SWIDTH 460 0
DWIDTH 9 0
BBX 9 11 0 0
BITMAP
3E00
7F00
6100
6000
7800
1E00
0700
0180
4180
FF00
3E00
ENDCHAR
STARTCHAR t
ENCODING 116
SWIDTH 397 0
DWIDTH 8 0
BBX 7 14 1 0
BITMAP
60
60
60
FC
FC
60
60
60
60
60
60
60
3C
3E
ENDCHAR
STARTCHAR u
ENCODING 117
SWIDTH 649 0
DWIDTH 13 0
BBX 10 11 1 0
BITMAP
C0C0
C0C0
C0C0
C0C0
C0C0
C0C0
C0C0
C0C0
61C0
7FC0
3EC0
ENDCHAR
STARTCHAR v
ENCODING 118
SWIDTH 510 0
DWIDTH 10 0
BBX 10 11 0 0
BITMAP
C0C0
60C0
6080
6180
3180
3300
1300
1A00
1E00
0E00
0C00
ENDCHAR
STARTCHAR w
ENCODING 119
SWIDTH 876 0
DWIDTH 18 0
BBX 18 11 0 0
BITMAP
C0C0C0
41C180
61E180
616100
232300
333300
323200
161600
1E1E00
1C1C00
0C0C00
ENDCHAR
STARTCHAR x
ENCODING 120
SWIDTH 540 0
DWIDTH 11 0
BBX 10 11 0 0
BITMAP
60C0
3180
3380
1B00
0E00
0E00
1E00
1B00
3180
6180
E0C0
ENDCHAR
STARTCHAR y
ENCODING 121
SWIDTH 514 0
DWIDTH 10 0
BBX 10 15 0 -4
BITMAP
C0C0
40C0
6080
6180
3180
3300
1300
1A00
1E00
0E00
0C00
0C00
0C00
F800
F000
ENDCHAR
STARTCHAR z
ENCODING 122
SWIDTH 531 0
DWIDTH 11 0
BBX 9 11 1 0
BITMAP
FF80
FF80
0300
0600
0C00
1800
3800
3000
6000
FF80
FF80
ENDCHAR
STARTCHAR braceleft
ENCODING 123
SWIDTH 339 0
DWIDTH 7 0
BBX 5 18 1 -3
BITMAP
38
38
20
60
60
60
60
60
E0
C0
60
60
60
60
60
60
38
38
ENDCHAR
STARTCHAR bar
ENCODING 124
SWIDTH 258 0
DWIDTH 5 0
BBX 1 20 2 -2
BITMAP
80
80
80
80
80
80
80
80
80
80
80
80
80
80
80
80
80
80
80
80
ENDCHAR
STARTCHAR braceright
ENCODING 125
SWIDTH 339 0
DWIDTH 7 0
BBX 5 18 1 -3
BITMAP
C0
E0
60
20
20
20
20
20
38
18
20
20
20
20
20
60
E0
E0
ENDCHAR
STARTCHAR asciitilde
ENCODING 126
SWIDTH 494 0
DWIDTH 10 0
BBX 8 3 1 5
BITMAP
73
7E
CE
ENDCHAR
STARTCHAR uni00A0
ENCODING 160
SWIDTH 262 0
DWIDTH 5 0
BBX 1 1 0 0
BITMAP
00
ENDCHAR
STARTCHAR exclamdown
ENCODING 161
SWIDTH 206 0
DWIDTH 4 0
BBX 2 14 1 -3
BITMAP
C0
C0
00
00
40
40
40
40
C0
C0
C0
C0
C0
C0
ENDCHAR
STARTCHAR cent
ENCODING 162
SWIDTH 600 0
DWIDTH 12 0
BBX 9 17 1 -3
BITMAP
0C00
0C00
0C00
1E00
3F80
6180
C000
C000
C000
C000
C000
C000
6180
3F80
0C00
0C00
0C00
ENDCHAR
STARTCHAR sterling
ENCODING 163
SWIDTH 544 0
DWIDTH 11 0
BBX 9 14 1 0
BITMAP
1F00
3F80
3080
2000
2000
2000
FE00
FE00
2000
2000
2000
2000
FF80
FF80
ENDCHAR
STARTCHAR currency
ENCODING 164
SWIDTH 714 0
DWIDTH 14 0
BBX 13 13 1 0
BITMAP
8010
CF38
7FE0
3060
6060
4020
4030
4020
6020
3060
7FE0
CF30
C018
ENDCHAR
STARTCHAR yen
ENCODING 165
SWIDTH 629 0
DWIDTH 13 0
BBX 13 14 0 0
BITMAP
C038
6030
7060
30E0
18C0
1980
0D80
0F00
7FE0
0600
7FE0
7FE0
0600
0600
ENDCHAR
STARTCHAR brokenbar
ENCODING 166
SWIDTH 258 0
DWIDTH 5 0
BBX 1 19 2 -2
BITMAP
80
80
80
80
80
80
80
00
00
00
00
00
80
80
80
80
80
80
80
ENDCHAR
STARTCHAR section
ENCODING 167
SWIDTH 484 0
DWIDTH 10 0
BBX 9 16 0 -2
BITMAP
1E00
3F80
6100
6000
3000
1E00
3F00
6180
6180
7180
3F00
0700
0180
0180
E300
3F00
ENDCHAR
STARTCHAR dieresis
ENCODING 168
SWIDTH 350 0
DWIDTH 7 0
BBX 6 2 1 13
BITMAP
C8
DC
ENDCHAR
STARTCHAR copyright
ENCODING 169
SWIDTH 752 0
DWIDTH 15 0
BBX 13 14 1 0
BITMAP
0F80
3060
6030
4710
8888
9008
9008
9008
9008
8888
4710
6030
3060
0F80
ENDCHAR
STARTCHAR ordfeminine
ENCODING 170
SWIDTH 382 0
DWIDTH 8 0
BBX 6 7 1 9
BITMAP
78
88
0C
FC
8C
8C
FC
ENDCHAR
STARTCHAR guillemotleft
ENCODING 171
SWIDTH 439 0
DWIDTH 9 0
BBX 7 7 1 2
BITMAP
36
6C
C8
98
C8
6C
36
ENDCHAR
STARTCHAR logicalnot
ENCODING 172
SWIDTH 555 0
DWIDTH 11 0
BBX 9 5 1 4
BITMAP
FF80
FF80
0180
0180
0180
ENDCHAR
STARTCHAR uni00AD
ENCODING 173
SWIDTH 366 0
DWIDTH 7 0
BBX 5 2 1 6
BITMAP
F8
F8
ENDCHAR
STARTCHAR registered
ENCODING 174
SWIDTH 752 0
DWIDTH 15 0
BBX 13 14 1 0
BITMAP
0F80
3060
6030
4F10
8888
8888
8888
8F08
8908
8888
4050
6030
3060
0F80
ENDCHAR
STARTCHAR macron
ENCODING 175
SWIDTH 350 0
DWIDTH 7 0
BBX 5 2 1 13
BITMAP
F8
F8
ENDCHAR
STARTCHAR degree
ENCODING 176
SWIDTH 336 0
DWIDTH 7 0
BBX 4 5 2 12
BITMAP
60
90
90
90
60
ENDCHAR
STARTCHAR plusminus
ENCODING 177
SWIDTH 494 0
DWIDTH 10 0
BBX 8 12 1 1
BITMAP
18
18
18
18
FF
FF
18
18
18
00
FF
FF
ENDCHAR
STARTCHAR uni00B2
ENCODING 178
SWIDTH 351 0
DWIDTH 7 0
BBX 7 8 0 7
BITMAP
78
CC
04
08
10
20
7E
FE
ENDCHAR
STARTCHAR uni00B3
ENCODING 179
SWIDTH 348 0
DWIDTH 7 0
BBX 6 9 0 7
BITMAP
7C
7C
08
10
38
04
04
44
F8
ENDCHAR
STARTCHAR acute
ENCODING 180
SWIDTH 350 0
DWIDTH 7 0
BBX 4 3 2 13
BITMAP
40
70
C0
ENDCHAR
STARTCHAR uni00B5
ENCODING 181
SWIDTH 672 0
DWIDTH 13 0
BBX 10 15 2 -4
BITMAP
C0C0
C0C0
C0C0
C0C0
C0C0
C0C0
C0C0
C1C0
E1C0
FEC0
FCC0
C000
C000
C000
C000
ENDCHAR
STARTCHAR paragraph
ENCODING 182
SWIDTH 602 0
DWIDTH 12 0
BBX 10 18 0 -3
BITMAP
3FC0
7FC0
FC40
FC40
FC40
FC40
7C40
7C40
0C40
0C40
0C40
0C40
0C40
0C40
0C40
0C40
0C40
0C40
ENDCHAR
STARTCHAR periodcentered
ENCODING 183
SWIDTH 214 0
DWIDTH 4 0
BBX 2 2 1 5
BITMAP
C0
C0
ENDCHAR
STARTCHAR cedilla
ENCODING 184
SWIDTH 285 0
DWIDTH 6 0
BBX 4 5 1 -4
BITMAP
40
60
70
70
F0
ENDCHAR
STARTCHAR uni00B9
ENCODING 185
SWIDTH 232 0
DWIDTH 5 0
BBX 3 9 0 7
BITMAP
E0
E0
20
20
20
20
20
20
20
ENDCHAR
STARTCHAR ordmasculine
ENCODING 186
SWIDTH 405 0
DWIDTH 8 0
BBX 6 6 1 10
BITMAP
78
CC
84
84
CC
78
ENDCHAR
STARTCHAR guillemotright
ENCODING 187
SWIDTH 449 0
DWIDTH 9 0
BBX 7 7 1 2
BITMAP
D8
6C
64
36
26
6C
D8
ENDCHAR
STARTCHAR onequarter
ENCODING 188
SWIDTH 733 0
DWIDTH 15 0
BBX 15 14 0 0
BITMAP
E010
E020
2060
20C0
2080
2110
2330
2620
2460
0848
18C8
30FE
2008
4008
ENDCHAR
STARTCHAR onehalf
ENCODING 189
SWIDTH 760 0
DWIDTH 15 0
BBX 15 14 0 0
BITMAP
E010
E020
2060
20C0
2080
2100
237C
26C4
2404
0808
1810
3020
207E
C07E
ENDCHAR
STARTCHAR threequarters
ENCODING 190
SWIDTH 818 0
DWIDTH 16 0
BBX 16 14 0 0
BITMAP
7C0C
7C08
1010
3830
0460
044C
4488
F998
0310
0232
0422
0C3F
1802
3002
ENDCHAR
STARTCHAR questiondown
ENCODING 191
SWIDTH 432 0
DWIDTH 9 0
BBX 8 14 0 -3
BITMAP
0C
0C
00
00
00
08
18
30
60
C0
C1
C3
7E
3C
ENDCHAR
STARTCHAR Agrave
ENCODING 192
SWIDTH 726 0
DWIDTH 15 0
BBX 14 19 0 0
BITMAP
0400
0E00
0300
0000
0000
0380
0380
0780
06C0
0CC0
0C60
1860
1830
1830
3FF0
3FF8
6018
600C
C00C
ENDCHAR
STARTCHAR Aacute
ENCODING 193
SWIDTH 726 0
DWIDTH 15 0
BBX 14 19 0 0
BITMAP
0080
01C0
0380
0000
0000
0380
0380
0780
06C0
0CC0
0C60
1860
1830
1830
3FF0
3FF8
6018
600C
C00C
ENDCHAR
STARTCHAR Acircumflex
ENCODING 194
SWIDTH 726 0
DWIDTH 15 0
BBX 14 19 0 0
BITMAP
0300
0780
0EC0
0000
0000
0380
0380
0780
06C0
0CC0
0C60
1860
1830
1830
3FF0
3FF8
6018
600C
C00C
ENDCHAR
STARTCHAR Atilde
ENCODING 195
SWIDTH 726 0
DWIDTH 15 0
BBX 14 19 0 0
BITMAP
0640
0FC0
0DC0
0000
0000
0380
0380
0780
06C0
0CC0
0C60
1860
1830
1830
3FF0
3FF8
6018
600C
C00C
ENDCHAR
STARTCHAR Adieresis
ENCODING 196
SWIDTH 726 0
DWIDTH 15 0
BBX 14 18 0 0
BITMAP
0EC0
04C0
0000
0000
0380
0380
0780
06C0
0CC0
0C60
1860
1830
1830
3FF0
3FF8
6018
600C
C00C
ENDCHAR
STARTCHAR Aring
ENCODING 197
SWIDTH 726 0
DWIDTH 15 0
BBX 14 19 0 0
BITMAP
0380
0480
0480
0380
0000
0380
0380
0780
06C0
0CC0
0C60
1860
1830
1830
3FF0
3FF8
6018
600C
C00C
ENDCHAR
STARTCHAR AE
ENCODING 198
SWIDTH 1037 0
DWIDTH 21 0
BBX 20 14 0 0
BITMAP
00FFE0
01FFE0
01B000
033000
023000
063000
0C3FE0
0C3FE0
1FF000
1FF000
303000
203000
603FF0
C03FF0
ENDCHAR
STARTCHAR Ccedilla
ENCODING 199
SWIDTH 699 0
DWIDTH 14 0
BBX 12 18 1 -4
BITMAP
0FC0
1FF0
7030
6000
C000
C000
C000
C000
C000
C000
6010
7870
3FE0
0FC0
0200
0300
0780
0700
ENDCHAR
STARTCHAR Egrave
ENCODING 200
SWIDTH 653 0
DWIDTH 13 0
BBX 10 19 2 0
BITMAP
1000
3800
1C00
0000
0000
FFC0
FFC0
C000
C000
C000
C000
FF80
FF80
C000
C000
C000
C000
FFC0
FFC0
ENDCHAR
STARTCHAR Eacute
ENCODING 201
SWIDTH 653 0
DWIDTH 13 0
BBX 10 19 2 0
BITMAP
0200
0700
0C00
0000
0000
FFC0
FFC0
C000
C000
C000
C000
FF80
FF80
C000
C000
C000
C000
FFC0
FFC0
ENDCHAR
STARTCHAR Ecircumflex
ENCODING 202
SWIDTH 653 0
DWIDTH 13 0
BBX 10 19 2 0
BITMAP
0C00
1E00
3300
0000
0000
FFC0
FFC0
C000
C000
C000
C000
FF80
FF80
C000
C000
C000
C000
FFC0
FFC0
ENDCHAR
STARTCHAR Edieresis
ENCODING 203
SWIDTH 653 0
DWIDTH 13 0
BBX 10 18 2 0
BITMAP
3300
3300
0000
0000
FFC0
FFC0
C000
C000
C000
C000
FF80
FF80
C000
C000
C000
C000
FFC0
FFC0
ENDCHAR
STARTCHAR Igrave
ENCODING 204
SWIDTH 296 0
DWIDTH 6 0
BBX 4 19 0 0
BITMAP
40
E0
70
00
00
30
30
30
30
30
30
30
30
30
30
30
30
30
30
ENDCHAR
STARTCHAR Iacute
ENCODING 205
SWIDTH 296 0
DWIDTH 6 0
BBX 4 19 2 0
BITMAP
20
70
C0
00
00
C0
C0
C0
C0
C0
C0
C0
C0
C0
C0
C0
C0
C0
C0
ENDCHAR
STARTCHAR Icircumflex
ENCODING 206
SWIDTH 296 0
DWIDTH 6 0
BBX 6 19 0 0
BITMAP
30
78
CC
00
00
30
30
30
30
30
30
30
30
30
30
30
30
30
30
ENDCHAR
STARTCHAR Idieresis
ENCODING 207
SWIDTH 296 0
DWIDTH 6 0
BBX 6 18 0 0
BITMAP
CC
CC
00
00
30
30
30
30
30
30
30
30
30
30
30
30
30
30
ENDCHAR
STARTCHAR Eth
ENCODING 208
SWIDTH 783 0
DWIDTH 16 0
BBX 14 14 1 0
BITMAP
7F80
7FE0
6030
6018
6018
600C
FE0C
FE0C
600C
6018
6018
6030
7FE0
7F80
ENDCHAR
STARTCHAR Ntilde
ENCODING 209
SWIDTH 794 0
DWIDTH 16 0
BBX 12 19 2 0
BITMAP
0880
1F80
1380
0000
0000
C030
E030
F030
F830
D830
CC30
CE30
C630
C330
C1B0
C1F0
C0F0
C070
C030
ENDCHAR
STARTCHAR Ograve
ENCODING 210
SWIDTH 812 0
DWIDTH 16 0
BBX 14 19 1 0
BITMAP
0400
0E00
0300
0000
0000
0FC0
1FF0
7038
601C
C00C
C00C
C00C
C00C
C00C
C00C
601C
7038
1FF0
0FC0
ENDCHAR
STARTCHAR Oacute
ENCODING 211
SWIDTH 812 0
DWIDTH 16 0
BBX 14 19 1 0
BITMAP
0080
01C0
0380
0000
0000
0FC0
1FF0
7038
601C
C00C
C00C
C00C
C00C
C00C
C00C
601C
7038
1FF0
0FC0
ENDCHAR
STARTCHAR Ocircumflex
ENCODING 212
SWIDTH 812 0
DWIDTH 16 0
BBX 14 19 1 0
BITMAP
0300
0780
0CC0
0000
0000
0FC0
1FF0
7038
601C
C00C
C00C
C00C
C00C
C00C
C00C
601C
7038
1FF0
0FC0
ENDCHAR
STARTCHAR Otilde
ENCODING 213
SWIDTH 812 0
DWIDTH 16 0
BBX 14 19 1 0
BITMAP
0440
0FC0
09C0
0000
0000
0FC0
1FF0
7038
601C
C00C
C00C
C00C
C00C
C00C
C00C
601C
7038
1FF0
0FC0
ENDCHAR
STARTCHAR Odieresis
ENCODING 214
SWIDTH 812 0
DWIDTH 16 0
BBX 14 18 1 0
BITMAP
0CC0
04C0
0000
0000
0FC0
1FF0
7038
601C
C00C
C00C
C00C
C00C
C00C
C00C
601C
7038
1FF0
0FC0
ENDCHAR
STARTCHAR multiply
ENCODING 215
SWIDTH 494 0
DWIDTH 10 0
BBX 6 7 2 3
BITMAP
84
CC
78
30
78
CC
84
ENDCHAR
STARTCHAR Oslash
ENCODING 216
SWIDTH 812 0
DWIDTH 16 0
BBX 14 16 1 -1
BITMAP
0018
0FD0
1FF0
7078
605C
C0CC
C18C
C10C
C30C
C60C
C40C
6C1C
7838
3FF0
2FC0
6000
ENDCHAR
STARTCHAR Ugrave
ENCODING 217
SWIDTH 762 0
DWIDTH 15 0
BBX 12 19 2 0
BITMAP
0800
1800
0E00
0000
0000
C030
C030
C030
C030
C030
C030
C030
C030
C030
C060
C060
60E0
7FC0
1F00
ENDCHAR
STARTCHAR Uacute
ENCODING 218
SWIDTH 762 0
DWIDTH 15 0
BBX 12 19 2 0
BITMAP
0200
0380
0600
0000
0000
C030
C030
C030
C030
C030
C030
C030
C030
C030
C060
C060
60E0
7FC0
1F00
ENDCHAR
STARTCHAR Ucircumflex
ENCODING 219
SWIDTH 762 0
DWIDTH 15 0
BBX 12 19 2 0
BITMAP
0600
0E00
1B80
0000
0000
C030
C030
C030
C030
C030
C030
C030
C030
C030
C060
C060
60E0
7FC0
1F00
ENDCHAR
STARTCHAR Udieresis
ENCODING 220
SWIDTH 762 0
DWIDTH 15 0
BBX 12 18 2 0
BITMAP
1B00
1B00
0000
0000
C030
C030
C030
C030
C030
C030
C030
C030
C030
C060
C060
60E0
7FC0
1F00
ENDCHAR
STARTCHAR Yacute
ENCODING 221
SWIDTH 630 0
DWIDTH 13 0
BBX 13 19 0 0
BITMAP
0100
0380
0700
0000
0000
C038
6030
7060
3060
18C0
1980
0D80
0F00
0700
0600
0600
0600
0600
0600
ENDCHAR
STARTCHAR Thorn
ENCODING 222
SWIDTH 674 0
DWIDTH 13 0
BBX 11 14 2 0
BITMAP
C000
FE00
FF80
C1C0
C060
C060
C060
C060
C060
C1C0
FF80
FE00
C000
C000
ENDCHAR
STARTCHAR germandbls
ENCODING 223
SWIDTH 651 0
DWIDTH 13 0
BBX 10 15 2 0
BITMAP
3E00
7F00
C180
C180
C180
C180
CF00
CF00
C180
C0C0
C0C0
C0C0
C1C0
CF80
CE00
ENDCHAR
STARTCHAR agrave
ENCODING 224
SWIDTH 581 0
DWIDTH 12 0
BBX 9 16 1 0
BITMAP
1000
3000
1800
0400
0000
3E00
7F00
4180
0180
1F80
7F80
C180
C180
C380
FF80
3D80
ENDCHAR
STARTCHAR aacute
ENCODING 225
SWIDTH 581 0
DWIDTH 12 0
BBX 9 16 1 0
BITMAP
0400
0700
0C00
0000
0000
3E00
7F00
4180
0180
1F80
7F80
C180
C180
C380
FF80
3D80
ENDCHAR
STARTCHAR acircumflex
ENCODING 226
SWIDTH 581 0
DWIDTH 12 0
BBX 9 16 1 0
BITMAP
1C00
1E00
3300
0000
0000
3E00
7F00
4180
0180
1F80
7F80
C180
C180
C380
FF80
3D80
ENDCHAR
STARTCHAR atilde
ENCODING 227
SWIDTH 581 0
DWIDTH 12 0
BBX 9 16 1 0
BITMAP
1100
3F00
2600
0000
0000
3E00
7F00
4180
0180
1F80
7F80
C180
C180
C380
FF80
3D80
ENDCHAR
STARTCHAR adieresis
ENCODING 228
SWIDTH 581 0
DWIDTH 12 0
BBX 9 15 1 0
BITMAP
3200
3700
0000
0000
3E00
7F00
4180
0180
1F80
7F80
C180
C180
C380
FF80
3D80
ENDCHAR
STARTCHAR aring
ENCODING 229
SWIDTH 581 0
DWIDTH 12 0
BBX 9 16 1 0
BITMAP
1C00
1200
1200
1C00
0000
3E00
7F00
4180
0180
1F80
7F80
C180
C180
C380
FF80
3D80
ENDCHAR
STARTCHAR ae
ENCODING 230
SWIDTH 978 0
DWIDTH 20 0
BBX 18 11 1 0
BITMAP
3E3E00
7F7F00
41C180
018080
1FFFC0
7FFFC0
C18000
C1C000
C1C100
FE7F80
3C3E00
ENDCHAR
STARTCHAR ccedilla
ENCODING 231
SWIDTH 562 0
DWIDTH 11 0
BBX 9 15 1 -4
BITMAP
1F00
7F80
6080
C000
C000
C000
C000
C000
6080
7F80
1F00
0800
0600
1E00
1C00
ENDCHAR
STARTCHAR egrave
ENCODING 232
SWIDTH 588 0
DWIDTH 12 0
BBX 10 16 1 0
BITMAP
1000
3800
1C00
0000
0000
1E00
7F80
6180
C0C0
C0C0
FFC0
FFC0
C000
6080
7F80
1F00
ENDCHAR
STARTCHAR eacute
ENCODING 233
SWIDTH 588 0
DWIDTH 12 0
BBX 10 16 1 0
BITMAP
0200
0700
0E00
0000
0000
1E00
7F80
6180
C0C0
C0C0
FFC0
FFC0
C000
6080
7F80
1F00
ENDCHAR
STARTCHAR ecircumflex
ENCODING 234
SWIDTH 588 0
DWIDTH 12 0
BBX 10 16 1 0
BITMAP
0C00
1E00
3300
0000
0000
1E00
7F80
6180
C0C0
C0C0
FFC0
FFC0
C000
6080
7F80
1F00
ENDCHAR
STARTCHAR edieresis
ENCODING 235
SWIDTH 588 0
DWIDTH 12 0
BBX 10 15 1 0
BITMAP
1200
3300
0000
0000
1E00
7F80
6180
C0C0
C0C0
FFC0
FFC0
C000
6080
7F80
1F00
ENDCHAR
STARTCHAR igrave
ENCODING 236
SWIDTH 274 0
DWIDTH 5 0
BBX 4 16 0 0
BITMAP
40
C0
60
10
00
30
30
30
30
30
30
30
30
30
30
30
ENDCHAR
STARTCHAR iacute
ENCODING 237
SWIDTH 274 0
DWIDTH 5 0
BBX 4 16 2 0
BITMAP
40
70
C0
00
00
C0
C0
C0
C0
C0
C0
C0
C0
C0
C0
C0
ENDCHAR
STARTCHAR icircumflex
ENCODING 238
SWIDTH 274 0
DWIDTH 5 0
BBX 6 16 0 0
BITMAP
70
78
CC
00
00
30
30
30
30
30
30
30
30
30
30
30
ENDCHAR
STARTCHAR idieresis
ENCODING 239
SWIDTH 274 0
DWIDTH 5 0
BBX 5 15 0 0
BITMAP
D8
D8
00
00
30
30
30
30
30
30
30
30
30
30
30
ENDCHAR
STARTCHAR eth
ENCODING 240
SWIDTH 585 0
DWIDTH 12 0
BBX 10 15 1 0
BITMAP
3080
1F80
0E00
3B00
6300
0180
3C80
7FC0
C1C0
C0C0
C0C0
C0C0
C180
7F80
3E00
ENDCHAR
STARTCHAR ntilde
ENCODING 241
SWIDTH 659 0
DWIDTH 13 0
BBX 10 16 2 0
BITMAP
1100
3F00
2600
0000
0000
DF00
FF80
E180
C0C0
C0C0
C0C0
C0C0
C0C0
C0C0
C0C0
C0C0
ENDCHAR
STARTCHAR ograve
ENCODING 242
SWIDTH 621 0
DWIDTH 12 0
BBX 11 16 1 0
BITMAP
0800
3800
0C00
0000
0000
1F00
7F80
60C0
C0C0
C060
C060
C060
C0C0
60C0
7F80
1F00
ENDCHAR
STARTCHAR oacute
ENCODING 243
SWIDTH 621 0
DWIDTH 12 0
BBX 11 16 1 0
BITMAP
0200
0700
0E00
0000
0000
1F00
7F80
60C0
C0C0
C060
C060
C060
C0C0
60C0
7F80
1F00
ENDCHAR
STARTCHAR ocircumflex
ENCODING 244
SWIDTH 621 0
DWIDTH 12 0
BBX 11 16 1 0
BITMAP
0E00
1E00
3300
0000
0000
1F00
7F80
60C0
C0C0
C060
C060
C060
C0C0
60C0
7F80
1F00
ENDCHAR
STARTCHAR otilde
ENCODING 245
SWIDTH 621 0
DWIDTH 12 0
BBX 11 16 1 0
BITMAP
1900
3F00
2700
0000
0000
1F00
7F80
60C0
C0C0
C060
C060
C060
C0C0
60C0
7F80
1F00
ENDCHAR
STARTCHAR odieresis
ENCODING 246
SWIDTH 621 0
DWIDTH 12 0
BBX 11 15 1 0
BITMAP
1300
3B00
0000
0000
1F00
7F80
60C0
C0C0
C060
C060
C060
C0C0
60C0
7F80
1F00
ENDCHAR
STARTCHAR divide
ENCODING 247
SWIDTH 494 0
DWIDTH 10 0
BBX 8 9 1 2
BITMAP
18
18
00
FF
FF
00
00
18
18
ENDCHAR
STARTCHAR oslash
ENCODING 248
SWIDTH 621 0
DWIDTH 12 0
BBX 11 15 1 -2
BITMAP
0060
0040
1F80
7F80
61C0
C2C0
C660
C460
C860
D0C0
70C0
7F80
7F00
C000
8000
ENDCHAR
STARTCHAR ugrave
ENCODING 249
SWIDTH 649 0
DWIDTH 13 0
BBX 10 16 1 0
BITMAP
0800
3800
0C00
0000
0000
C0C0
C0C0
C0C0
C0C0
C0C0
C0C0
C0C0
C0C0
61C0
7FC0
3EC0
ENDCHAR
STARTCHAR uacute
ENCODING 250
SWIDTH 649 0
DWIDTH 13 0
BBX 10 16 1 0
BITMAP
0200
0380
0600
0800
0000
C0C0
C0C0
C0C0
C0C0
C0C0
C0C0
C0C0
C0C0
61C0
7FC0
3EC0
ENDCHAR
STARTCHAR ucircumflex
ENCODING 251
SWIDTH 649 0
DWIDTH 13 0
BBX 10 16 1 0
BITMAP
0E00
1F00
3B80
0000
0000
C0C0
C0C0
C0C0
C0C0
C0C0
C0C0
C0C0
C0C0
61C0
7FC0
3EC0
ENDCHAR
STARTCHAR udieresis
ENCODING 252
SWIDTH 649 0
DWIDTH 13 0
BBX 10 15 1 0
BITMAP
1100
1B00
0000
0000
C0C0
C0C0
C0C0
C0C0
C0C0
C0C0
C0C0
C0C0
61C0
7FC0
3EC0
ENDCHAR
STARTCHAR yacute
ENCODING 253
SWIDTH 514 0
DWIDTH 10 0
BBX 10 20 0 -4
BITMAP
0200
0700
0E00
0000
0000
C0C0
40C0
6080
6180
3180
3300
1300
1A00
1E00
0E00
0C00
0C00
0C00
F800
F000
ENDCHAR
STARTCHAR thorn
ENCODING 254
SWIDTH 678 0
DWIDTH 14 0
BBX 11 19 2 -4
BITMAP
C000
C000
C000
C000
CF00
FF80
E0C0
C0C0
C060
C060
C060
C0E0
E0C0
FF80
DF00
C000
C000
C000
C000
ENDCHAR
STARTCHAR ydieresis
ENCODING 255
SWIDTH 514 0
DWIDTH 10 0
BBX 10 19 0 -4
BITMAP
1300
3B00
0000
0000
C0C0
40C0
6080
6180
3180
3300
1300
1A00
1E00
0E00
0C00
0C00
0C00
F800
F000
ENDCHAR
STARTCHAR Amacron
ENCODING 256
SWIDTH 726 0
DWIDTH 15 0
BBX 14 18 0 0
BITMAP
0FC0
0FC0
0000
0000
0380
0380
0780
06C0
0CC0
0C60
1860
1830
1830
3FF0
3FF8
6018
600C
C00C
ENDCHAR
STARTCHAR amacron
ENCODING 257
SWIDTH 581 0
DWIDTH 12 0
BBX 9 15 1 0
BITMAP
3F00
3F00
0000
0000
3E00
7F00
4180
0180
1F80
7F80
C180
C180
C380
FF80
3D80
ENDCHAR
STARTCHAR Abreve
ENCODING 258
SWIDTH 726 0
DWIDTH 15 0
BBX 14 19 0 0
BITMAP
0440
07C0
0380
0000
0000
0380
0380
0780
06C0
0CC0
0C60
1860
1830
1830
3FF0
3FF8
6018
600C
C00C
ENDCHAR
STARTCHAR abreve
ENCODING 259
SWIDTH 581 0
DWIDTH 12 0
BBX 9 16 1 0
BITMAP
2200
3E00
1C00
0000
0000
3E00
7F00
4180
0180
1F80
7F80
C180
C180
C380
FF80
3D80
ENDCHAR
STARTCHAR Aogonek
ENCODING 260
SWIDTH 726 0
DWIDTH 15 0
BBX 14 18 0 -4
BITMAP
0380
0380
0780
04C0
0CC0
0C60
1860
1830
1FF0
3FF0
2018
6018
600C
C00C
000C
0018
001C
001C
ENDCHAR
STARTCHAR aogonek
ENCODING 261
SWIDTH 581 0
DWIDTH 12 0
BBX 9 15 1 -4
BITMAP
3E00
7F00
4180
0180
3F80
FF80
C180
C180
C380
7F80
3D80
0300
0200
0780
0380
ENDCHAR
STARTCHAR Cacute
ENCODING 262
SWIDTH 699 0
DWIDTH 14 0
BBX 12 19 1 0
BITMAP
0080
00C0
0380
0000
0000
0FC0
3FF0
7030
6010
C000
C000
C000
C000
C000
C000
6000
7030
3FF0
0FC0
ENDCHAR
STARTCHAR cacute
ENCODING 263
SWIDTH 562 0
DWIDTH 11 0
BBX 9 16 1 0
BITMAP
0200
0700
0E00
0000
0000
1F00
7F80
6080
C000
C000
C000
C000
C000
6080
7F80
1F00
ENDCHAR
STARTCHAR Ccircumflex
ENCODING 264
SWIDTH 699 0
DWIDTH 14 0
BBX 12 19 1 0
BITMAP
0300
0380
0EC0
0000
0000
0FC0
3FF0
7030
6010
C000
C000
C000
C000
C000
C000
6000
7030
3FF0
0FC0
ENDCHAR
STARTCHAR ccircumflex
ENCODING 265
SWIDTH 562 0
DWIDTH 11 0
BBX 9 16 1 0
BITMAP
0C00
1E00
3300
0000
0000
1F00
7F80
6080
C000
C000
C000
C000
C000
6080
7F80
1F00
ENDCHAR
STARTCHAR Cdotaccent
ENCODING 266
SWIDTH 699 0
DWIDTH 14 0
BBX 12 19 1 0
BITMAP
0100
0380
0300
0000
0000
0FC0
3FF0
7030
6010
C000
C000
C000
C000
C000
C000
6000
7030
3FF0
0FC0
ENDCHAR
STARTCHAR cdotaccent
ENCODING 267
SWIDTH 562 0
DWIDTH 11 0
BBX 9 15 1 0
BITMAP
0C00
0C00
0000
0000
1F00
7F80
6080
C000
C000
C000
C000
C000
6080
7F80
1F00
ENDCHAR
STARTCHAR Ccaron
ENCODING 268
SWIDTH 699 0
DWIDTH 14 0
BBX 12 19 1 0
BITMAP
0CC0
0780
0300
0000
0000
0FC0
3FF0
7030
6010
C000
C000
C000
C000
C000
C000
6000
7030
3FF0
0FC0
ENDCHAR
STARTCHAR ccaron
ENCODING 269
SWIDTH 562 0
DWIDTH 11 0
BBX 9 16 1 0
BITMAP
3300
1E00
0C00
0000
0000
1F00
7F80
6080
C000
C000
C000
C000
C000
6080
7F80
1F00
ENDCHAR
STARTCHAR Dcaron
ENCODING 270
SWIDTH 783 0
DWIDTH 16 0
BBX 13 19 2 0
BITMAP
3300
1E00
0C00
0000
0000
FF80
FFC0
C060
C030
C030
C018
C018
C018
C018
C030
C030
C060
FFC0
FF00
ENDCHAR
STARTCHAR dcaron
ENCODING 271
SWIDTH 744 0
DWIDTH 15 0
BBX 14 15 1 0
BITMAP
006C
006C
006C
006C
1E60
7F60
E0E0
C0E0
C060
C060
C060
C0E0
60E0
7F60
1E60
ENDCHAR
STARTCHAR Dcroat
ENCODING 272
SWIDTH 783 0
DWIDTH 16 0
BBX 14 14 1 0
BITMAP
7F80
7FE0
6030
6018
6018
600C
FE0C
FE0C
600C
6018
6018
6030
7FE0
7F80
ENDCHAR
STARTCHAR dcroat
ENCODING 273
SWIDTH 679 0
DWIDTH 14 0
BBX 12 15 1 0
BITMAP
0060
07F0
07F0
0060
1E60
7F60
E0E0
C0E0
C060
C060
C060
C0E0
60E0
7F60
1E60
ENDCHAR
STARTCHAR Emacron
ENCODING 274
SWIDTH 653 0
DWIDTH 13 0
BBX 10 18 2 0
BITMAP
3F00
3F00
0000
0000
FFC0
FFC0
C000
C000
C000
C000
FF80
FF80
C000
C000
C000
C000
FFC0
FFC0
ENDCHAR
STARTCHAR emacron
ENCODING 275
SWIDTH 588 0
DWIDTH 12 0
BBX 10 15 1 0
BITMAP
3F00
3F00
0000
0000
1E00
7F80
6180
C0C0
C0C0
FFC0
FFC0
C000
6080
7F80
1F00
ENDCHAR
STARTCHAR Ebreve
ENCODING 276
SWIDTH 653 0
DWIDTH 13 0
BBX 10 19 2 0
BITMAP
3300
1E00
1E00
0000
0000
FFC0
FFC0
C000
C000
C000
C000
FF80
FF80
C000
C000
C000
C000
FFC0
FFC0
ENDCHAR
STARTCHAR ebreve
ENCODING 277
SWIDTH 588 0
DWIDTH 12 0
BBX 10 16 1 0
BITMAP
3300
1E00
1C00
0000
0000
1E00
7F80
6180
C0C0
C0C0
FFC0
FFC0
C000
6080
7F80
1F00
ENDCHAR
STARTCHAR Edotaccent
ENCODING 278
SWIDTH 653 0
DWIDTH 13 0
BBX 10 19 2 0
BITMAP
0C00
0C00
0C00
0000
0000
FFC0
FFC0
C000
C000
C000
C000
FF80
FF80
C000
C000
C000
C000
FFC0
FFC0
ENDCHAR
STARTCHAR edotaccent
ENCODING 279
SWIDTH 588 0
DWIDTH 12 0
BBX 10 15 1 0
BITMAP
0C00
0C00
0000
0000
1E00
7F80
6180
C0C0
C0C0
FFC0
FFC0
C000
6080
7F80
1F00
ENDCHAR
STARTCHAR Eogonek
ENCODING 280
SWIDTH 653 0
DWIDTH 13 0
BBX 10 18 2 -4
BITMAP
FFC0
FFC0
C000
C000
C000
FF80
FF80
C000
C000
C000
C000
C000
FFC0
FFC0
0180
0100
03C0
01C0
ENDCHAR
STARTCHAR eogonek
ENCODING 281
SWIDTH 588 0
DWIDTH 12 0
BBX 10 15 1 -4
BITMAP
1F00
7F80
6080
C0C0
FFC0
FFC0
C000
C000
6080
7F80
1F00
0200
0600
0700
0780
ENDCHAR
STARTCHAR Ecaron
ENCODING 282
SWIDTH 653 0
DWIDTH 13 0
BBX 10 19 2 0
BITMAP
7700
1E00
1C00
0000
0000
FFC0
FFC0
C000
C000
C000
C000
FF80
FF80
C000
C000
C000
C000
FFC0
FFC0
ENDCHAR
STARTCHAR ecaron
ENCODING 283
SWIDTH 588 0
DWIDTH 12 0
BBX 10 16 1 0
BITMAP
3300
1E00
0C00
0000
0000
1E00
7F80
6180
C0C0
C0C0
FFC0
FFC0
C000
6080
7F80
1F00
ENDCHAR
STARTCHAR Gcircumflex
ENCODING 284
SWIDTH 751 0
DWIDTH 15 0
BBX 12 19 1 0
BITMAP
0300
0780
0DC0
0000
0000
0FC0
3FF0
7030
6000
C000
C000
C1F0
C1F0
C010
C010
6010
7030
3FF0
0FC0
ENDCHAR
STARTCHAR gcircumflex
ENCODING 285
SWIDTH 638 0
DWIDTH 13 0
BBX 10 20 1 -4
BITMAP
0C00
1E00
3300
0000
0000
3EC0
7FC0
E1C0
C0C0
C0C0
C0C0
C0C0
C0C0
61C0
7FC0
1CC0
00C0
41C0
FF80
3E00
ENDCHAR
STARTCHAR Gbreve
ENCODING 286
SWIDTH 751 0
DWIDTH 15 0
BBX 12 19 1 0
BITMAP
0880
0F80
0700
0000
0000
0FC0
3FF0
7030
6000
C000
C000
C1F0
C1F0
C010
C010
6010
7030
3FF0
0FC0
ENDCHAR
STARTCHAR gbreve
ENCODING 287
SWIDTH 638 0
DWIDTH 13 0
BBX 10 20 1 -4
BITMAP
3300
1E00
0E00
0000
0000
3EC0
7FC0
E1C0
C0C0
C0C0
C0C0
C0C0
C0C0
61C0
7FC0
1CC0
00C0
41C0
FF80
3E00
ENDCHAR
STARTCHAR Gdotaccent
ENCODING 288
SWIDTH 751 0
DWIDTH 15 0
BBX 12 19 1 0
BITMAP
0200
0300
0300
0000
0000
0FC0
3FF0
7030
6000
C000
C000
C1F0
C1F0
C010
C010
6010
7030
3FF0
0FC0
ENDCHAR
STARTCHAR gdotaccent
ENCODING 289
SWIDTH 638 0
DWIDTH 13 0
BBX 10 19 1 -4
BITMAP
0C00
0C00
0000
0000
3EC0
7FC0
E1C0
C0C0
C0C0
C0C0
C0C0
C0C0
61C0
7FC0
1CC0
00C0
41C0
FF80
3E00
ENDCHAR
STARTCHAR Gcommaaccent
ENCODING 290
SWIDTH 751 0
DWIDTH 15 0
BBX 12 18 1 -4
BITMAP
0FC0
3FF0
7030
6000
C000
C000
C1F0
C1F0
C010
C010
6010
7030
3FF0
0FC0
0000
0300
0600
0600
ENDCHAR
STARTCHAR gcommaaccent
ENCODING 291
SWIDTH 638 0
DWIDTH 13 0
BBX 10 20 1 -4
BITMAP
0600
0400
0C00
0000
0000
3EC0
7FC0
E1C0
C0C0
C0C0
C0C0
C0C0
C0C0
61C0
7FC0
1CC0
00C0
41C0
FF80
3E00
ENDCHAR
STARTCHAR Hcircumflex
ENCODING 292
SWIDTH 793 0
DWIDTH 16 0
BBX 12 19 2 0
BITMAP
0600
0F00
1980
0000
0000
C030
C030
C030
C030
C030
C030
FFF0
FFF0
C030
C030
C030
C030
C030
C030
ENDCHAR
STARTCHAR hcircumflex
ENCODING 293
SWIDTH 665 0
DWIDTH 13 0
BBX 12 20 0 0
BITMAP
3000
7800
CC00
0000
0000
3000
3000
3000
3000
37C0
3FE0
3870
3030
3030
3030
3030
3030
3030
3030
3030
ENDCHAR
STARTCHAR Hbar
ENCODING 294
SWIDTH 793 0
DWIDTH 16 0
BBX 16 14 0 0
BITMAP
300C
300C
FFFF
FFFF
300C
300C
3FFC
3FFC
300C
300C
300C
300C
300C
300C
ENDCHAR
STARTCHAR hbar
ENCODING 295
SWIDTH 665 0
DWIDTH 13 0
BBX 12 15 0 0
BITMAP
3000
FF00
FF00
3000
37C0
3FE0
3870
3030
3030
3030
3030
3030
3030
3030
3030
ENDCHAR
STARTCHAR Itilde
ENCODING 296
SWIDTH 296 0
DWIDTH 6 0
BBX 6 19 0 0
BITMAP
44
FC
98
00
00
30
30
30
30
30
30
30
30
30
30
30
30
30
30
ENDCHAR
STARTCHAR itilde
ENCODING 297
SWIDTH 274 0
DWIDTH 5 0
BBX 6 15 0 0
BITMAP
EC
F8
00
00
30
30
30
30
30
30
30
30
30
30
30
ENDCHAR
STARTCHAR Imacron
ENCODING 298
SWIDTH 296 0
DWIDTH 6 0
BBX 6 18 0 0
BITMAP
FC
FC
00
00
30
30
30
30
30
30
30
30
30
30
30
30
30
30
ENDCHAR
STARTCHAR imacron
ENCODING 299
SWIDTH 274 0
DWIDTH 5 0
BBX 5 14 0 0
BITMAP
F8
F8
00
30
30
30
30
30
30
30
30
30
30
30
ENDCHAR
STARTCHAR Ibreve
ENCODING 300
SWIDTH 296 0
DWIDTH 6 0
BBX 6 19 0 0
BITMAP
CC
78
70
00
00
30
30
30
30
30
30
30
30
30
30
30
30
30
30
ENDCHAR
STARTCHAR ibreve
ENCODING 301
SWIDTH 274 0
DWIDTH 5 0
BBX 5 16 0 0
BITMAP
88
F8
70
00
00
30
30
30
30
30
30
30
30
30
30
30
ENDCHAR
STARTCHAR Iogonek
ENCODING 302
SWIDTH 296 0
DWIDTH 6 0
BBX 4 18 0 -4
BITMAP
30
30
30
30
30
30
30
30
30
30
30
30
30
30
60
C0
F0
70
ENDCHAR
STARTCHAR iogonek
ENCODING 303
SWIDTH 274 0
DWIDTH 5 0
BBX 4 19 0 -4
BITMAP
30
30
00
00
30
30
30
30
30
30
30
30
30
30
30
60
C0
D0
70
ENDCHAR
STARTCHAR Idotaccent
ENCODING 304
SWIDTH 296 0
DWIDTH 6 0
BBX 2 19 2 0
BITMAP
C0
C0
C0
00
00
C0
C0
C0
C0
C0
C0
C0
C0
C0
C0
C0
C0
C0
C0
ENDCHAR
STARTCHAR dotlessi
ENCODING 305
SWIDTH 274 0
DWIDTH 5 0
BBX 2 11 2 0
BITMAP
C0
C0
C0
C0
C0
C0
C0
C0
C0
C0
C0
ENDCHAR
STARTCHAR IJ
ENCODING 306
SWIDTH 802 0
DWIDTH 16 0
BBX 12 14 2 0
BITMAP
C7F0
C7F0
C030
C030
C030
C030
C030
C030
C030
C030
C030
CC30
CFE0
C3C0
ENDCHAR
STARTCHAR ij
ENCODING 307
SWIDTH 547 0
DWIDTH 11 0
BBX 7 19 2 -4
BITMAP
C6
C6
00
00
C6
C6
C6
C6
C6
C6
C6
C6
C6
C6
C6
06
06
1E
3C
ENDCHAR
STARTCHAR Jcircumflex
ENCODING 308
SWIDTH 490 0
DWIDTH 10 0
BBX 8 19 0 0
BITMAP
0C
1C
37
00
00
7F
7F
03
03
03
03
03
03
03
03
03
C3
FE
3C
ENDCHAR
STARTCHAR jcircumflex
ENCODING 309
SWIDTH 263 0
DWIDTH 5 0
BBX 7 20 -1 -4
BITMAP
38
3C
66
00
00
18
18
18
18
18
18
18
18
18
18
18
18
18
F0
E0
ENDCHAR
STARTCHAR Kcommaaccent
ENCODING 310
SWIDTH 707 0
DWIDTH 14 0
BBX 12 18 2 -4
BITMAP
C060
C0C0
C180
C300
C600
CC00
DC00
FE00
F700
E300
C180
C1C0
C0E0
C070
0000
0C00
0800
1800
ENDCHAR
STARTCHAR kcommaaccent
ENCODING 311
SWIDTH 582 0
DWIDTH 12 0
BBX 9 19 2 -4
BITMAP
C000
C000
C000
C000
C380
C700
C600
CC00
D800
FC00
EE00
C600
C300
C300
C180
0000
1800
1800
1000
ENDCHAR
STARTCHAR kgreenlandic
ENCODING 312
SWIDTH 578 0
DWIDTH 12 0
BBX 9 11 2 0
BITMAP
C380
C700
CE00
CC00
D800
FC00
EC00
C600
C300
C300
C180
ENDCHAR
STARTCHAR Lacute
ENCODING 313
SWIDTH 524 0
DWIDTH 10 0
BBX 8 19 2 0
BITMAP
20
70
E0
00
00
C0
C0
C0
C0
C0
C0
C0
C0
C0
C0
C0
C0
FF
FF
ENDCHAR
STARTCHAR lacute
ENCODING 314
SWIDTH 285 0
DWIDTH 6 0
BBX 4 20 2 0
BITMAP
40
70
C0
00
00
C0
C0
C0
C0
C0
C0
C0
C0
C0
C0
C0
C0
C0
C0
C0
ENDCHAR
STARTCHAR Lcommaaccent
ENCODING 315
SWIDTH 524 0
DWIDTH 10 0
BBX 8 18 2 -4
BITMAP
C0
C0
C0
C0
C0
C0
C0
C0
C0
C0
C0
C0
FF
FF
00
18
10
30
ENDCHAR
STARTCHAR lcommaaccent
ENCODING 316
SWIDTH 285 0
DWIDTH 6 0
BBX 3 19 1 -4
BITMAP
60
60
60
60
60
60
60
60
60
60
60
60
60
60
60
00
60
40
C0
ENDCHAR
STARTCHAR Lcaron
ENCODING 317
SWIDTH 524 0
DWIDTH 10 0
BBX 8 14 2 0
BITMAP
C3
C3
C3
C3
C0
C0
C0
C0
C0
C0
C0
C0
FF
FF
ENDCHAR
STARTCHAR lcaron
ENCODING 318
SWIDTH 285 0
DWIDTH 6 0
BBX 5 15 2 0
BITMAP
D8
D8
D8
D8
C0
C0
C0
C0
C0
C0
C0
C0
C0
C0
C0
ENDCHAR
STARTCHAR Ldot
ENCODING 319
SWIDTH 524 0
DWIDTH 10 0
BBX 8 14 2 0
BITMAP
C0
C0
C0
C0
C0
C6
C6
C0
C0
C0
C0
C0
FF
FF
ENDCHAR
STARTCHAR ldot
ENCODING 320
SWIDTH 384 0
DWIDTH 8 0
BBX 6 15 2 0
BITMAP
C0
C0
C0
C0
C0
C0
DC
D8
C0
C0
C0
C0
C0
C0
C0
ENDCHAR
STARTCHAR Lslash
ENCODING 321
SWIDTH 552 0
DWIDTH 11 0
BBX 11 14 0 0
BITMAP
1000
1000
1000
1000
1200
1C00
3000
D000
9000
1000
1000
1000
1FE0
1FE0
ENDCHAR
STARTCHAR lslash
ENCODING 322
SWIDTH 376 0
DWIDTH 8 0
BBX 6 15 1 0
BITMAP
30
30
30
30
30
34
3C
70
F0
B0
30
30
30
30
30
ENDCHAR
STARTCHAR Nacute
ENCODING 323
SWIDTH 794 0
DWIDTH 16 0
BBX 12 19 2 0
BITMAP
0100
0380
0700
0000
0000
C030
E030
F030
F830
D830
CC30
CE30
C630
C330
C1B0
C1F0
C0F0
C070
C030
ENDCHAR
STARTCHAR nacute
ENCODING 324
SWIDTH 659 0
DWIDTH 13 0
BBX 10 16 2 0
BITMAP
0200
0700
0C00
0000
0000
DF00
FF80
E180
C0C0
C0C0
C0C0
C0C0
C0C0
C0C0
C0C0
C0C0
ENDCHAR
STARTCHAR Ncommaaccent
ENCODING 325
SWIDTH 794 0
DWIDTH 16 0
BBX 12 18 2 -4
BITMAP
C030
E030
F030
F830
D830
CC30
CE30
C630
C330
C1B0
C1F0
C0F0
C070
C030
0000
0600
0400
0C00
ENDCHAR
STARTCHAR ncommaaccent
ENCODING 326
SWIDTH 659 0
DWIDTH 13 0
BBX 10 15 2 -4
BITMAP
DF00
FF80
E180
C0C0
C0C0
C0C0
C0C0
C0C0
C0C0
C0C0
C0C0
0000
0C00
1800
1800
ENDCHAR
STARTCHAR Ncaron
ENCODING 327
SWIDTH 794 0
DWIDTH 16 0
BBX 12 19 2 0
BITMAP
1980
0F00
0E00
0000
0000
C030
E030
F030
F830
D830
CC30
CE30
C630
C330
C1B0
C1F0
C0F0
C070
C030
ENDCHAR
STARTCHAR ncaron
ENCODING 328
SWIDTH 659 0
DWIDTH 13 0
BBX 10 16 2 0
BITMAP
3300
1E00
0C00
0000
0000
DF00
FF80
E180
C0C0
C0C0
C0C0
C0C0
C0C0
C0C0
C0C0
C0C0
ENDCHAR
STARTCHAR napostrophe
ENCODING 329
SWIDTH 760 0
DWIDTH 15 0
BBX 13 14 1 0
BITMAP
8000
8000
8000
9BE0
9FF0
1C30
1818
1818
1818
1818
1818
1818
1818
1818
ENDCHAR
STARTCHAR Eng
ENCODING 330
SWIDTH 794 0
DWIDTH 16 0
BBX 12 18 2 -4
BITMAP
C030
E030
F030
F830
D830
CC30
CE30
C630
C330
C1B0
C1F0
C0F0
C070
C030
0030
0870
0FE0
07C0
ENDCHAR
STARTCHAR eng
ENCODING 331
SWIDTH 659 0
DWIDTH 13 0
BBX 10 15 2 -4
BITMAP
DF00
FF80
E180
C0C0
C0C0
C0C0
C0C0
C0C0
C0C0
C0C0
C0C0
00C0
00C0
0780
0F00
ENDCHAR
STARTCHAR Omacron
ENCODING 332
SWIDTH 812 0
DWIDTH 16 0
BBX 14 18 1 0
BITMAP
0FC0
0FC0
0000
0000
0FC0
1FF0
7038
601C
C00C
C00C
C00C
C00C
C00C
C00C
601C
7038
1FF0
0FC0
ENDCHAR
STARTCHAR omacron
ENCODING 333
SWIDTH 621 0
DWIDTH 12 0
BBX 11 15 1 0
BITMAP
3F00
3F00
0000
0000
1F00
7F80
60C0
C0C0
C060
C060
C060
C0C0
60C0
7F80
1F00
ENDCHAR
STARTCHAR Obreve
ENCODING 334
SWIDTH 812 0
DWIDTH 16 0
BBX 14 19 1 0
BITMAP
0CC0
0780
0380
0000
0000
0FC0
1FF0
7038
601C
C00C
C00C
C00C
C00C
C00C
C00C
601C
7038
1FF0
0FC0
ENDCHAR
STARTCHAR obreve
ENCODING 335
SWIDTH 621 0
DWIDTH 12 0
BBX 11 16 1 0
BITMAP
1300
1F00
0E00
0000
0000
1F00
7F80
60C0
C0C0
C060
C060
C060
C0C0
60C0
7F80
1F00
ENDCHAR
STARTCHAR Ohungarumlaut
ENCODING 336
SWIDTH 812 0
DWIDTH 16 0
BBX 14 19 1 0
BITMAP
0240
07E0
06C0
0800
0000
0FC0
1FF0
7038
601C
C00C
C00C
C00C
C00C
C00C
C00C
601C
7038
1FF0
0FC0
ENDCHAR
STARTCHAR ohungarumlaut
ENCODING 337
SWIDTH 621 0
DWIDTH 12 0
BBX 11 16 1 0
BITMAP
0900
0D80
1B00
0000
0000
1F00
7F80
60C0
C0C0
C060
C060
C060
C0C0
60C0
7F80
1F00
ENDCHAR
STARTCHAR OE
ENCODING 338
SWIDTH 1095 0
DWIDTH 22 0
BBX 20 14 1 0
BITMAP
0FFFF0
1FFFF0
703000
603000
C03000
C03000
C03FE0
C03FE0
C03000
C03000
603000
703000
1FFFF0
0FFFF0
ENDCHAR
STARTCHAR oe
ENCODING 339
SWIDTH 1049 0
DWIDTH 21 0
BBX 19 11 1 0
BITMAP
1F0F00
7FBFC0
60F040
C0E060
C07FE0
C07FE0
C06000
C0E000
60F040
7FBFC0
1F0F80
ENDCHAR
STARTCHAR Racute
ENCODING 340
SWIDTH 723 0
DWIDTH 14 0
BBX 11 19 2 0
BITMAP
0200
0700
0C00
0000
0000
FF00
FFC0
C0E0
C060
C060
C060
C060
C0C0
FF80
FF00
C180
C1C0
C0C0
C060
ENDCHAR
STARTCHAR racute
ENCODING 341
SWIDTH 382 0
DWIDTH 8 0
BBX 6 16 2 0
BITMAP
10
1C
30
00
00
D8
F8
E0
C0
C0
C0
C0
C0
C0
C0
C0
ENDCHAR
STARTCHAR Rcommaaccent
ENCODING 342
SWIDTH 723 0
DWIDTH 14 0
BBX 11 18 2 -4
BITMAP
FF00
FFC0
C0E0
C060
C060
C060
C060
C0C0
FF80
FF00
C180
C1C0
C0C0
C060
0000
0C00
0C00
0800
ENDCHAR
STARTCHAR rcommaaccent
ENCODING 343
SWIDTH 382 0
DWIDTH 8 0
BBX 6 15 1 -4
BITMAP
6C
7C
70
60
60
60
60
60
60
60
60
00
60
40
C0
ENDCHAR
STARTCHAR Rcaron
ENCODING 344
SWIDTH 723 0
DWIDTH 14 0
BBX 11 19 2 0
BITMAP
7700
3C00
1C00
0000
0000
FF00
FFC0
C0E0
C060
C060
C060
C060
C0C0
FF80
FF00
C180
C1C0
C0C0
C060
ENDCHAR
STARTCHAR rcaron
ENCODING 345
SWIDTH 382 0
DWIDTH 8 0
BBX 6 16 2 0
BITMAP
DC
78
70
00
00
D8
F8
E0
C0
C0
C0
C0
C0
C0
C0
C0
ENDCHAR
STARTCHAR Sacute
ENCODING 346
SWIDTH 616 0
DWIDTH 12 0
BBX 10 19 1 0
BITMAP
0200
0700
0E00
0000
0000
1F00
7FC0
6080
E000
E000
7800
3E00
0F80
01C0
00C0
80C0
C0C0
FF80
3F00
ENDCHAR
STARTCHAR sacute
ENCODING 347
SWIDTH 460 0
DWIDTH 9 0
BBX 9 16 0 0
BITMAP
0400
0700
0C00
0000
0000
3E00
7F00
6100
6000
7800
1E00
0700
0180
4180
FF00
3E00
ENDCHAR
STARTCHAR Scircumflex
ENCODING 348
SWIDTH 616 0
DWIDTH 12 0
BBX 10 19 1 0
BITMAP
0C00
1E00
3B00
0000
0000
1F00
7FC0
6080
E000
E000
7800
3E00
0F80
01C0
00C0
80C0
C0C0
FF80
3F00
ENDCHAR
STARTCHAR scircumflex
ENCODING 349
SWIDTH 460 0
DWIDTH 9 0
BBX 9 16 0 0
BITMAP
1C00
1E00
3300
0000
0000
3E00
7F00
6100
6000
7800
1E00
0700
0180
4180
FF00
3E00
ENDCHAR
STARTCHAR Scedilla
ENCODING 350
SWIDTH 616 0
DWIDTH 12 0
BBX 10 18 1 -4
BITMAP
1F00
7FC0
6080
E000
E000
7800
3F00
0F80
01C0
00C0
80C0
C0C0
FF80
3E00
0400
0A00
0E00
1E00
ENDCHAR
STARTCHAR scedilla
ENCODING 351
SWIDTH 460 0
DWIDTH 9 0
BBX 9 15 0 -4
BITMAP
3E00
7F00
6100
6000
3800
1F00
0300
0180
4300
FF00
0800
0C00
0600
1E00
1C00
ENDCHAR
STARTCHAR Scaron
ENCODING 352
SWIDTH 616 0
DWIDTH 12 0
BBX 10 19 1 0
BITMAP
3300
1E00
1C00
0000
0000
1F00
7FC0
6080
E000
E000
7800
3E00
0F80
01C0
00C0
80C0
C0C0
FF80
3F00
ENDCHAR
STARTCHAR scaron
ENCODING 353
SWIDTH 460 0
DWIDTH 9 0
BBX 9 16 0 0
BITMAP
3300
1E00
1C00
0000
0000
3E00
7F00
6100
6000
7800
1E00
0700
0180
4180
FF00
3E00
ENDCHAR
STARTCHAR uni0162
ENCODING 354
SWIDTH 567 0
DWIDTH 11 0
BBX 11 18 0 -4
BITMAP
FFE0
FFE0
0600
0600
0600
0600
0600
0600
0600
0600
0600
0600
0600
0600
0400
0300
0F00
0E00
ENDCHAR
STARTCHAR uni0163
ENCODING 355
SWIDTH 397 0
DWIDTH 8 0
BBX 7 18 1 -4
BITMAP
60
60
60
FC
FC
60
60
60
60
60
60
64
3C
3E
18
1C
3C
3C
ENDCHAR
STARTCHAR Tcaron
ENCODING 356
SWIDTH 567 0
DWIDTH 11 0
BBX 11 19 0 0
BITMAP
3B00
1E00
0E00
0000
0000
FFE0
FFE0
0600
0600
0600
0600
0600
0600
0600
0600
0600
0600
0600
0600
ENDCHAR
STARTCHAR tcaron
ENCODING 357
SWIDTH 397 0
DWIDTH 8 0
BBX 7 15 1 0
BITMAP
0C
6C
6C
60
FC
FC
60
60
60
60
60
60
60
3C
3E
ENDCHAR
STARTCHAR Tbar
ENCODING 358
SWIDTH 567 0
DWIDTH 11 0
BBX 11 14 0 0
BITMAP
FFE0
FFE0
0600
0600
0600
0600
3FC0
3FC0
0600
0600
0600
0600
0600
0600
ENDCHAR
STARTCHAR tbar
ENCODING 359
SWIDTH 397 0
DWIDTH 8 0
BBX 7 14 1 0
BITMAP
60
60
60
FC
FC
60
60
FC
FC
60
60
60
7C
3E
ENDCHAR
STARTCHAR Utilde
ENCODING 360
SWIDTH 762 0
DWIDTH 15 0
BBX 12 19 2 0
BITMAP
0980
1F80
1300
0000
0000
C030
C030
C030
C030
C030
C030
C030
C030
C030
C060
C060
60E0
7FC0
1F00
ENDCHAR
STARTCHAR utilde
ENCODING 361
SWIDTH 649 0
DWIDTH 13 0
BBX 10 16 1 0
BITMAP
1980
1F00
3700
0000
0000
C0C0
C0C0
C0C0
C0C0
C0C0
C0C0
C0C0
C0C0
61C0
7FC0
3EC0
ENDCHAR
STARTCHAR Umacron
ENCODING 362
SWIDTH 762 0
DWIDTH 15 0
BBX 12 18 2 0
BITMAP
1F80
1F80
0000
0000
C030
C030
C030
C030
C030
C030
C030
C030
C030
C060
C060
60E0
7FC0
1F00
ENDCHAR
STARTCHAR umacron
ENCODING 363
SWIDTH 649 0
DWIDTH 13 0
BBX 10 15 1 0
BITMAP
1F00
1F00
0000
0000
C0C0
C0C0
C0C0
C0C0
C0C0
C0C0
C0C0
C0C0
61C0
7FC0
3EC0
ENDCHAR
STARTCHAR Ubreve
ENCODING 364
SWIDTH 762 0
DWIDTH 15 0
BBX 12 19 2 0
BITMAP
1100
1F00
0E00
0000
0000
C030
C030
C030
C030
C030
C030
C030
C030
C030
C060
C060
60E0
7FC0
1F00
ENDCHAR
STARTCHAR ubreve
ENCODING 365
SWIDTH 649 0
DWIDTH 13 0
BBX 10 16 1 0
BITMAP
1100
1F00
0E00
0000
0000
C0C0
C0C0
C0C0
C0C0
C0C0
C0C0
C0C0
C0C0
61C0
7FC0
3EC0
ENDCHAR
STARTCHAR Uring
ENCODING 366
SWIDTH 762 0
DWIDTH 15 0
BBX 12 19 2 0
BITMAP
0E00
0900
0900
0E00
0000
C030
C030
C030
C030
C030
C030
C030
C030
C030
C060
C060
60E0
7FC0
1F00
ENDCHAR
STARTCHAR uring
ENCODING 367
SWIDTH 649 0
DWIDTH 13 0
BBX 10 16 1 0
BITMAP
0E00
1B00
1B00
0E00
0000
C0C0
C0C0
C0C0
C0C0
C0C0
C0C0
C0C0
C0C0
61C0
7FC0
3EC0
ENDCHAR
STARTCHAR Uhungarumlaut
ENCODING 368
SWIDTH 762 0
DWIDTH 15 0
BBX 12 19 2 0
BITMAP
0900
0D80
1B00
0000
0000
C030
C030
C030
C030
C030
C030
C030
C030
C030
C060
C060
60E0
7FC0
1F00
ENDCHAR
STARTCHAR uhungarumlaut
ENCODING 369
SWIDTH 649 0
DWIDTH 13 0
BBX 10 16 1 0
BITMAP
0900
0D80
1B00
0000
0000
C0C0
C0C0
C0C0
C0C0
C0C0
C0C0
C0C0
C0C0
61C0
7FC0
3EC0
ENDCHAR
STARTCHAR Uogonek
ENCODING 370
SWIDTH 762 0
DWIDTH 15 0
BBX 12 18 2 -4
BITMAP
C030
C030
C030
C030
C030
C030
C030
C030
C030
C060
C060
60E0
7FC0
1F80
0300
0300
0380
0380
ENDCHAR
STARTCHAR uogonek
ENCODING 371
SWIDTH 649 0
DWIDTH 13 0
BBX 10 15 1 -4
BITMAP
C0C0
C0C0
C0C0
C0C0
C0C0
C0C0
C0C0
C0C0
61C0
7FC0
3EC0
0180
0100
01C0
01C0
ENDCHAR
STARTCHAR Wcircumflex
ENCODING 372
SWIDTH 1046 0
DWIDTH 21 0
BBX 21 19 0 0
BITMAP
006000
007000
01DC00
000000
000000
C07018
607030
607030
60D830
30D860
30D860
308860
118C40
198CC0
1904C0
0B0680
0F0780
0E0380
060300
ENDCHAR
STARTCHAR wcircumflex
ENCODING 373
SWIDTH 876 0
DWIDTH 18 0
BBX 18 16 0 0
BITMAP
00C000
01E000
033000
000000
000000
C0C0C0
41C180
61E180
616100
232300
333300
323200
161600
1E1E00
1C1C00
0C0C00
ENDCHAR
STARTCHAR Ycircumflex
ENCODING 374
SWIDTH 630 0
DWIDTH 13 0
BBX 13 19 0 0
BITMAP
0600
0F00
1D80
0000
0000
C038
6030
7060
3060
18C0
1980
0D80
0F00
0700
0600
0600
0600
0600
0600
ENDCHAR
STARTCHAR ycircumflex
ENCODING 375
SWIDTH 514 0
DWIDTH 10 0
BBX 10 20 0 -4
BITMAP
0E00
1E00
3300
0000
0000
C0C0
40C0
6080
6180
3180
3300
1300
1A00
1E00
0E00
0C00
0C00
0C00
F800
F000
ENDCHAR
STARTCHAR Ydieresis
ENCODING 376
SWIDTH 630 0
DWIDTH 13 0
BBX 13 18 0 0
BITMAP
0D80
0980
0000
0000
C038
6030
7060
3060
18C0
1980
0D80
0F00
0700
0600
0600
0600
0600
0600
ENDCHAR
STARTCHAR Zacute
ENCODING 377
SWIDTH 662 0
DWIDTH 13 0
BBX 11 19 1 0
BITMAP
0200
0380
0600
0000
0000
FFE0
FFE0
00C0
01C0
0380
0300
0600
0C00
1C00
3800
3000
6000
FFE0
FFE0
ENDCHAR
STARTCHAR zacute
ENCODING 378
SWIDTH 531 0
DWIDTH 11 0
BBX 9 16 1 0
BITMAP
0400
0600
0C00
1000
0000
FF80
FF80
0300
0600
0C00
1800
3800
3000
6000
FF80
FF80
ENDCHAR
STARTCHAR Zdotaccent
ENCODING 379
SWIDTH 662 0
DWIDTH 13 0
BBX 11 19 1 0
BITMAP
0400
0600
0600
0000
0000
FFE0
FFE0
00C0
01C0
0380
0300
0600
0C00
1C00
3800
3000
6000
FFE0
FFE0
ENDCHAR
STARTCHAR zdotaccent
ENCODING 380
SWIDTH 531 0
DWIDTH 11 0
BBX 9 15 1 0
BITMAP
1C00
1800
0000
0000
FF80
FF80
0300
0600
0C00
1800
3800
3000
6000
FF80
FF80
ENDCHAR
STARTCHAR Zcaron
ENCODING 381
SWIDTH 662 0
DWIDTH 13 0
BBX 11 19 1 0
BITMAP
3300
1E00
0E00
0000
0000
FFE0
FFE0
00C0
01C0
0380
0300
0600
0C00
1C00
3800
3000
6000
FFE0
FFE0
ENDCHAR
STARTCHAR zcaron
ENCODING 382
SWIDTH 531 0
DWIDTH 11 0
BBX 9 16 1 0
BITMAP
7600
3C00
1C00
0000
0000
FF80
FF80
0300
0600
0C00
1800
3800
3000
6000
FF80
FF80
ENDCHAR
STARTCHAR uni018F
ENCODING 399
SWIDTH 782 0
DWIDTH 16 0
BBX 14 14 1 0
BITMAP
0FC0
3FE0
7030
2018
0018
000C
FFFC
FFFC
C00C
C018
6018
7030
3FE0
0F80
ENDCHAR
STARTCHAR florin
ENCODING 402
SWIDTH 358 0
DWIDTH 7 0
BBX 11 19 -2 -4
BITMAP
03E0
07C0
0600
0400
0C00
1F80
1F80
0C00
0C00
0C00
0C00
0800
0800
1800
1800
1800
1800
F000
E000
ENDCHAR
STARTCHAR Ohorn
ENCODING 416
SWIDTH 837 0
DWIDTH 17 0
BBX 14 17 1 0
BITMAP
0004
000C
000C
0FCC
1FF8
7038
601C
C00C
C00C
C00C
C00C
C00C
C00C
601C
7038
1FF0
0FC0
ENDCHAR
STARTCHAR ohorn
ENCODING 417
SWIDTH 651 0
DWIDTH 13 0
BBX 12 14 1 0
BITMAP
0010
0030
0030
1F20
7FE0
60C0
C0C0
C060
C060
C060
C0C0
60C0
7F80
1F00
ENDCHAR
STARTCHAR Uhorn
ENCODING 431
SWIDTH 787 0
DWIDTH 16 0
BBX 14 17 2 0
BITMAP
0004
000C
000C
C038
C030
C030
C030
C030
C030
C030
C030
C030
C060
C060
60E0
7FC0
1F00
ENDCHAR
STARTCHAR uhorn
ENCODING 432
SWIDTH 654 0
DWIDTH 13 0
BBX 12 14 1 0
BITMAP
0010
0030
0030
C0E0
C0C0
C0C0
C0C0
C0C0
C0C0
C0C0
C0C0
61C0
7FC0
3EC0
ENDCHAR
STARTCHAR uni01C4
ENCODING 452
SWIDTH 1445 0
DWIDTH 29 0
BBX 26 19 2 0
BITMAP
00006600
00003C00
00001800
00000000
00000000
FF81FFC0
FFC1FFC0
C0600180
C0300300
C0300600
C0180E00
C0181C00
C0181800
C0183000
C0306000
C030E000
C061C000
FFC1FFC0
FF03FFC0
ENDCHAR
STARTCHAR uni01C5
ENCODING 453
SWIDTH 1314 0
DWIDTH 26 0
BBX 23 16 2 0
BITMAP
0000CC
000078
FF8030
FFC000
C06000
C031FE
C031FE
C0180C
C0180C
C01818
C01830
C03060
C030C0
C060C0
FFC1FE
FF01FE
ENDCHAR
STARTCHAR uni01C6
ENCODING 454
SWIDTH 1211 0
DWIDTH 24 0
BBX 22 16 1 0
BITMAP
000198
0060F0
006060
006000
006000
1E63FC
7F63FC
E0E018
C0E038
C06030
C06060
C060C0
C0E180
60E380
7F63FC
1E63FC
ENDCHAR
STARTCHAR uni01C7
ENCODING 455
SWIDTH 1015 0
DWIDTH 20 0
BBX 17 14 2 0
BITMAP
C03F80
C03F80
C00180
C00180
C00180
C00180
C00180
C00180
C00180
C00180
C00180
C04300
FFFF00
FF3E00
ENDCHAR
STARTCHAR uni01C8
ENCODING 456
SWIDTH 787 0
DWIDTH 16 0
BBX 12 19 2 -4
BITMAP
0030
C030
C000
C000
C030
C030
C030
C030
C030
C030
C030
C030
C030
FF30
FF30
0030
0030
00F0
01E0
ENDCHAR
STARTCHAR uni01C9
ENCODING 457
SWIDTH 548 0
DWIDTH 11 0
BBX 8 19 2 -4
BITMAP
C7
C6
C0
C0
C6
C6
C6
C6
C6
C6
C6
C6
C6
C6
C6
06
06
1E
1C
ENDCHAR
STARTCHAR uni01CA
ENCODING 458
SWIDTH 1284 0
DWIDTH 26 0
BBX 22 14 2 0
BITMAP
C031FC
E031FC
F0300C
F8300C
D8300C
CC300C
CE300C
C6300C
C3300C
C1B00C
C1F00C
C0F30C
C073F8
C030F0
ENDCHAR
STARTCHAR uni01CB
ENCODING 459
SWIDTH 1056 0
DWIDTH 21 0
BBX 18 19 2 -4
BITMAP
0001C0
C030C0
E03000
F03000
F830C0
D830C0
CC30C0
CE30C0
C630C0
C330C0
C1B0C0
C1F0C0
C0F0C0
C070C0
C030C0
0000C0
000180
000780
000700
ENDCHAR
STARTCHAR uni01CC
ENCODING 460
SWIDTH 921 0
DWIDTH 18 0
BBX 15 19 2 -4
BITMAP
0006
0006
0000
0000
DF06
FF86
E186
C0C6
C0C6
C0C6
C0C6
C0C6
C0C6
C0C6
C0C6
0006
0006
003C
003C
ENDCHAR
STARTCHAR Gcaron
ENCODING 486
SWIDTH 751 0
DWIDTH 15 0
BBX 12 19 1 0
BITMAP
1980
0F00
0700
0000
0000
0FC0
3FF0
7030
6000
C000
C000
C1F0
C1F0
C010
C010
6010
7030
3FF0
0FC0
ENDCHAR
STARTCHAR gcaron
ENCODING 487
SWIDTH 638 0
DWIDTH 13 0
BBX 10 20 1 -4
BITMAP
3300
1E00
0C00
0000
0000
3EC0
7FC0
E1C0
C0C0
C0C0
C0C0
C0C0
C0C0
61C0
7FC0
1CC0
00C0
41C0
FF80
3E00
ENDCHAR
STARTCHAR uni01EA
ENCODING 490
SWIDTH 812 0
DWIDTH 16 0
BBX 14 18 1 -4
BITMAP
0FC0
1FF0
7038
601C
C00C
C00C
C00C
C00C
C00C
C00C
6018
7038
1FE0
0FC0
0080
0180
01E0
00E0
ENDCHAR
STARTCHAR uni01EB
ENCODING 491
SWIDTH 621 0
DWIDTH 12 0
BBX 11 15 1 -4
BITMAP
1F00
7F80
60C0
C0C0
C060
C060
C060
C0C0
60C0
7F80
1F00
0200
0600
0700
0780
ENDCHAR
STARTCHAR Aringacute
ENCODING 506
SWIDTH 726 0
DWIDTH 15 0
BBX 14 23 0 0
BITMAP
00C0
0380
0100
0000
0380
0480
0480
0380
0000
0380
0380
0780
06C0
0CC0
0C60
1860
1830
1830
3FF0
3FF8
6018
600C
C00C
ENDCHAR
STARTCHAR aringacute
ENCODING 507
SWIDTH 581 0
DWIDTH 12 0
BBX 9 19 1 0
BITMAP
0700
0E00
1800
1C00
1200
1200
1C00
0000
3E00
7F00
4180
0180
1F80
7F80
C180
C180
C380
FF80
3D80
ENDCHAR
STARTCHAR AEacute
ENCODING 508
SWIDTH 1037 0
DWIDTH 21 0
BBX 20 19 0 0
BITMAP
000400
000600
001C00
000000
000000
00FFE0
01FFE0
01B000
033000
023000
063000
0C3FE0
0C3FE0
1FF000
1FF000
303000
203000
603FF0
C03FF0
ENDCHAR
STARTCHAR aeacute
ENCODING 509
SWIDTH 978 0
DWIDTH 20 0
BBX 18 16 1 0
BITMAP
004000
007000
00C000
000000
000000
3E3E00
7F7F00
41C180
018080
1FFFC0
7FFFC0
C18000
C1C000
C1C100
FE7F80
3C3E00
ENDCHAR
STARTCHAR Oslashacute
ENCODING 510
SWIDTH 812 0
DWIDTH 16 0
BBX 14 20 1 -1
BITMAP
0080
01C0
0380
0000
0018
0FD0
1FF0
7078
605C
C0CC
C18C
C10C
C30C
C60C
C40C
6C1C
7838
3FF0
2FC0
6000
ENDCHAR
STARTCHAR oslashacute
ENCODING 511
SWIDTH 621 0
DWIDTH 12 0
BBX 11 18 1 -2
BITMAP
0200
0700
0E00
0060
0040
1F80
7F80
61C0
C2C0
C660
C460
C860
D0C0
70C0
7F80
7F00
C000
8000
ENDCHAR
STARTCHAR uni0200
ENCODING 512
SWIDTH 726 0
DWIDTH 15 0
BBX 14 19 0 0
BITMAP
0900
1F80
06C0
0000
0000
0380
0380
0780
06C0
0CC0
0C60
1860
1830
1830
3FF0
3FF8
6018
600C
C00C
ENDCHAR
STARTCHAR uni0201
ENCODING 513
SWIDTH 581 0
DWIDTH 12 0
BBX 9 16 1 0
BITMAP
2400
6C00
3600
0000
0000
3E00
7F00
4180
0180
1F80
7F80
C180
C180
C380
FF80
3D80
ENDCHAR
STARTCHAR uni0202
ENCODING 514
SWIDTH 726 0
DWIDTH 15 0
BBX 14 19 0 0
BITMAP
0300
0780
04C0
0000
0000
0380
0380
0780
06C0
0CC0
0C60
1860
1830
1830
3FF0
3FF8
6018
600C
C00C
ENDCHAR
STARTCHAR uni0203
ENCODING 515
SWIDTH 581 0
DWIDTH 12 0
BBX 9 16 1 0
BITMAP
0C00
1E00
3200
0000
0000
3E00
7F00
4180
0180
1F80
7F80
C180
C180
C380
FF80
3D80
ENDCHAR
STARTCHAR uni0204
ENCODING 516
SWIDTH 653 0
DWIDTH 13 0
BBX 10 19 2 0
BITMAP
2400
6E00
3600
0000
0000
FFC0
FFC0
C000
C000
C000
C000
FF80
FF80
C000
C000
C000
C000
FFC0
FFC0
ENDCHAR
STARTCHAR uni0205
ENCODING 517
SWIDTH 588 0
DWIDTH 12 0
BBX 10 16 1 0
BITMAP
2400
6C00
3600
0000
0000
1E00
7F80
6180
C0C0
C0C0
FFC0
FFC0
C000
6080
7F80
1F00
ENDCHAR
STARTCHAR uni0206
ENCODING 518
SWIDTH 653 0
DWIDTH 13 0
BBX 10 19 2 0
BITMAP
0C00
1E00
3300
0000
0000
FFC0
FFC0
C000
C000
C000
C000
FF80
FF80
C000
C000
C000
C000
FFC0
FFC0
ENDCHAR
STARTCHAR uni0207
ENCODING 519
SWIDTH 588 0
DWIDTH 12 0
BBX 10 16 1 0
BITMAP
0C00
1E00
3200
0100
0000
1E00
7F80
6180
C0C0
C0C0
FFC0
FFC0
C000
6080
7F80
1F00
ENDCHAR
STARTCHAR uni0208
ENCODING 520
SWIDTH 296 0
DWIDTH 6 0
BBX 6 19 -1 0
BITMAP
48
DC
6C
00
00
18
18
18
18
18
18
18
18
18
18
18
18
18
18
ENDCHAR
STARTCHAR uni0209
ENCODING 521
SWIDTH 274 0
DWIDTH 5 0
BBX 6 16 -1 0
BITMAP
48
D8
6C
00
00
18
18
18
18
18
18
18
18
18
18
18
ENDCHAR
STARTCHAR uni020A
ENCODING 522
SWIDTH 296 0
DWIDTH 6 0
BBX 6 19 0 0
BITMAP
30
78
C8
04
00
30
30
30
30
30
30
30
30
30
30
30
30
30
30
ENDCHAR
STARTCHAR uni020B
ENCODING 523
SWIDTH 274 0
DWIDTH 5 0
BBX 5 15 0 0
BITMAP
70
78
C8
00
30
30
30
30
30
30
30
30
30
30
30
ENDCHAR
STARTCHAR uni020C
ENCODING 524
SWIDTH 812 0
DWIDTH 16 0
BBX 14 19 1 0
BITMAP
0900
1F80
0C80
0040
0000
0FC0
1FF0
7038
601C
C00C
C00C
C00C
C00C
C00C
C00C
601C
7038
1FF0
0FC0
ENDCHAR
STARTCHAR uni020D
ENCODING 525
SWIDTH 621 0
DWIDTH 12 0
BBX 11 16 1 0
BITMAP
2400
7E00
3200
0900
0000
1F00
7F80
60C0
C0C0
C060
C060
C060
C0C0
60C0
7F80
1F00
ENDCHAR
STARTCHAR uni020E
ENCODING 526
SWIDTH 812 0
DWIDTH 16 0
BBX 14 19 1 0
BITMAP
0300
0780
04C0
0800
0000
0FC0
1FF0
7038
601C
C00C
C00C
C00C
C00C
C00C
C00C
601C
7038
1FF0
0FC0
ENDCHAR
STARTCHAR uni020F
ENCODING 527
SWIDTH 621 0
DWIDTH 12 0
BBX 11 16 1 0
BITMAP
0C00
1E00
1300
0000
0000
1F00
7F80
60C0
C0C0
C060
C060
C060
C0C0
60C0
7F80
1F00
ENDCHAR
STARTCHAR uni0210
ENCODING 528
SWIDTH 723 0
DWIDTH 14 0
BBX 11 19 2 0
BITMAP
2400
6C00
3600
0000
0000
FF00
FFC0
C0E0
C060
C060
C060
C060
C0C0
FF80
FF00
C180
C1C0
C0C0
C060
ENDCHAR
STARTCHAR uni0211
ENCODING 529
SWIDTH 382 0
DWIDTH 8 0
BBX 6 16 1 0
BITMAP
48
D8
6C
00
00
6C
7C
70
60
60
60
60
60
60
60
60
ENDCHAR
STARTCHAR uni0212
ENCODING 530
SWIDTH 723 0
DWIDTH 14 0
BBX 11 19 2 0
BITMAP
0C00
1E00
3200
0100
0000
FF00
FFC0
C0E0
C060
C060
C060
C060
C0C0
FF80
FF00
C180
C1C0
C0C0
C060
ENDCHAR
STARTCHAR uni0213
ENCODING 531
SWIDTH 382 0
DWIDTH 8 0
BBX 5 16 2 0
BITMAP
30
78
C8
00
00
D8
F8
E0
C0
C0
C0
C0
C0
C0
C0
C0
ENDCHAR
STARTCHAR uni0214
ENCODING 532
SWIDTH 762 0
DWIDTH 15 0
BBX 12 19 2 0
BITMAP
1200
3600
1B00
0000
0000
C030
C030
C030
C030
C030
C030
C030
C030
C030
C060
C060
60E0
7FC0
1F00
ENDCHAR
STARTCHAR uni0215
ENCODING 533
SWIDTH 649 0
DWIDTH 13 0
BBX 10 16 1 0
BITMAP
1200
3600
1B00
0000
0000
C0C0
C0C0
C0C0
C0C0
C0C0
C0C0
C0C0
C0C0
61C0
7FC0
3EC0
ENDCHAR
STARTCHAR uni0216
ENCODING 534
SWIDTH 762 0
DWIDTH 15 0
BBX 12 19 2 0
BITMAP
0400
0F00
1900
0000
0000
C030
C030
C030
C030
C030
C030
C030
C030
C030
C060
C060
60E0
7FC0
1F00
ENDCHAR
STARTCHAR uni0217
ENCODING 535
SWIDTH 649 0
DWIDTH 13 0
BBX 10 16 1 0
BITMAP
0400
1F00
1100
0000
0000
C0C0
C0C0
C0C0
C0C0
C0C0
C0C0
C0C0
C0C0
61C0
7FC0
3EC0
ENDCHAR
STARTCHAR Scommaaccent
ENCODING 536
SWIDTH 616 0
DWIDTH 12 0
BBX 10 18 1 -4
BITMAP
1F00
7FC0
6080
E000
E000
7800
3E00
0F80
01C0
00C0
80C0
C0C0
FF80
3F00
0000
0C00
0C00
0800
ENDCHAR
STARTCHAR scommaaccent
ENCODING 537
SWIDTH 460 0
DWIDTH 9 0
BBX 9 15 0 -4
BITMAP
3E00
7F00
6100
6000
7800
1E00
0700
0180
4180
FF00
3E00
0000
0800
1800
1800
ENDCHAR
STARTCHAR uni021A
ENCODING 538
SWIDTH 567 0
DWIDTH 11 0
BBX 11 18 0 -4
BITMAP
FFE0
FFE0
0600
0600
0600
0600
0600
0600
0600
0600
0600
0600
0600
0600
0000
0600
0C00
0C00
ENDCHAR
STARTCHAR uni021B
ENCODING 539
SWIDTH 397 0
DWIDTH 8 0
BBX 7 18 1 -4
BITMAP
60
60
60
FC
FC
60
60
60
60
60
60
60
3C
3E
00
18
10
30
ENDCHAR
STARTCHAR uni022A
ENCODING 554
SWIDTH 812 0
DWIDTH 16 0
BBX 14 21 1 0
BITMAP
07C0
07C0
0000
0000
0EC0
0480
0000
0FC0
1FF0
7038
601C
C00C
C00C
C00C
C00C
C00C
C00C
601C
7038
1FF0
0FC0
ENDCHAR
STARTCHAR uni022B
ENCODING 555
SWIDTH 621 0
DWIDTH 12 0
BBX 11 18 1 0
BITMAP
1F00
1F00
0000
0000
1B00
1200
0000
1F00
7F80
60C0
C0C0
C060
C060
C060
C0C0
60C0
7F80
1F00
ENDCHAR
STARTCHAR uni022C
ENCODING 556
SWIDTH 812 0
DWIDTH 16 0
BBX 14 21 1 0
BITMAP
07C0
07C0
0000
0000
0640
0FC0
0000
0FC0
1FF0
7038
601C
C00C
C00C
C00C
C00C
C00C
C00C
601C
7038
1FF0
0FC0
ENDCHAR
STARTCHAR uni022D
ENCODING 557
SWIDTH 621 0
DWIDTH 12 0
BBX 11 18 1 0
BITMAP
1F00
1F00
0000
0000
1900
3F00
0000
1F00
7F80
60C0
C0C0
C060
C060
C060
C0C0
60C0
7F80
1F00
ENDCHAR
STARTCHAR uni0230
ENCODING 560
SWIDTH 812 0
DWIDTH 16 0
BBX 14 21 1 0
BITMAP
03E0
03E0
0000
0000
0180
0180
0000
0FC0
1FF0
7038
601C
C00C
C00C
C00C
C00C
C00C
C00C
601C
7038
1FF0
0FC0
ENDCHAR
STARTCHAR uni0231
ENCODING 561
SWIDTH 621 0
DWIDTH 12 0
BBX 11 18 1 0
BITMAP
1F00
1F00
0000
0000
0C00
0C00
0000
1F00
7F80
60C0
C0C0
C060
C060
C060
C0C0
60C0
7F80
1F00
ENDCHAR
STARTCHAR uni0232
ENCODING 562
SWIDTH 630 0
DWIDTH 13 0
BBX 13 18 0 0
BITMAP
1F80
1F80
0000
0000
C038
6030
7060
3060
18C0
1980
0D80
0F00
0700
0600
0600
0600
0600
0600
ENDCHAR
STARTCHAR uni0233
ENCODING 563
SWIDTH 514 0
DWIDTH 10 0
BBX 10 19 0 -4
BITMAP
3F00
3F00
0000
0000
C0C0
40C0
6080
6180
3180
3300
1300
1A00
1E00
0E00
0C00
0C00
0C00
F800
F000
ENDCHAR
STARTCHAR uni0237
ENCODING 567
SWIDTH 263 0
DWIDTH 5 0
BBX 5 15 -1 -4
BITMAP
18
18
18
18
18
18
18
18
18
18
18
18
18
F0
E0
ENDCHAR
STARTCHAR uni0259
ENCODING 601
SWIDTH 588 0
DWIDTH 12 0
BBX 10 11 1 0
BITMAP
3E00
FF00
4180
00C0
FFC0
FFC0
80C0
C0C0
C180
7F00
3E00
ENDCHAR
STARTCHAR uni02BB
ENCODING 699
SWIDTH 189 0
DWIDTH 4 0
BBX 2 4 1 10
BITMAP
C0
C0
C0
C0
ENDCHAR
STARTCHAR uni02BC
ENCODING 700
SWIDTH 138 0
DWIDTH 3 0
BBX 1 5 1 9
BITMAP
80
80
80
80
80
ENDCHAR
STARTCHAR uni02BE
ENCODING 702
SWIDTH 249 0
DWIDTH 5 0
BBX 3 5 1 12
BITMAP
C0
40
20
40
C0
ENDCHAR
STARTCHAR uni02BF
ENCODING 703
SWIDTH 248 0
DWIDTH 5 0
BBX 3 5 1 12
BITMAP
60
40
80
C0
60
ENDCHAR
STARTCHAR circumflex
ENCODING 710
SWIDTH 332 0
DWIDTH 7 0
BBX 6 3 0 13
BITMAP
38
78
EC
ENDCHAR
STARTCHAR caron
ENCODING 711
SWIDTH 332 0
DWIDTH 7 0
BBX 6 3 0 13
BITMAP
CC
78
30
ENDCHAR
STARTCHAR uni02C8
ENCODING 712
SWIDTH 105 0
DWIDTH 2 0
BBX 2 4 0 11
BITMAP
C0
C0
C0
C0
ENDCHAR
STARTCHAR uni02C9
ENCODING 713
SWIDTH 350 0
DWIDTH 7 0
BBX 5 2 1 13
BITMAP
F8
F8
ENDCHAR
STARTCHAR uni02CA
ENCODING 714
SWIDTH 350 0
DWIDTH 7 0
BBX 4 3 2 13
BITMAP
40
70
C0
ENDCHAR
STARTCHAR uni02CB
ENCODING 715
SWIDTH 350 0
DWIDTH 7 0
BBX 4 3 1 13
BITMAP
40
E0
70
ENDCHAR
STARTCHAR uni02CC
ENCODING 716
SWIDTH 104 0
DWIDTH 2 0
BBX 2 4 0 -4
BITMAP
C0
C0
C0
C0
ENDCHAR
STARTCHAR breve
ENCODING 728
SWIDTH 328 0
DWIDTH 7 0
BBX 5 3 1 13
BITMAP
88
F8
70
ENDCHAR
STARTCHAR dotaccent
ENCODING 729
SWIDTH 293 0
DWIDTH 6 0
BBX 2 2 2 13
BITMAP
C0
C0
ENDCHAR
STARTCHAR ring
ENCODING 730
SWIDTH 434 0
DWIDTH 9 0
BBX 5 4 1 12
BITMAP
70
D8
D8
70
ENDCHAR
STARTCHAR ogonek
ENCODING 731
SWIDTH 266 0
DWIDTH 5 0
BBX 4 5 0 -4
BITMAP
30
60
40
F0
70
ENDCHAR
STARTCHAR tilde
ENCODING 732
SWIDTH 371 0
DWIDTH 7 0
BBX 6 3 1 13
BITMAP
4C
FC
98
ENDCHAR
STARTCHAR hungarumlaut
ENCODING 733
SWIDTH 464 0
DWIDTH 9 0
BBX 6 3 2 13
BITMAP
48
EC
D8
ENDCHAR
STARTCHAR gravecomb
ENCODING 768
SWIDTH 0 0
DWIDTH 0 0
BBX 4 3 -5 13
BITMAP
40
E0
70
ENDCHAR
STARTCHAR acutecomb
ENCODING 769
SWIDTH 0 0
DWIDTH 0 0
BBX 4 3 -4 13
BITMAP
40
70
C0
ENDCHAR
STARTCHAR uni0302
ENCODING 770
SWIDTH 0 0
DWIDTH 0 0
BBX 6 3 -6 13
BITMAP
70
78
DC
ENDCHAR
STARTCHAR tildecomb
ENCODING 771
SWIDTH 0 0
DWIDTH 0 0
BBX 6 3 -7 13
BITMAP
64
FC
DC
ENDCHAR
STARTCHAR uni0304
ENCODING 772
SWIDTH 0 0
DWIDTH 0 0
BBX 6 2 -6 13
BITMAP
FC
FC
ENDCHAR
STARTCHAR uni0306
ENCODING 774
SWIDTH 0 0
DWIDTH 0 0
BBX 5 3 -6 13
BITMAP
88
F8
70
ENDCHAR
STARTCHAR uni0307
ENCODING 775
SWIDTH 0 0
DWIDTH 0 0
BBX 2 2 -3 13
BITMAP
C0
C0
ENDCHAR
STARTCHAR uni0308
ENCODING 776
SWIDTH 0 0
DWIDTH 0 0
BBX 6 2 -7 13
BITMAP
4C
EC
ENDCHAR
STARTCHAR hookabovecomb
ENCODING 777
SWIDTH 0 0
DWIDTH 0 0
BBX 3 5 -4 12
BITMAP
40
E0
20
20
40
ENDCHAR
STARTCHAR uni030A
ENCODING 778
SWIDTH 0 0
DWIDTH 0 0
BBX 5 4 -6 12
BITMAP
70
C8
C8
70
ENDCHAR
STARTCHAR uni030B
ENCODING 779
SWIDTH 0 0
DWIDTH 0 0
BBX 6 3 -7 13
BITMAP
48
6C
D8
ENDCHAR
STARTCHAR uni030C
ENCODING 780
SWIDTH 0 0
DWIDTH 0 0
BBX 7 3 -7 13
BITMAP
EE
3C
38
ENDCHAR
STARTCHAR uni030F
ENCODING 783
SWIDTH 0 0
DWIDTH 0 0
BBX 6 3 -7 13
BITMAP
48
D8
6C
ENDCHAR
STARTCHAR uni0311
ENCODING 785
SWIDTH 0 0
DWIDTH 0 0
BBX 5 3 -6 13
BITMAP
30
78
C8
ENDCHAR
STARTCHAR uni0312
ENCODING 786
SWIDTH 0 0
DWIDTH 0 0
BBX 2 3 -3 13
BITMAP
40
C0
C0
ENDCHAR
STARTCHAR uni031B
ENCODING 795
SWIDTH 0 0
DWIDTH 0 0
BBX 3 4 -4 10
BITMAP
20
20
E0
C0
ENDCHAR
STARTCHAR dotbelowcomb
ENCODING 803
SWIDTH 0 0
DWIDTH 0 0
BBX 2 2 -3 -4
BITMAP
C0
C0
ENDCHAR
STARTCHAR uni0324
ENCODING 804
SWIDTH 0 0
DWIDTH 0 0
BBX 5 2 -6 -4
BITMAP
88
D8
ENDCHAR
STARTCHAR uni0326
ENCODING 806
SWIDTH 0 0
DWIDTH 0 0
BBX 2 3 -3 -4
BITMAP
C0
C0
80
ENDCHAR
STARTCHAR uni0327
ENCODING 807
SWIDTH 0 0
DWIDTH 0 0
BBX 4 5 -5 -4
BITMAP
40
60
70
F0
F0
ENDCHAR
STARTCHAR uni0328
ENCODING 808
SWIDTH 0 0
DWIDTH 0 0
BBX 3 5 -4 -4
BITMAP
60
C0
80
E0
E0
ENDCHAR
STARTCHAR uni032E
ENCODING 814
SWIDTH 0 0
DWIDTH 0 0
BBX 5 3 -6 -4
BITMAP
88
F8
70
ENDCHAR
STARTCHAR uni0331
ENCODING 817
SWIDTH 0 0
DWIDTH 0 0
BBX 5 2 -6 -3
BITMAP
F8
F8
ENDCHAR
STARTCHAR uni0335
ENCODING 821
SWIDTH 0 0
DWIDTH 0 0
BBX 7 2 -7 9
BITMAP
FE
FE
ENDCHAR
STARTCHAR uni0336
ENCODING 822
SWIDTH 0 0
DWIDTH 0 0
BBX 8 2 -10 9
BITMAP
FF
FF
ENDCHAR
STARTCHAR uni0337
ENCODING 823
SWIDTH 0 0
DWIDTH 0 0
BBX 4 10 -5 2
BITMAP
10
30
30
20
60
60
40
C0
C0
80
ENDCHAR
STARTCHAR uni0338
ENCODING 824
SWIDTH 0 0
DWIDTH 0 0
BBX 7 16 -6 0
BITMAP
06
04
0C
0C
08
18
18
10
30
30
20
60
60
40
40
C0
ENDCHAR
STARTCHAR uni0394
ENCODING 916
SWIDTH 726 0
DWIDTH 15 0
BBX 14 14 0 0
BITMAP
0380
0780
06C0
04C0
0CC0
0C60
1860
1830
3030
3018
3018
6018
7FFC
FFFC
ENDCHAR
STARTCHAR uni03A9
ENCODING 937
SWIDTH 892 0
DWIDTH 18 0
BBX 18 15 0 0
BITMAP
00C000
07F800
0E1C00
180600
300700
300300
300300
200300
300300
300300
300200
180600
0C0C00
FE1FC0
FE1FC0
ENDCHAR
STARTCHAR uni03BC
ENCODING 956
SWIDTH 672 0
DWIDTH 13 0
BBX 10 15 2 -4
BITMAP
C0C0
C0C0
C0C0
C0C0
C0C0
C0C0
C0C0
C1C0
E1C0
FEC0
FCC0
C000
C000
C000
C000
ENDCHAR
STARTCHAR pi
ENCODING 960
SWIDTH 723 0
DWIDTH 14 0
BBX 14 11 0 0
BITMAP
7FFC
FFFC
C420
8C20
CC20
8C20
0C20
0C20
0820
0820
0820
ENDCHAR
STARTCHAR uni1E08
ENCODING 7688
SWIDTH 699 0
DWIDTH 14 0
BBX 12 22 1 -4
BITMAP
0180
0380
0600
0000
0FC0
1FF0
7030
6000
C000
C000
C000
C000
C000
C000
6010
7870
3FE0
0FC0
0200
0300
0780
0700
ENDCHAR
STARTCHAR uni1E09
ENCODING 7689
SWIDTH 562 0
DWIDTH 11 0
BBX 9 20 1 -4
BITMAP
0400
0700
0C00
0000
0000
1F00
7F80
6080
C000
C000
C000
C000
C000
6080
7F80
1F00
0800
0600
1E00
1C00
ENDCHAR
STARTCHAR uni1E0C
ENCODING 7692
SWIDTH 783 0
DWIDTH 16 0
BBX 13 18 2 -4
BITMAP
FF80
FFC0
C060
C030
C030
C018
C018
C018
C018
C030
C030
C060
FFC0
FF00
0000
0000
0E00
0600
ENDCHAR
STARTCHAR uni1E0D
ENCODING 7693
SWIDTH 680 0
DWIDTH 14 0
BBX 11 19 1 -4
BITMAP
0060
0060
0060
0060
1E60
7F60
E0E0
C0E0
C060
C060
C060
C0E0
60E0
7F60
1E60
0000
0000
0600
0600
ENDCHAR
STARTCHAR uni1E0E
ENCODING 7694
SWIDTH 783 0
DWIDTH 16 0
BBX 13 17 2 -3
BITMAP
FF80
FFC0
C060
C030
C030
C018
C018
C018
C018
C030
C030
C060
FFC0
FF00
0000
1F80
1F80
ENDCHAR
STARTCHAR uni1E0F
ENCODING 7695
SWIDTH 680 0
DWIDTH 14 0
BBX 11 18 1 -3
BITMAP
0060
0060
0060
0060
1E60
7F60
E0E0
C0E0
C060
C060
C060
C0E0
60E0
7F60
1E60
0000
1F80
1F80
ENDCHAR
STARTCHAR uni1E14
ENCODING 7700
SWIDTH 653 0
DWIDTH 13 0
BBX 10 20 2 0
BITMAP
3800
1C00
1F00
1F00
0000
0000
FFC0
FFC0
C000
C000
C000
C000
FF80
FF80
C000
C000
C000
C000
FFC0
FFC0
ENDCHAR
STARTCHAR uni1E15
ENCODING 7701
SWIDTH 588 0
DWIDTH 12 0
BBX 10 17 1 0
BITMAP
3000
1800
3E00
3E00
0000
0000
1E00
7F80
6180
C0C0
C0C0
FFC0
FFC0
C000
6080
7F80
1F00
ENDCHAR
STARTCHAR uni1E16
ENCODING 7702
SWIDTH 653 0
DWIDTH 13 0
BBX 10 20 2 0
BITMAP
0700
0E00
3E00
3E00
0000
0000
FFC0
FFC0
C000
C000
C000
C000
FF80
FF80
C000
C000
C000
C000
FFC0
FFC0
ENDCHAR
STARTCHAR uni1E17
ENCODING 7703
SWIDTH 588 0
DWIDTH 12 0
BBX 10 17 1 0
BITMAP
0700
0E00
1E00
1E00
0000
0000
1E00
7F80
6180
C0C0
C0C0
FFC0
FFC0
C000
6080
7F80
1F00
ENDCHAR
STARTCHAR uni1E1C
ENCODING 7708
SWIDTH 653 0
DWIDTH 13 0
BBX 10 23 2 -4
BITMAP
2200
3E00
1C00
0000
0000
FFC0
FFC0
C000
C000
C000
FF80
FF80
C000
C000
C000
C000
C000
FFC0
FFC0
0C00
0600
1E00
1E00
ENDCHAR
STARTCHAR uni1E1D
ENCODING 7709
SWIDTH 588 0
DWIDTH 12 0
BBX 10 19 1 -4
BITMAP
3200
1E00
0C00
0000
1F00
7F80
C0C0
C0C0
FFC0
C000
C000
C080
6180
3F00
0C00
0C00
0200
1E00
1C00
ENDCHAR
STARTCHAR uni1E20
ENCODING 7712
SWIDTH 751 0
DWIDTH 15 0
BBX 12 18 1 0
BITMAP
0FC0
0FC0
0000
0000
0FC0
3FF0
7030
6000
C000
C000
C1F0
C1F0
C010
C010
6010
7030
3FF0
0FC0
ENDCHAR
STARTCHAR uni1E21
ENCODING 7713
SWIDTH 638 0
DWIDTH 13 0
BBX 10 19 1 -4
BITMAP
3F00
3F00
0000
0000
3EC0
7FC0
E1C0
C0C0
C0C0
C0C0
C0C0
C0C0
61C0
7FC0
1CC0
00C0
41C0
FF80
3E00
ENDCHAR
STARTCHAR uni1E24
ENCODING 7716
SWIDTH 793 0
DWIDTH 16 0
BBX 12 18 2 -4
BITMAP
C030
C030
C030
C030
C030
C030
FFF0
FFF0
C030
C030
C030
C030
C030
C030
0000
0000
0600
0600
ENDCHAR
STARTCHAR uni1E25
ENCODING 7717
SWIDTH 665 0
DWIDTH 13 0
BBX 10 19 2 -4
BITMAP
C000
C000
C000
C000
DF00
FF80
E1C0
C0C0
C0C0
C0C0
C0C0
C0C0
C0C0
C0C0
C0C0
0000
0000
0C00
0C00
ENDCHAR
STARTCHAR uni1E2A
ENCODING 7722
SWIDTH 793 0
DWIDTH 16 0
BBX 12 18 2 -4
BITMAP
C030
C030
C030
C030
C030
C030
FFF0
FFF0
C030
C030
C030
C030
C030
C030
0000
1980
0F00
0E00
ENDCHAR
STARTCHAR uni1E2B
ENCODING 7723
SWIDTH 665 0
DWIDTH 13 0
BBX 10 19 2 -4
BITMAP
C000
C000
C000
C000
DF00
FF80
E1C0
C0C0
C0C0
C0C0
C0C0
C0C0
C0C0
C0C0
C0C0
0000
3300
1E00
1C00
ENDCHAR
STARTCHAR uni1E2E
ENCODING 7726
SWIDTH 296 0
DWIDTH 6 0
BBX 6 21 0 0
BITMAP
1C
38
60
00
DC
48
00
30
30
30
30
30
30
30
30
30
30
30
30
30
30
ENDCHAR
STARTCHAR uni1E2F
ENCODING 7727
SWIDTH 274 0
DWIDTH 5 0
BBX 5 17 0 0
BITMAP
18
38
60
D8
C8
00
30
30
30
30
30
30
30
30
30
30
30
ENDCHAR
STARTCHAR uni1E36
ENCODING 7734
SWIDTH 524 0
DWIDTH 10 0
BBX 8 18 2 -4
BITMAP
C0
C0
C0
C0
C0
C0
C0
C0
C0
C0
C0
C0
FF
FF
00
00
18
18
ENDCHAR
STARTCHAR uni1E37
ENCODING 7735
SWIDTH 285 0
DWIDTH 6 0
BBX 2 19 2 -4
BITMAP
C0
C0
C0
C0
C0
C0
C0
C0
C0
C0
C0
C0
C0
C0
C0
00
00
C0
C0
ENDCHAR
STARTCHAR uni1E3A
ENCODING 7738
SWIDTH 524 0
DWIDTH 10 0
BBX 8 17 2 -3
BITMAP
C0
C0
C0
C0
C0
C0
C0
C0
C0
C0
C0
C0
FF
FF
00
7E
7E
ENDCHAR
STARTCHAR uni1E3B
ENCODING 7739
SWIDTH 285 0
DWIDTH 6 0
BBX 6 18 0 -3
BITMAP
30
30
30
30
30
30
30
30
30
30
30
30
30
30
30
00
FC
FC
ENDCHAR
STARTCHAR uni1E42
ENCODING 7746
SWIDTH 939 0
DWIDTH 19 0
BBX 15 18 2 -4
BITMAP
E00E
E00E
F01E
F01E
D836
D836
CC66
CC66
C6C6
C6C6
C386
C386
C106
C006
0000
0000
0380
0300
ENDCHAR
STARTCHAR uni1E43
ENCODING 7747
SWIDTH 1044 0
DWIDTH 21 0
BBX 17 15 2 -4
BITMAP
DF1F00
FFBF80
E1E180
C0C180
C0C180
C0C180
C0C180
C0C180
C0C180
C0C180
C0C180
000000
000000
01C000
00C000
ENDCHAR
STARTCHAR uni1E44
ENCODING 7748
SWIDTH 794 0
DWIDTH 16 0
BBX 12 19 2 0
BITMAP
0600
0600
0600
0000
0000
C030
E030
F030
F830
D830
CC30
CE30
C630
C330
C1B0
C1F0
C0F0
C070
C030
ENDCHAR
STARTCHAR uni1E45
ENCODING 7749
SWIDTH 659 0
DWIDTH 13 0
BBX 10 15 2 0
BITMAP
0C00
0C00
0000
0000
DF00
FF80
E180
C0C0
C0C0
C0C0
C0C0
C0C0
C0C0
C0C0
C0C0
ENDCHAR
STARTCHAR uni1E46
ENCODING 7750
SWIDTH 794 0
DWIDTH 16 0
BBX 12 18 2 -4
BITMAP
C030
E030
F030
F830
D830
CC30
CE30
C630
C330
C1B0
C1F0
C0F0
C070
C030
0000
0000
0600
0600
ENDCHAR
STARTCHAR uni1E47
ENCODING 7751
SWIDTH 659 0
DWIDTH 13 0
BBX 10 15 2 -4
BITMAP
DF00
FF80
E180
C0C0
C0C0
C0C0
C0C0
C0C0
C0C0
C0C0
C0C0
0000
0000
0C00
0C00
ENDCHAR
STARTCHAR uni1E48
ENCODING 7752
SWIDTH 794 0
DWIDTH 16 0
BBX 12 17 2 -3
BITMAP
C030
E030
F030
F830
D830
CC30
CE30
C630
C330
C1B0
C1F0
C0F0
C070
C030
0000
1F80
1F80
ENDCHAR
STARTCHAR uni1E49
ENCODING 7753
SWIDTH 659 0
DWIDTH 13 0
BBX 10 14 2 -3
BITMAP
DF00
FF80
E180
C0C0
C0C0
C0C0
C0C0
C0C0
C0C0
C0C0
C0C0
0000
3F00
3F00
ENDCHAR
STARTCHAR uni1E4C
ENCODING 7756
SWIDTH 812 0
DWIDTH 16 0
BBX 14 21 1 0
BITMAP
00C0
0380
0100
0000
0640
0FC0
0000
0FC0
1FF0
7038
601C
C00C
C00C
C00C
C00C
C00C
C00C
601C
7038
1FF0
0FC0
ENDCHAR
STARTCHAR uni1E4D
ENCODING 7757
SWIDTH 621 0
DWIDTH 12 0
BBX 11 18 1 0
BITMAP
0300
0E00
0400
0000
1900
3F00
0000
1F00
7F80
60C0
C0C0
C060
C060
C060
C0C0
60C0
7F80
1F00
ENDCHAR
STARTCHAR uni1E4E
ENCODING 7758
SWIDTH 812 0
DWIDTH 16 0
BBX 14 20 1 0
BITMAP
0DC0
0480
0000
0E40
0FC0
0000
0FC0
1FF0
7038
601C
C00C
C00C
C00C
C00C
C00C
C00C
601C
7038
1FF0
0FC0
ENDCHAR
STARTCHAR uni1E4F
ENCODING 7759
SWIDTH 621 0
DWIDTH 12 0
BBX 11 17 1 0
BITMAP
3300
1200
0000
3900
3F00
0000
1F00
7F80
60C0
C0C0
C060
C060
C060
C0C0
60C0
7F80
1F00
ENDCHAR
STARTCHAR uni1E50
ENCODING 7760
SWIDTH 812 0
DWIDTH 16 0
BBX 14 20 1 0
BITMAP
0E00
0700
07C0
07C0
0000
0000
0FC0
1FF0
7038
601C
C00C
C00C
C00C
C00C
C00C
C00C
601C
7038
1FF0
0FC0
ENDCHAR
STARTCHAR uni1E51
ENCODING 7761
SWIDTH 621 0
DWIDTH 12 0
BBX 11 17 1 0
BITMAP
3800
1C00
1F00
1F00
0000
0000
1F00
7F80
60C0
C0C0
C060
C060
C060
C0C0
60C0
7F80
1F00
ENDCHAR
STARTCHAR uni1E52
ENCODING 7762
SWIDTH 812 0
DWIDTH 16 0
BBX 14 20 1 0
BITMAP
01C0
0380
0F80
0F80
0000
0000
0FC0
1FF0
7038
601C
C00C
C00C
C00C
C00C
C00C
C00C
601C
7038
1FF0
0FC0
ENDCHAR
STARTCHAR uni1E53
ENCODING 7763
SWIDTH 621 0
DWIDTH 12 0
BBX 11 17 1 0
BITMAP
0300
0600
1F00
1F00
0000
0000
1F00
7F80
60C0
C0C0
C060
C060
C060
C0C0
60C0
7F80
1F00
ENDCHAR
STARTCHAR uni1E5A
ENCODING 7770
SWIDTH 723 0
DWIDTH 14 0
BBX 11 18 2 -4
BITMAP
FF00
FFC0
C0E0
C060
C060
C060
C060
C0C0
FF80
FF00
C180
C1C0
C0C0
C060
0000
0000
0C00
0C00
ENDCHAR
STARTCHAR uni1E5B
ENCODING 7771
SWIDTH 382 0
DWIDTH 8 0
BBX 5 15 2 -4
BITMAP
D8
F8
E0
C0
C0
C0
C0
C0
C0
C0
C0
00
00
C0
C0
ENDCHAR
STARTCHAR uni1E5E
ENCODING 7774
SWIDTH 723 0
DWIDTH 14 0
BBX 11 17 2 -3
BITMAP
FF00
FFC0
C0E0
C060
C060
C060
C060
C0C0
FF80
FF00
C180
C1C0
C0C0
C060
0000
3F00
3F00
ENDCHAR
STARTCHAR uni1E5F
ENCODING 7775
SWIDTH 382 0
DWIDTH 8 0
BBX 6 14 1 -3
BITMAP
6C
7C
70
60
60
60
60
60
60
60
60
00
F8
F8
ENDCHAR
STARTCHAR uni1E60
ENCODING 7776
SWIDTH 616 0
DWIDTH 12 0
BBX 10 19 1 0
BITMAP
0C00
0C00
0C00
0000
0000
1F00
7FC0
6080
E000
E000
7800
3E00
0F80
01C0
00C0
80C0
C0C0
FF80
3F00
ENDCHAR
STARTCHAR uni1E61
ENCODING 7777
SWIDTH 460 0
DWIDTH 9 0
BBX 9 15 0 0
BITMAP
0C00
0C00
0000
0000
3E00
7F00
6100
6000
7800
1E00
0700
0180
4180
FF00
3E00
ENDCHAR
STARTCHAR uni1E62
ENCODING 7778
SWIDTH 616 0
DWIDTH 12 0
BBX 10 18 1 -4
BITMAP
1F00
7FC0
6080
E000
E000
7800
3E00
0F80
01C0
00C0
80C0
C0C0
FF80
3F00
0000
0000
0C00
0C00
ENDCHAR
STARTCHAR uni1E63
ENCODING 7779
SWIDTH 460 0
DWIDTH 9 0
BBX 9 15 0 -4
BITMAP
3E00
7F00
6100
6000
7800
1E00
0700
0180
4180
FF00
3E00
0000
0000
1C00
0C00
ENDCHAR
STARTCHAR uni1E64
ENCODING 7780
SWIDTH 616 0
DWIDTH 12 0
BBX 10 20 1 0
BITMAP
0C00
0C00
0600
1C00
0800
0000
1F00
7FC0
6080
E000
E000
7800
3E00
0F80
01C0
00C0
80C0
C0C0
FF80
3F00
ENDCHAR
STARTCHAR uni1E65
ENCODING 7781
SWIDTH 460 0
DWIDTH 9 0
BBX 9 17 0 0
BITMAP
0C00
0C00
0E00
1C00
0800
0000
3E00
7F00
6100
6000
7800
1E00
0700
0180
4180
FF00
3E00
ENDCHAR
STARTCHAR uni1E66
ENCODING 7782
SWIDTH 616 0
DWIDTH 12 0
BBX 10 20 1 0
BITMAP
0C00
0E00
0000
3B80
0E00
0000
1F00
7FC0
6080
E000
E000
7800
3E00
0F80
01C0
00C0
80C0
C0C0
FF80
3F00
ENDCHAR
STARTCHAR uni1E67
ENCODING 7783
SWIDTH 460 0
DWIDTH 9 0
BBX 9 16 0 0
BITMAP
0C00
0C00
7300
1E00
0000
3E00
7F00
6100
6000
7800
1E00
0700
0180
4180
FF00
3E00
ENDCHAR
STARTCHAR uni1E68
ENCODING 7784
SWIDTH 616 0
DWIDTH 12 0
BBX 10 23 1 -4
BITMAP
0C00
0C00
0C00
0000
0000
1F00
7FC0
6080
E000
E000
7800
3E00
0F80
01C0
00C0
80C0
C0C0
FF80
3F00
0000
0000
0C00
0C00
ENDCHAR
STARTCHAR uni1E69
ENCODING 7785
SWIDTH 460 0
DWIDTH 9 0
BBX 9 19 0 -4
BITMAP
1C00
0C00
0000
0000
3E00
7F00
6100
6000
7800
1E00
0700
0180
4180
FF00
3E00
0000
0000
1C00
0C00
ENDCHAR
STARTCHAR uni1E6C
ENCODING 7788
SWIDTH 567 0
DWIDTH 11 0
BBX 11 18 0 -4
BITMAP
FFE0
FFE0
0600
0600
0600
0600
0600
0600
0600
0600
0600
0600
0600
0600
0000
0000
0E00
0600
ENDCHAR
STARTCHAR uni1E6D
ENCODING 7789
SWIDTH 397 0
DWIDTH 8 0
BBX 7 18 1 -4
BITMAP
60
60
60
FC
FC
60
60
60
60
60
60
60
3C
3E
00
00
18
18
ENDCHAR
STARTCHAR uni1E6E
ENCODING 7790
SWIDTH 567 0
DWIDTH 11 0
BBX 11 17 0 -3
BITMAP
FFE0
FFE0
0600
0600
0600
0600
0600
0600
0600
0600
0600
0600
0600
0600
0000
1F80
1F80
ENDCHAR
STARTCHAR uni1E6F
ENCODING 7791
SWIDTH 397 0
DWIDTH 8 0
BBX 7 17 1 -3
BITMAP
60
60
60
FC
FC
60
60
60
60
60
60
60
3C
3E
00
7E
7E
ENDCHAR
STARTCHAR uni1E78
ENCODING 7800
SWIDTH 762 0
DWIDTH 15 0
BBX 12 21 2 0
BITMAP
0300
0700
0C00
0000
1C80
1F00
0000
C030
C030
C030
C030
C030
C030
C030
C030
C030
C060
C060
60E0
7FC0
1F00
ENDCHAR
STARTCHAR uni1E79
ENCODING 7801
SWIDTH 649 0
DWIDTH 13 0
BBX 10 18 1 0
BITMAP
0300
0E00
0400
0000
1D80
3F00
0000
C0C0
C0C0
C0C0
C0C0
C0C0
C0C0
C0C0
C0C0
61C0
7FC0
3EC0
ENDCHAR
STARTCHAR uni1E7A
ENCODING 7802
SWIDTH 762 0
DWIDTH 15 0
BBX 12 19 2 0
BITMAP
1B00
1F00
1F00
0000
0000
C030
C030
C030
C030
C030
C030
C030
C030
C030
C060
C060
60E0
7FC0
1F00
ENDCHAR
STARTCHAR uni1E7B
ENCODING 7803
SWIDTH 649 0
DWIDTH 13 0
BBX 10 16 1 0
BITMAP
1300
1F00
1F00
0000
0000
C0C0
C0C0
C0C0
C0C0
C0C0
C0C0
C0C0
C0C0
61C0
7FC0
3EC0
ENDCHAR
STARTCHAR Wgrave
ENCODING 7808
SWIDTH 1046 0
DWIDTH 21 0
BBX 21 19 0 0
BITMAP
004000
01C000
006000
000000
000000
C07018
607030
607030
60D830
30D860
30D860
308860
118C40
198CC0
1904C0
0B0680
0F0780
0E0380
060300
ENDCHAR
STARTCHAR wgrave
ENCODING 7809
SWIDTH 876 0
DWIDTH 18 0
BBX 18 16 0 0
BITMAP
010000
038000
01C000
000000
000000
C0C0C0
41C180
61E180
616100
232300
333300
323200
161600
1E1E00
1C1C00
0C0C00
ENDCHAR
STARTCHAR Wacute
ENCODING 7810
SWIDTH 1046 0
DWIDTH 21 0
BBX 21 19 0 0
BITMAP
001000
001C00
003000
004000
000000
C07018
607030
607030
60D830
30D860
30D860
308860
118C40
198CC0
1904C0
0B0680
0F0780
0E0380
060300
ENDCHAR
STARTCHAR wacute
ENCODING 7811
SWIDTH 876 0
DWIDTH 18 0
BBX 18 16 0 0
BITMAP
004000
007000
00C000
000000
000000
C0C0C0
41C180
61E180
616100
232300
333300
323200
161600
1E1E00
1C1C00
0C0C00
ENDCHAR
STARTCHAR Wdieresis
ENCODING 7812
SWIDTH 1046 0
DWIDTH 21 0
BBX 21 18 0 0
BITMAP
00D800
00D800
000000
000000
C07018
607030
607030
60D830
30D860
30D860
308860
118C40
198CC0
1904C0
0B0680
0F0780
0E0380
060300
ENDCHAR
STARTCHAR wdieresis
ENCODING 7813
SWIDTH 876 0
DWIDTH 18 0
BBX 18 15 0 0
BITMAP
032000
037000
000000
000000
C0C0C0
41C180
61E180
616100
232300
333300
323200
161600
1E1E00
1C1C00
0C0C00
ENDCHAR
STARTCHAR uni1E8E
ENCODING 7822
SWIDTH 630 0
DWIDTH 13 0
BBX 13 19 0 0
BITMAP
0200
0600
0600
0000
0000
C038
6030
7060
3060
18C0
1980
0D80
0F00
0700
0600
0600
0600
0600
0600
ENDCHAR
STARTCHAR uni1E8F
ENCODING 7823
SWIDTH 514 0
DWIDTH 10 0
BBX 10 19 0 -4
BITMAP
0C00
0C00
0000
0000
C0C0
40C0
6080
6180
3180
3300
1300
1A00
1E00
0E00
0C00
0C00
0C00
F800
F000
ENDCHAR
STARTCHAR uni1E92
ENCODING 7826
SWIDTH 662 0
DWIDTH 13 0
BBX 11 18 1 -4
BITMAP
FFE0
FFE0
00C0
01C0
0380
0300
0600
0C00
1C00
3800
3000
6000
FFE0
FFE0
0000
0000
0E00
0600
ENDCHAR
STARTCHAR uni1E93
ENCODING 7827
SWIDTH 531 0
DWIDTH 11 0
BBX 9 15 1 -4
BITMAP
FF80
FF80
0300
0600
0C00
1800
3800
3000
6000
FF80
FF80
0000
0000
1C00
1800
ENDCHAR
STARTCHAR uni1E97
ENCODING 7831
SWIDTH 397 0
DWIDTH 8 0
BBX 8 17 0 0
BITMAP
48
CC
00
30
30
30
7E
7E
30
30
30
30
30
30
30
1E
1F
ENDCHAR
STARTCHAR uni1E9E
ENCODING 7838
SWIDTH 676 0
DWIDTH 14 0
BBX 11 14 2 0
BITMAP
1F00
7FC0
E0C0
C180
C380
C300
C780
C7C0
C0E0
C060
C060
C0E0
CFC0
CF80
ENDCHAR
STARTCHAR uni1EA0
ENCODING 7840
SWIDTH 726 0
DWIDTH 15 0
BBX 14 18 0 -4
BITMAP
0380
0380
0780
06C0
0CC0
0C60
1860
1830
1830
3FF0
3FF8
6018
600C
C00C
0000
0000
0300
0300
ENDCHAR
STARTCHAR uni1EA1
ENCODING 7841
SWIDTH 581 0
DWIDTH 12 0
BBX 9 15 1 -4
BITMAP
3E00
7F00
4180
0180
1F80
7F80
C180
C180
C380
FF80
3D80
0000
0000
0C00
0C00
ENDCHAR
STARTCHAR uni1EA2
ENCODING 7842
SWIDTH 726 0
DWIDTH 15 0
BBX 14 20 0 0
BITMAP
0300
0780
0180
0180
0100
0000
0380
0380
0780
06C0
0CC0
0C60
1860
1830
1830
3FF0
3FF8
6018
600C
C00C
ENDCHAR
STARTCHAR uni1EA3
ENCODING 7843
SWIDTH 581 0
DWIDTH 12 0
BBX 9 17 1 0
BITMAP
0800
1C00
0600
0400
0800
0000
3E00
7F00
4180
0180
1F80
7F80
C180
C180
C380
FF80
3D80
ENDCHAR
STARTCHAR uni1EA4
ENCODING 7844
SWIDTH 726 0
DWIDTH 15 0
BBX 14 21 0 0
BITMAP
00C0
0380
0100
0000
0780
0CE0
0000
0380
0380
0780
06C0
0CC0
0C60
1860
1830
1830
3FF0
3FF8
6018
600C
C00C
ENDCHAR
STARTCHAR uni1EA5
ENCODING 7845
SWIDTH 581 0
DWIDTH 12 0
BBX 9 18 1 0
BITMAP
0700
0E00
1800
0000
1E00
7300
0000
3E00
7F00
4180
0180
1F80
7F80
C180
C180
C380
FF80
3D80
ENDCHAR
STARTCHAR uni1EA6
ENCODING 7846
SWIDTH 726 0
DWIDTH 15 0
BBX 14 21 0 0
BITMAP
0E00
0700
0100
0000
0780
0CE0
0000
0380
0380
0780
06C0
0CC0
0C60
1860
1830
1830
3FF0
3FF8
6018
600C
C00C
ENDCHAR
STARTCHAR uni1EA7
ENCODING 7847
SWIDTH 581 0
DWIDTH 12 0
BBX 9 18 1 0
BITMAP
3000
1C00
0800
0000
1E00
7300
0000
3E00
7F00
4180
0180
1F80
7F80
C180
C180
C380
FF80
3D80
ENDCHAR
STARTCHAR uni1EA8
ENCODING 7848
SWIDTH 726 0
DWIDTH 15 0
BBX 14 22 0 0
BITMAP
0300
0380
0180
0100
0000
0380
0EE0
0000
0380
0380
0780
06C0
0CC0
0C60
1860
1830
1830
3FF0
3FF8
6018
600C
C00C
ENDCHAR
STARTCHAR uni1EA9
ENCODING 7849
SWIDTH 581 0
DWIDTH 12 0
BBX 9 19 1 0
BITMAP
0C00
1C00
0400
0800
0000
1E00
7300
0000
3E00
7F00
4180
0180
1F80
7F80
C180
C180
C380
FF80
3D80
ENDCHAR
STARTCHAR uni1EAA
ENCODING 7850
SWIDTH 726 0
DWIDTH 15 0
BBX 14 20 0 0
BITMAP
0640
0FC0
0000
0780
0CE0
0000
0380
0380
0780
06C0
0CC0
0C60
1860
1830
1830
3FF0
3FF8
6018
600C
C00C
ENDCHAR
STARTCHAR uni1EAB
ENCODING 7851
SWIDTH 581 0
DWIDTH 12 0
BBX 9 17 1 0
BITMAP
3900
3E00
0000
1E00
7300
0000
3E00
7F00
4180
0180
1F80
7F80
C180
C180
C380
FF80
3D80
ENDCHAR
STARTCHAR uni1EAC
ENCODING 7852
SWIDTH 726 0
DWIDTH 15 0
BBX 14 23 0 -4
BITMAP
0300
0780
0CC0
0000
0000
0380
0380
0780
06C0
0CC0
0C60
1860
1830
1830
3FF0
3FF8
6018
600C
C00C
0000
0000
0300
0300
ENDCHAR
STARTCHAR uni1EAD
ENCODING 7853
SWIDTH 581 0
DWIDTH 12 0
BBX 9 20 1 -4
BITMAP
1C00
1E00
3300
0000
0000
3E00
7F00
4180
0180
1F80
7F80
C180
C180
C380
FF80
3D80
0000
0000
0C00
0C00
ENDCHAR
STARTCHAR uni1EAE
ENCODING 7854
SWIDTH 726 0
DWIDTH 15 0
BBX 14 20 0 0
BITMAP
00C0
0380
05C0
0780
0300
0000
0380
0380
0780
06C0
0CC0
0C60
1860
1830
1830
3FF0
3FF8
6018
600C
C00C
ENDCHAR
STARTCHAR uni1EAF
ENCODING 7855
SWIDTH 581 0
DWIDTH 12 0
BBX 9 18 1 0
BITMAP
0700
0E00
1800
3200
3E00
0C00
0000
3E00
7F00
4180
0180
1F80
7F80
C180
C180
C380
FF80
3D80
ENDCHAR
STARTCHAR uni1EB0
ENCODING 7856
SWIDTH 726 0
DWIDTH 15 0
BBX 14 20 0 0
BITMAP
0E00
0700
05C0
07C0
0300
0000
0380
0380
0780
06C0
0CC0
0C60
1860
1830
1830
3FF0
3FF8
6018
600C
C00C
ENDCHAR
STARTCHAR uni1EB1
ENCODING 7857
SWIDTH 581 0
DWIDTH 12 0
BBX 9 18 1 0
BITMAP
3000
1C00
0800
3200
3E00
0C00
0000
3E00
7F00
4180
0180
1F80
7F80
C180
C180
C380
FF80
3D80
ENDCHAR
STARTCHAR uni1EB2
ENCODING 7858
SWIDTH 726 0
DWIDTH 15 0
BBX 14 21 0 0
BITMAP
0700
0380
0100
07C0
0780
0300
0000
0380
0380
0780
06C0
0CC0
0C60
1860
1830
1830
3FF0
3FF8
6018
600C
C00C
ENDCHAR
STARTCHAR uni1EB3
ENCODING 7859
SWIDTH 581 0
DWIDTH 12 0
BBX 9 19 1 0
BITMAP
0C00
1C00
0400
0800
3200
3E00
0C00
0000
3E00
7F00
4180
0180
1F80
7F80
C180
C180
C380
FF80
3D80
ENDCHAR
STARTCHAR uni1EB4
ENCODING 7860
SWIDTH 726 0
DWIDTH 15 0
BBX 14 20 0 0
BITMAP
0640
0FC0
04C0
0780
0300
0000
0380
0380
0780
06C0
0CC0
0C60
1860
1830
1830
3FF0
3FF8
6018
600C
C00C
ENDCHAR
STARTCHAR uni1EB5
ENCODING 7861
SWIDTH 581 0
DWIDTH 12 0
BBX 9 17 1 0
BITMAP
3900
3E00
3200
3E00
0C00
0000
3E00
7F00
4180
0180
1F80
7F80
C180
C180
C380
FF80
3D80
ENDCHAR
STARTCHAR uni1EB6
ENCODING 7862
SWIDTH 726 0
DWIDTH 15 0
BBX 14 23 0 -4
BITMAP
04C0
07C0
0380
0000
0000
0380
0380
0780
06C0
0CC0
0C60
1860
1830
1830
3FF0
3FF8
6018
600C
C00C
0000
0000
0300
0300
ENDCHAR
STARTCHAR uni1EB7
ENCODING 7863
SWIDTH 581 0
DWIDTH 12 0
BBX 9 20 1 -4
BITMAP
2200
3E00
1C00
0000
0000
3E00
7F00
4180
0180
1F80
7F80
C180
C180
C380
FF80
3D80
0000
0000
0C00
0C00
ENDCHAR
STARTCHAR uni1EB8
ENCODING 7864
SWIDTH 653 0
DWIDTH 13 0
BBX 10 18 2 -4
BITMAP
FFC0
FFC0
C000
C000
C000
C000
FF80
FF80
C000
C000
C000
C000
FFC0
FFC0
0000
0000
0C00
0C00
ENDCHAR
STARTCHAR uni1EB9
ENCODING 7865
SWIDTH 588 0
DWIDTH 12 0
BBX 10 15 1 -4
BITMAP
1E00
7F80
6180
C0C0
C0C0
FFC0
FFC0
C000
6080
7F80
1F00
0000
0000
0C00
0C00
ENDCHAR
STARTCHAR uni1EBA
ENCODING 7866
SWIDTH 653 0
DWIDTH 13 0
BBX 10 20 2 0
BITMAP
0C00
1E00
0600
0400
0C00
0000
FFC0
FFC0
C000
C000
C000
C000
FF80
FF80
C000
C000
C000
C000
FFC0
FFC0
ENDCHAR
STARTCHAR uni1EBB
ENCODING 7867
SWIDTH 588 0
DWIDTH 12 0
BBX 10 17 1 0
BITMAP
0C00
1E00
0600
0400
0C00
0000
1E00
7F80
6180
C0C0
C0C0
FFC0
FFC0
C000
6080
7F80
1F00
ENDCHAR
STARTCHAR uni1EBC
ENCODING 7868
SWIDTH 653 0
DWIDTH 13 0
BBX 10 19 2 0
BITMAP
1100
3F00
2700
0000
0000
FFC0
FFC0
C000
C000
C000
C000
FF80
FF80
C000
C000
C000
C000
FFC0
FFC0
ENDCHAR
STARTCHAR uni1EBD
ENCODING 7869
SWIDTH 588 0
DWIDTH 12 0
BBX 10 16 1 0
BITMAP
1100
3F00
2600
0000
0000
1E00
7F80
6180
C0C0
C0C0
FFC0
FFC0
C000
6080
7F80
1F00
ENDCHAR
STARTCHAR uni1EBE
ENCODING 7870
SWIDTH 653 0
DWIDTH 13 0
BBX 10 21 2 0
BITMAP
0700
0E00
0400
0000
1E00
3300
0000
FFC0
FFC0
C000
C000
C000
C000
FF80
FF80
C000
C000
C000
C000
FFC0
FFC0
ENDCHAR
STARTCHAR uni1EBF
ENCODING 7871
SWIDTH 588 0
DWIDTH 12 0
BBX 10 18 1 0
BITMAP
0700
0E00
0800
0000
1E00
3300
0000
1E00
7F80
6180
C0C0
C0C0
FFC0
FFC0
C000
6080
7F80
1F00
ENDCHAR
STARTCHAR uni1EC0
ENCODING 7872
SWIDTH 653 0
DWIDTH 13 0
BBX 10 21 2 0
BITMAP
3000
1C00
0800
0000
1E00
3300
0000
FFC0
FFC0
C000
C000
C000
C000
FF80
FF80
C000
C000
C000
C000
FFC0
FFC0
ENDCHAR
STARTCHAR uni1EC1
ENCODING 7873
SWIDTH 588 0
DWIDTH 12 0
BBX 10 18 1 0
BITMAP
3000
1C00
0800
0000
1E00
3300
0000
1E00
7F80
6180
C0C0
C0C0
FFC0
FFC0
C000
6080
7F80
1F00
ENDCHAR
STARTCHAR uni1EC2
ENCODING 7874
SWIDTH 653 0
DWIDTH 13 0
BBX 10 22 2 0
BITMAP
0C00
0E00
0600
0400
0000
1E00
3380
0000
FFC0
FFC0
C000
C000
C000
C000
FF80
FF80
C000
C000
C000
C000
FFC0
FFC0
ENDCHAR
STARTCHAR uni1EC3
ENCODING 7875
SWIDTH 588 0
DWIDTH 12 0
BBX 10 19 1 0
BITMAP
1C00
0C00
0400
0C00
0000
1E00
3300
0000
1E00
7F80
6180
C0C0
C0C0
FFC0
FFC0
C000
6080
7F80
1F00
ENDCHAR
STARTCHAR uni1EC4
ENCODING 7876
SWIDTH 653 0
DWIDTH 13 0
BBX 10 20 2 0
BITMAP
3900
3F00
0000
1E00
3380
0000
FFC0
FFC0
C000
C000
C000
C000
FF80
FF80
C000
C000
C000
C000
FFC0
FFC0
ENDCHAR
STARTCHAR uni1EC5
ENCODING 7877
SWIDTH 588 0
DWIDTH 12 0
BBX 10 17 1 0
BITMAP
3900
3F00
0000
1E00
3300
0000
1E00
7F80
6180
C0C0
C0C0
FFC0
FFC0
C000
6080
7F80
1F00
ENDCHAR
STARTCHAR uni1EC6
ENCODING 7878
SWIDTH 653 0
DWIDTH 13 0
BBX 10 23 2 -4
BITMAP
0C00
1E00
3300
0000
0000
FFC0
FFC0
C000
C000
C000
C000
FF80
FF80
C000
C000
C000
C000
FFC0
FFC0
0000
0000
0C00
0C00
ENDCHAR
STARTCHAR uni1EC7
ENCODING 7879
SWIDTH 588 0
DWIDTH 12 0
BBX 10 20 1 -4
BITMAP
0C00
1E00
3300
0000
0000
1E00
7F80
6180
C0C0
C0C0
FFC0
FFC0
C000
6080
7F80
1F00
0000
0000
0C00
0C00
ENDCHAR
STARTCHAR uni1EC8
ENCODING 7880
SWIDTH 296 0
DWIDTH 6 0
BBX 4 20 1 0
BITMAP
60
F0
30
20
60
00
60
60
60
60
60
60
60
60
60
60
60
60
60
60
ENDCHAR
STARTCHAR uni1EC9
ENCODING 7881
SWIDTH 274 0
DWIDTH 5 0
BBX 4 17 1 0
BITMAP
40
E0
30
20
40
00
60
60
60
60
60
60
60
60
60
60
60
ENDCHAR
STARTCHAR uni1ECA
ENCODING 7882
SWIDTH 296 0
DWIDTH 6 0
BBX 2 18 2 -4
BITMAP
C0
C0
C0
C0
C0
C0
C0
C0
C0
C0
C0
C0
C0
C0
00
00
C0
C0
ENDCHAR
STARTCHAR uni1ECB
ENCODING 7883
SWIDTH 274 0
DWIDTH 5 0
BBX 2 19 2 -4
BITMAP
C0
C0
00
00
C0
C0
C0
C0
C0
C0
C0
C0
C0
C0
C0
00
00
C0
C0
ENDCHAR
STARTCHAR uni1ECC
ENCODING 7884
SWIDTH 812 0
DWIDTH 16 0
BBX 14 18 1 -4
BITMAP
0FC0
1FF0
7038
601C
C00C
C00C
C00C
C00C
C00C
C00C
601C
7038
1FF0
0FC0
0000
0000
0300
0300
ENDCHAR
STARTCHAR uni1ECD
ENCODING 7885
SWIDTH 621 0
DWIDTH 12 0
BBX 11 15 1 -4
BITMAP
1F00
7F80
60C0
C0C0
C060
C060
C060
C0C0
60C0
7F80
1F00
0000
0000
0C00
0C00
ENDCHAR
STARTCHAR uni1ECE
ENCODING 7886
SWIDTH 812 0
DWIDTH 16 0
BBX 14 20 1 0
BITMAP
0300
0780
0180
0180
0300
0000
0FC0
1FF0
7038
601C
C00C
C00C
C00C
C00C
C00C
C00C
601C
7038
1FF0
0FC0
ENDCHAR
STARTCHAR uni1ECF
ENCODING 7887
SWIDTH 621 0
DWIDTH 12 0
BBX 11 17 1 0
BITMAP
0C00
1E00
0600
0600
0400
0000
1F00
7F80
60C0
C0C0
C060
C060
C060
C0C0
60C0
7F80
1F00
ENDCHAR
STARTCHAR uni1ED0
ENCODING 7888
SWIDTH 812 0
DWIDTH 16 0
BBX 14 21 1 0
BITMAP
00C0
0380
0100
0000
0780
0CE0
0000
0FC0
1FF0
7038
601C
C00C
C00C
C00C
C00C
C00C
C00C
601C
7038
1FF0
0FC0
ENDCHAR
STARTCHAR uni1ED1
ENCODING 7889
SWIDTH 621 0
DWIDTH 12 0
BBX 11 18 1 0
BITMAP
0300
0E00
0400
0000
1E00
3380
0000
1F00
7F80
60C0
C0C0
C060
C060
C060
C0C0
60C0
7F80
1F00
ENDCHAR
STARTCHAR uni1ED2
ENCODING 7890
SWIDTH 812 0
DWIDTH 16 0
BBX 14 21 1 0
BITMAP
0C00
0700
0200
0000
0780
0CE0
0000
0FC0
1FF0
7038
601C
C00C
C00C
C00C
C00C
C00C
C00C
601C
7038
1FF0
0FC0
ENDCHAR
STARTCHAR uni1ED3
ENCODING 7891
SWIDTH 621 0
DWIDTH 12 0
BBX 11 18 1 0
BITMAP
3800
1C00
0400
0000
1E00
3380
0000
1F00
7F80
60C0
C0C0
C060
C060
C060
C0C0
60C0
7F80
1F00
ENDCHAR
STARTCHAR uni1ED4
ENCODING 7892
SWIDTH 812 0
DWIDTH 16 0
BBX 14 22 1 0
BITMAP
0300
0380
0180
0100
0000
0380
0EE0
0000
0FC0
1FF0
7038
601C
C00C
C00C
C00C
C00C
C00C
C00C
601C
7038
1FF0
0FC0
ENDCHAR
STARTCHAR uni1ED5
ENCODING 7893
SWIDTH 621 0
DWIDTH 12 0
BBX 11 19 1 0
BITMAP
1C00
0E00
0400
0C00
0000
1E00
3380
0000
1F00
7F80
60C0
C0C0
C060
C060
C060
C0C0
60C0
7F80
1F00
ENDCHAR
STARTCHAR uni1ED6
ENCODING 7894
SWIDTH 812 0
DWIDTH 16 0
BBX 14 20 1 0
BITMAP
0640
0FC0
0000
0780
0CE0
0000
0FC0
1FF0
7038
601C
C00C
C00C
C00C
C00C
C00C
C00C
601C
7038
1FF0
0FC0
ENDCHAR
STARTCHAR uni1ED7
ENCODING 7895
SWIDTH 621 0
DWIDTH 12 0
BBX 11 17 1 0
BITMAP
1900
3F00
0000
1E00
3380
0000
1F00
7F80
60C0
C0C0
C060
C060
C060
C0C0
60C0
7F80
1F00
ENDCHAR
STARTCHAR uni1ED8
ENCODING 7896
SWIDTH 812 0
DWIDTH 16 0
BBX 14 23 1 -4
BITMAP
0300
0780
0CC0
0000
0000
0FC0
1FF0
7038
601C
C00C
C00C
C00C
C00C
C00C
C00C
601C
7038
1FF0
0FC0
0000
0000
0300
0300
ENDCHAR
STARTCHAR uni1ED9
ENCODING 7897
SWIDTH 621 0
DWIDTH 12 0
BBX 11 20 1 -4
BITMAP
0E00
1E00
3300
0000
0000
1F00
7F80
60C0
C0C0
C060
C060
C060
C0C0
60C0
7F80
1F00
0000
0000
0C00
0C00
ENDCHAR
STARTCHAR uni1EDA
ENCODING 7898
SWIDTH 837 0
DWIDTH 17 0
BBX 14 19 1 0
BITMAP
0080
01C0
0384
000C
000C
0FCC
1FF8
7038
601C
C00C
C00C
C00C
C00C
C00C
C00C
601C
7038
1FF0
0FC0
ENDCHAR
STARTCHAR uni1EDB
ENCODING 7899
SWIDTH 651 0
DWIDTH 13 0
BBX 12 16 1 0
BITMAP
0200
0700
0E10
0030
0030
1F20
7FE0
60C0
C0C0
C060
C060
C060
C0C0
60C0
7F80
1F00
ENDCHAR
STARTCHAR uni1EDC
ENCODING 7900
SWIDTH 837 0
DWIDTH 17 0
BBX 14 19 1 0
BITMAP
0400
0E00
0304
000C
000C
0FCC
1FF8
7038
601C
C00C
C00C
C00C
C00C
C00C
C00C
601C
7038
1FF0
0FC0
ENDCHAR
STARTCHAR uni1EDD
ENCODING 7901
SWIDTH 651 0
DWIDTH 13 0
BBX 12 16 1 0
BITMAP
0800
3800
0C10
0030
0030
1F20
7FE0
60C0
C0C0
C060
C060
C060
C0C0
60C0
7F80
1F00
ENDCHAR
STARTCHAR uni1EDE
ENCODING 7902
SWIDTH 837 0
DWIDTH 17 0
BBX 14 20 1 0
BITMAP
0300
0780
0180
0184
030C
000C
0FCC
1FF8
7038
601C
C00C
C00C
C00C
C00C
C00C
C00C
601C
7038
1FF0
0FC0
ENDCHAR
STARTCHAR uni1EDF
ENCODING 7903
SWIDTH 651 0
DWIDTH 13 0
BBX 12 17 1 0
BITMAP
0C00
1E00
0600
0610
0430
0030
1F20
7FE0
60C0
C0C0
C060
C060
C060
C0C0
60C0
7F80
1F00
ENDCHAR
STARTCHAR uni1EE0
ENCODING 7904
SWIDTH 837 0
DWIDTH 17 0
BBX 14 19 1 0
BITMAP
0440
0FC0
09C4
000C
000C
0FCC
1FF8
7038
601C
C00C
C00C
C00C
C00C
C00C
C00C
601C
7038
1FF0
0FC0
ENDCHAR
STARTCHAR uni1EE1
ENCODING 7905
SWIDTH 651 0
DWIDTH 13 0
BBX 12 16 1 0
BITMAP
1900
3F00
2710
0030
0030
1F20
7FE0
60C0
C0C0
C060
C060
C060
C0C0
60C0
7F80
1F00
ENDCHAR
STARTCHAR uni1EE2
ENCODING 7906
SWIDTH 837 0
DWIDTH 17 0
BBX 14 21 1 -4
BITMAP
0004
000C
000C
0FCC
1FF8
7038
601C
C00C
C00C
C00C
C00C
C00C
C00C
601C
7038
1FF0
0FC0
0000
0000
0300
0300
ENDCHAR
STARTCHAR uni1EE3
ENCODING 7907
SWIDTH 652 0
DWIDTH 13 0
BBX 12 18 1 -4
BITMAP
0010
0030
0030
1F20
7FE0
60C0
C0C0
C060
C060
C060
C0C0
60C0
7F80
1F00
0000
0000
0C00
0C00
ENDCHAR
STARTCHAR uni1EE4
ENCODING 7908
SWIDTH 762 0
DWIDTH 15 0
BBX 12 18 2 -4
BITMAP
C030
C030
C030
C030
C030
C030
C030
C030
C030
C060
C060
60E0
7FC0
1F00
0000
0000
0E00
0600
ENDCHAR
STARTCHAR uni1EE5
ENCODING 7909
SWIDTH 649 0
DWIDTH 13 0
BBX 10 15 1 -4
BITMAP
C0C0
C0C0
C0C0
C0C0
C0C0
C0C0
C0C0
C0C0
61C0
7FC0
3EC0
0000
0000
0E00
0400
ENDCHAR
STARTCHAR uni1EE6
ENCODING 7910
SWIDTH 762 0
DWIDTH 15 0
BBX 12 20 2 0
BITMAP
0400
0E00
0200
0200
0400
0000
C030
C030
C030
C030
C030
C030
C030
C030
C030
C060
C060
60E0
7FC0
1F00
ENDCHAR
STARTCHAR uni1EE7
ENCODING 7911
SWIDTH 649 0
DWIDTH 13 0
BBX 10 17 1 0
BITMAP
0400
0E00
0200
0600
0400
0000
C0C0
C0C0
C0C0
C0C0
C0C0
C0C0
C0C0
C0C0
61C0
7FC0
3EC0
ENDCHAR
STARTCHAR uni1EE8
ENCODING 7912
SWIDTH 787 0
DWIDTH 16 0
BBX 14 19 2 0
BITMAP
0200
0380
0604
000C
000C
C038
C030
C030
C030
C030
C030
C030
C030
C030
C060
C060
60E0
7FC0
1F00
ENDCHAR
STARTCHAR uni1EE9
ENCODING 7913
SWIDTH 654 0
DWIDTH 13 0
BBX 12 16 1 0
BITMAP
0200
0380
0610
0830
0030
C0E0
C0C0
C0C0
C0C0
C0C0
C0C0
C0C0
C0C0
61C0
7FC0
3EC0
ENDCHAR
STARTCHAR uni1EEA
ENCODING 7914
SWIDTH 787 0
DWIDTH 16 0
BBX 14 19 2 0
BITMAP
0800
1800
0E04
000C
000C
C038
C030
C030
C030
C030
C030
C030
C030
C030
C060
C060
60E0
7FC0
1F00
ENDCHAR
STARTCHAR uni1EEB
ENCODING 7915
SWIDTH 654 0
DWIDTH 13 0
BBX 12 16 1 0
BITMAP
0800
3800
0C10
0030
0030
C0E0
C0C0
C0C0
C0C0
C0C0
C0C0
C0C0
C0C0
61C0
7FC0
3EC0
ENDCHAR
STARTCHAR uni1EEC
ENCODING 7916
SWIDTH 787 0
DWIDTH 16 0
BBX 14 20 2 0
BITMAP
0400
0E00
0200
0204
040C
000C
C038
C030
C030
C030
C030
C030
C030
C030
C030
C060
C060
60E0
7FC0
1F00
ENDCHAR
STARTCHAR uni1EED
ENCODING 7917
SWIDTH 654 0
DWIDTH 13 0
BBX 12 17 1 0
BITMAP
0400
0E00
0200
0610
0430
0030
C0E0
C0C0
C0C0
C0C0
C0C0
C0C0
C0C0
C0C0
61C0
7FC0
3EC0
ENDCHAR
STARTCHAR uni1EEE
ENCODING 7918
SWIDTH 787 0
DWIDTH 16 0
BBX 14 19 2 0
BITMAP
0980
1F80
1304
000C
000C
C038
C030
C030
C030
C030
C030
C030
C030
C030
C060
C060
60E0
7FC0
1F00
ENDCHAR
STARTCHAR uni1EEF
ENCODING 7919
SWIDTH 654 0
DWIDTH 13 0
BBX 12 16 1 0
BITMAP
1980
1F00
3710
0030
0030
C0E0
C0C0
C0C0
C0C0
C0C0
C0C0
C0C0
C0C0
61C0
7FC0
3EC0
ENDCHAR
STARTCHAR uni1EF0
ENCODING 7920
SWIDTH 787 0
DWIDTH 16 0
BBX 14 21 2 -4
BITMAP
0004
000C
000C
C038
C030
C030
C030
C030
C030
C030
C030
C030
C060
C060
60E0
7FC0
1F00
0000
0000
0E00
0600
ENDCHAR
STARTCHAR uni1EF1
ENCODING 7921
SWIDTH 654 0
DWIDTH 13 0
BBX 12 18 1 -4
BITMAP
0010
0030
0030
C0E0
C0C0
C0C0
C0C0
C0C0
C0C0
C0C0
C0C0
61C0
7FC0
3EC0
0000
0000
0E00
0400
ENDCHAR
STARTCHAR Ygrave
ENCODING 7922
SWIDTH 630 0
DWIDTH 13 0
BBX 13 19 0 0
BITMAP
0400
1C00
0600
0000
0000
C038
6030
7060
3060
18C0
1980
0D80
0F00
0700
0600
0600
0600
0600
0600
ENDCHAR
STARTCHAR ygrave
ENCODING 7923
SWIDTH 514 0
DWIDTH 10 0
BBX 10 20 0 -4
BITMAP
1000
3800
0C00
0000
0000
C0C0
40C0
6080
6180
3180
3300
1300
1A00
1E00
0E00
0C00
0C00
0C00
F800
F000
ENDCHAR
STARTCHAR uni1EF4
ENCODING 7924
SWIDTH 630 0
DWIDTH 13 0
BBX 13 18 0 -4
BITMAP
C038
6030
7060
3060
18C0
1980
0D80
0F00
0700
0600
0600
0600
0600
0600
0000
0000
0700
0600
ENDCHAR
STARTCHAR uni1EF5
ENCODING 7925
SWIDTH 514 0
DWIDTH 10 0
BBX 10 15 0 -4
BITMAP
C0C0
40C0
6080
6180
3180
3300
1300
1A00
1E00
0E00
0C00
0C00
0C00
F980
F180
ENDCHAR
STARTCHAR uni1EF6
ENCODING 7926
SWIDTH 630 0
DWIDTH 13 0
BBX 13 20 0 0
BITMAP
0600
0F00
0300
0300
0200
0000
C038
6030
7060
3060
18C0
1980
0D80
0F00
0700
0600
0600
0600
0600
0600
ENDCHAR
STARTCHAR uni1EF7
ENCODING 7927
SWIDTH 514 0
DWIDTH 10 0
BBX 10 21 0 -4
BITMAP
0C00
1E00
0600
0600
0400
0000
C0C0
40C0
6080
6180
3180
3300
1300
1A00
1E00
0E00
0C00
0C00
0C00
F800
F000
ENDCHAR
STARTCHAR uni1EF8
ENCODING 7928
SWIDTH 630 0
DWIDTH 13 0
BBX 13 19 0 0
BITMAP
0C80
1F80
1B80
0000
0000
C038
6030
7060
3060
18C0
1980
0D80
0F00
0700
0600
0600
0600
0600
0600
ENDCHAR
STARTCHAR uni1EF9
ENCODING 7929
SWIDTH 514 0
DWIDTH 10 0
BBX 10 20 0 -4
BITMAP
1100
3F00
2700
0000
0000
C0C0
40C0
6080
6180
3180
3300
1300
1A00
1E00
0E00
0C00
0C00
0C00
F800
F000
ENDCHAR
STARTCHAR uni2007
ENCODING 8199
SWIDTH 700 0
DWIDTH 14 0
BBX 1 1 0 0
BITMAP
00
ENDCHAR
STARTCHAR uni2008
ENCODING 8200
SWIDTH 207 0
DWIDTH 4 0
BBX 1 1 0 0
BITMAP
00
ENDCHAR
STARTCHAR uni2009
ENCODING 8201
SWIDTH 200 0
DWIDTH 4 0
BBX 1 1 0 0
BITMAP
00
ENDCHAR
STARTCHAR uni200A
ENCODING 8202
SWIDTH 100 0
DWIDTH 2 0
BBX 1 1 0 0
BITMAP
00
ENDCHAR
STARTCHAR uni200B
ENCODING 8203
SWIDTH 0 0
DWIDTH 0 0
BBX 1 1 0 0
BITMAP
00
ENDCHAR
STARTCHAR uni2010
ENCODING 8208
SWIDTH 366 0
DWIDTH 7 0
BBX 5 2 1 6
BITMAP
F8
F8
ENDCHAR
STARTCHAR figuredash
ENCODING 8210
SWIDTH 617 0
DWIDTH 12 0
BBX 12 2 0 6
BITMAP
FFF0
FFF0
ENDCHAR
STARTCHAR endash
ENCODING 8211
SWIDTH 404 0
DWIDTH 8 0
BBX 8 2 0 6
BITMAP
FF
FF
ENDCHAR
STARTCHAR emdash
ENCODING 8212
SWIDTH 706 0
DWIDTH 14 0
BBX 14 2 0 6
BITMAP
FFFC
FFFC
ENDCHAR
STARTCHAR uni2015
ENCODING 8213
SWIDTH 706 0
DWIDTH 14 0
BBX 14 2 0 6
BITMAP
FFFC
FFFC
ENDCHAR
STARTCHAR quoteleft
ENCODING 8216
SWIDTH 204 0
DWIDTH 4 0
BBX 2 4 1 11
BITMAP
40
C0
C0
C0
ENDCHAR
STARTCHAR quoteright
ENCODING 8217
SWIDTH 204 0
DWIDTH 4 0
BBX 2 4 1 11
BITMAP
C0
C0
C0
80
ENDCHAR
STARTCHAR quotesinglbase
ENCODING 8218
SWIDTH 204 0
DWIDTH 4 0
BBX 2 4 1 -2
BITMAP
C0
C0
C0
80
ENDCHAR
STARTCHAR quotedblleft
ENCODING 8220
SWIDTH 340 0
DWIDTH 7 0
BBX 5 4 1 11
BITMAP
48
D0
F8
D8
ENDCHAR
STARTCHAR quotedblright
ENCODING 8221
SWIDTH 340 0
DWIDTH 7 0
BBX 5 4 1 11
BITMAP
D8
D8
D0
B0
ENDCHAR
STARTCHAR quotedblbase
ENCODING 8222
SWIDTH 340 0
DWIDTH 7 0
BBX 5 4 1 -2
BITMAP
D8
D8
D0
B0
ENDCHAR
STARTCHAR dagger
ENCODING 8224
SWIDTH 524 0
DWIDTH 10 0
BBX 10 18 0 -4
BITMAP
0C00
0C00
0C00
0C00
FFC0
FFC0
0C00
0C00
0C00
0C00
0C00
0C00
0C00
0C00
0C00
0C00
0C00
0C00
ENDCHAR
STARTCHAR daggerdbl
ENCODING 8225
SWIDTH 524 0
DWIDTH 10 0
BBX 10 18 0 -4
BITMAP
0C00
0C00
0C00
0C00
FFC0
FFC0
0C00
0C00
0C00
0C00
0C00
FFC0
FFC0
0C00
0C00
0C00
0C00
0C00
ENDCHAR
STARTCHAR bullet
ENCODING 8226
SWIDTH 262 0
DWIDTH 5 0
BBX 3 4 1 4
BITMAP
E0
E0
E0
60
ENDCHAR
STARTCHAR ellipsis
ENCODING 8230
SWIDTH 582 0
DWIDTH 12 0
BBX 10 2 1 0
BITMAP
CCC0
CCC0
ENDCHAR
STARTCHAR perthousand
ENCODING 8240
SWIDTH 1399 0
DWIDTH 28 0
BBX 26 14 1 0
BITMAP
78040000
C4080000
82180000
82300000
82200000
824F0700
C4D18880
79B09040
01209040
02209040
06209040
0C309040
08118880
300F0700
ENDCHAR
STARTCHAR minute
ENCODING 8242
SWIDTH 187 0
DWIDTH 4 0
BBX 2 5 1 9
BITMAP
C0
C0
80
80
80
ENDCHAR
STARTCHAR second
ENCODING 8243
SWIDTH 331 0
DWIDTH 7 0
BBX 5 5 1 9
BITMAP
D8
D8
90
90
90
ENDCHAR
STARTCHAR guilsinglleft
ENCODING 8249
SWIDTH 274 0
DWIDTH 5 0
BBX 4 7 1 2
BITMAP
30
60
C0
80
C0
60
30
ENDCHAR
STARTCHAR guilsinglright
ENCODING 8250
SWIDTH 274 0
DWIDTH 5 0
BBX 4 7 1 2
BITMAP
C0
60
60
30
20
60
C0
ENDCHAR
STARTCHAR fraction
ENCODING 8260
SWIDTH 67 0
DWIDTH 1 0
BBX 12 14 -5 0
BITMAP
0030
0040
00C0
0180
0100
0200
0600
0C00
0800
1000
3000
6000
4000
C000
ENDCHAR
STARTCHAR uni2070
ENCODING 8304
SWIDTH 444 0
DWIDTH 9 0
BBX 7 9 1 7
BITMAP
38
44
86
82
82
82
86
44
38
ENDCHAR
STARTCHAR uni2074
ENCODING 8308
SWIDTH 352 0
DWIDTH 7 0
BBX 7 9 0 7
BITMAP
18
10
20
20
4C
4C
FE
0C
0C
ENDCHAR
STARTCHAR uni2075
ENCODING 8309
SWIDTH 382 0
DWIDTH 8 0
BBX 6 9 1 7
BITMAP
FC
FC
C0
C0
F8
0C
0C
8C
F8
ENDCHAR
STARTCHAR uni2076
ENCODING 8310
SWIDTH 402 0
DWIDTH 8 0
BBX 6 9 1 7
BITMAP
3C
44
C0
80
B8
C4
84
C4
78
ENDCHAR
STARTCHAR uni2077
ENCODING 8311
SWIDTH 319 0
DWIDTH 6 0
BBX 6 9 0 7
BITMAP
FC
FC
84
0C
08
18
10
30
60
ENDCHAR
STARTCHAR uni2078
ENCODING 8312
SWIDTH 408 0
DWIDTH 8 0
BBX 6 9 1 7
BITMAP
78
CC
84
4C
78
C4
84
C4
78
ENDCHAR
STARTCHAR uni2079
ENCODING 8313
SWIDTH 402 0
DWIDTH 8 0
BBX 6 9 1 7
BITMAP
78
CC
84
84
CC
74
04
88
F0
ENDCHAR
STARTCHAR uni2080
ENCODING 8320
SWIDTH 444 0
DWIDTH 9 0
BBX 7 9 1 -2
BITMAP
38
44
86
82
82
82
86
44
38
ENDCHAR
STARTCHAR uni2081
ENCODING 8321
SWIDTH 232 0
DWIDTH 5 0
BBX 3 9 0 -2
BITMAP
E0
E0
20
20
20
20
20
20
20
ENDCHAR
STARTCHAR uni2082
ENCODING 8322
SWIDTH 351 0
DWIDTH 7 0
BBX 7 8 0 -2
BITMAP
78
CC
04
08
10
20
7E
FE
ENDCHAR
STARTCHAR uni2083
ENCODING 8323
SWIDTH 348 0
DWIDTH 7 0
BBX 6 9 0 -2
BITMAP
7C
7C
08
10
38
04
04
44
F8
ENDCHAR
STARTCHAR uni2084
ENCODING 8324
SWIDTH 352 0
DWIDTH 7 0
BBX 7 9 0 -2
BITMAP
18
10
20
20
4C
4C
FE
0C
0C
ENDCHAR
STARTCHAR uni2085
ENCODING 8325
SWIDTH 382 0
DWIDTH 8 0
BBX 6 9 1 -2
BITMAP
FC
FC
C0
C0
F8
0C
0C
8C
F8
ENDCHAR
STARTCHAR uni2086
ENCODING 8326
SWIDTH 402 0
DWIDTH 8 0
BBX 6 9 1 -2
BITMAP
3C
44
C0
80
B8
C4
84
C4
78
ENDCHAR
STARTCHAR uni2087
ENCODING 8327
SWIDTH 319 0
DWIDTH 6 0
BBX 6 9 0 -2
BITMAP
FC
FC
84
0C
08
18
10
30
60
ENDCHAR
STARTCHAR uni2088
ENCODING 8328
SWIDTH 408 0
DWIDTH 8 0
BBX 6 9 1 -2
BITMAP
78
CC
84
4C
78
C4
84
C4
78
ENDCHAR
STARTCHAR uni2089
ENCODING 8329
SWIDTH 402 0
DWIDTH 8 0
BBX 6 9 1 -2
BITMAP
78
CC
84
84
CC
74
04
88
F0
ENDCHAR
STARTCHAR colonmonetary
ENCODING 8353
SWIDTH 699 0
DWIDTH 14 0
BBX 12 19 1 -2
BITMAP
06C0
0680
0680
1FC0
3FF0
7030
E010
C000
C000
C000
C000
C000
C000
6000
7030
3FF0
0FC0
0580
0D80
ENDCHAR
STARTCHAR franc
ENCODING 8355
SWIDTH 567 0
DWIDTH 11 0
BBX 11 14 0 0
BITMAP
3FE0
3FE0
3000
3000
3000
3000
3FC0
3FC0
3000
3000
FF80
FF80
3000
3000
ENDCHAR
STARTCHAR lira
ENCODING 8356
SWIDTH 544 0
DWIDTH 11 0
BBX 9 14 1 0
BITMAP
1F00
3F80
3080
2000
2000
FE00
FE00
FE00
FE00
2000
2000
2000
FF80
FF80
ENDCHAR
STARTCHAR uni20A6
ENCODING 8358
SWIDTH 763 0
DWIDTH 15 0
BBX 15 14 0 0
BITMAP
3018
3818
3C18
3E18
3618
FFFE
FFFE
FFFE
FFFE
30D8
3078
3038
3038
3018
ENDCHAR
STARTCHAR peseta
ENCODING 8359
SWIDTH 1480 0
DWIDTH 30 0
BBX 27 14 2 0
BITMAP
FF000000
FF860000
C0C60000
C0DFC7C0
C0DFCFE0
C0C61800
C0C61800
C1C60E00
FF8607C0
FC0600E0
C0060060
C0061060
C007DFE0
C003CF80
ENDCHAR
STARTCHAR uni20A9
ENCODING 8361
SWIDTH 960 0
DWIDTH 19 0
BBX 19 14 0 0
BITMAP
E06060
60E040
60E0C0
60B0C0
31B080
FFFFE0
311980
FFFFE0
FFFFE0
1B0B00
1A0B00
0A0F00
0E0E00
0E0600
ENDCHAR
STARTCHAR dong
ENCODING 8363
SWIDTH 678 0
DWIDTH 14 0
BBX 12 18 1 -3
BITMAP
0060
03F0
03F0
0060
1E60
7F60
E0E0
C0E0
C060
C060
C060
C0E0
60E0
7F60
1E60
0000
7FC0
7FC0
ENDCHAR
STARTCHAR Euro
ENCODING 8364
SWIDTH 792 0
DWIDTH 16 0
BBX 14 14 1 0
BITMAP
03F0
0FFC
1C0C
3800
3000
FF80
FF80
FF80
FF80
3000
3800
1C0C
0FF8
03F0
ENDCHAR
STARTCHAR uni20AD
ENCODING 8365
SWIDTH 649 0
DWIDTH 13 0
BBX 13 14 0 0
BITMAP
2070
20E0
21C0
2300
2600
2C00
FFE0
2C00
2600
2300
2180
20C0
2060
2038
ENDCHAR
STARTCHAR uni20B1
ENCODING 8369
SWIDTH 762 0
DWIDTH 15 0
BBX 14 14 1 0
BITMAP
7FC0
7FE0
6070
FFFC
FFFC
FFFC
FFFC
6070
7FE0
7F00
6000
6000
6000
6000
ENDCHAR
STARTCHAR uni20B2
ENCODING 8370
SWIDTH 725 0
DWIDTH 15 0
BBX 12 20 1 -3
BITMAP
0300
0300
0380
1FE0
3870
7010
6000
C000
C000
C000
C010
C010
C010
6010
7010
3870
1FE0
0380
0300
0300
ENDCHAR
STARTCHAR uni20B5
ENCODING 8373
SWIDTH 699 0
DWIDTH 14 0
BBX 12 20 1 -3
BITMAP
0300
0300
0380
1FE0
3870
6010
E000
C000
C000
C000
C000
C000
E000
6010
3870
1FE0
0FC0
0300
0300
0300
ENDCHAR
STARTCHAR uni20B9
ENCODING 8377
SWIDTH 593 0
DWIDTH 12 0
BBX 10 14 1 0
BITMAP
FFC0
0700
0180
0180
FFC0
0180
0180
0700
FE00
E600
0300
0380
0180
00C0
ENDCHAR
STARTCHAR uni20BA
ENCODING 8378
SWIDTH 672 0
DWIDTH 13 0
BBX 12 14 1 0
BITMAP
6000
6040
6780
7C00
E0C0
6780
7800
E030
6030
6070
6060
60C0
7F80
7F00
ENDCHAR
STARTCHAR uni20BC
ENCODING 8380
SWIDTH 737 0
DWIDTH 15 0
BBX 13 14 1 0
BITMAP
0600
0600
0F80
3FE0
7670
E630
C618
C618
C618
C618
C618
C618
C618
C618
ENDCHAR
STARTCHAR uni20BD
ENCODING 8381
SWIDTH 671 0
DWIDTH 13 0
BBX 13 14 0 0
BITMAP
3FC0
3FF0
3030
3018
3018
3018
3030
3FF0
3FC0
3000
FF80
FF80
3000
3000
ENDCHAR
STARTCHAR uni2113
ENCODING 8467
SWIDTH 466 0
DWIDTH 9 0
BBX 8 15 1 0
BITMAP
04
1E
13
33
32
22
24
2C
38
70
60
E0
63
7E
3C
ENDCHAR
STARTCHAR uni2116
ENCODING 8470
SWIDTH 1193 0
DWIDTH 24 0
BBX 21 15 2 0
BITMAP
0001E0
C03310
E03218
F03218
F83310
D831E0
CC3000
CE3000
C631F0
C331F0
C1B000
C1F000
C0F000
C07000
C03000
ENDCHAR
STARTCHAR trademark
ENCODING 8482
SWIDTH 880 0
DWIDTH 18 0
BBX 16 8 0 6
BITMAP
FCC3
30C3
30E7
30A5
30BD
3099
3099
3081
ENDCHAR
STARTCHAR uni2126
ENCODING 8486
SWIDTH 892 0
DWIDTH 18 0
BBX 18 15 0 0
BITMAP
00C000
07F800
0E1C00
180600
300700
300300
300300
200300
300300
300300
300200
180600
0C0C00
FE1FC0
FE1FC0
ENDCHAR
STARTCHAR estimated
ENCODING 8494
SWIDTH 809 0
DWIDTH 16 0
BBX 14 13 1 0
BITMAP
0FC0
1020
2010
6018
6018
E01C
FFFC
6000
6000
6000
2010
1860
0780
ENDCHAR
STARTCHAR uni2153
ENCODING 8531
SWIDTH 820 0
DWIDTH 16 0
BBX 15 14 0 0
BITMAP
E018
E020
2060
20C0
2080
217E
237E
260C
2418
081C
1806
3002
2046
603C
ENDCHAR
STARTCHAR uni2154
ENCODING 8532
SWIDTH 884 0
DWIDTH 18 0
BBX 17 14 0 0
BITMAP
780600
CC0C00
041800
0C1000
182000
306F80
60CF80
FE8100
FF0600
030700
060180
040080
081180
180F00
ENDCHAR
STARTCHAR oneeighth
ENCODING 8539
SWIDTH 790 0
DWIDTH 16 0
BBX 15 14 0 0
BITMAP
E010
E020
2060
20C0
2080
213C
2344
2646
2444
0838
1846
30C2
2046
403C
ENDCHAR
STARTCHAR threeeighths
ENCODING 8540
SWIDTH 875 0
DWIDTH 18 0
BBX 17 14 0 0
BITMAP
7C0C00
7C0800
101000
383000
046000
044E00
449100
F99100
031100
020E00
043100
0C2180
183180
301F00
ENDCHAR
STARTCHAR fiveeighths
ENCODING 8541
SWIDTH 906 0
DWIDTH 18 0
BBX 16 14 1 0
BITMAP
FC0C
FC18
C030
F820
0C40
0CDE
8DB3
F921
0233
061E
0C21
0821
1021
301E
ENDCHAR
STARTCHAR seveneighths
ENCODING 8542
SWIDTH 814 0
DWIDTH 16 0
BBX 15 14 0 0
BITMAP
FC18
FC30
8C20
0840
08C0
19BC
1162
3262
2622
4C1C
0862
1042
3062
603C
ENDCHAR
STARTCHAR arrowleft
ENCODING 8592
SWIDTH 600 0
DWIDTH 12 0
BBX 8 8 2 2
BITMAP
18
30
60
60
FF
60
20
38
ENDCHAR
STARTCHAR arrowup
ENCODING 8593
SWIDTH 600 0
DWIDTH 12 0
BBX 8 9 2 1
BITMAP
18
3C
FF
DB
99
18
18
18
18
ENDCHAR
STARTCHAR arrowright
ENCODING 8594
SWIDTH 600 0
DWIDTH 12 0
BBX 8 9 2 1
BITMAP
18
0C
06
06
FF
06
04
0C
18
ENDCHAR
STARTCHAR arrowdown
ENCODING 8595
SWIDTH 600 0
DWIDTH 12 0
BBX 8 9 3 1
BITMAP
10
10
10
10
91
D7
FE
38
10
ENDCHAR
STARTCHAR arrowboth
ENCODING 8596
SWIDTH 693 0
DWIDTH 14 0
BBX 12 8 1 2
BITMAP
3180
30C0
6060
4020
FFF0
6060
6040
31C0
ENDCHAR
STARTCHAR arrowupdn
ENCODING 8597
SWIDTH 600 0
DWIDTH 12 0
BBX 8 12 2 1
BITMAP
18
7E
DB
99
18
18
18
99
DB
7E
3C
08
ENDCHAR
STARTCHAR uni2196
ENCODING 8598
SWIDTH 600 0
DWIDTH 12 0
BBX 8 8 2 2
BITMAP
04
7E
70
78
5C
CE
47
02
ENDCHAR
STARTCHAR uni2197
ENCODING 8599
SWIDTH 600 0
DWIDTH 12 0
BBX 7 8 3 2
BITMAP
40
FC
0C
1C
36
66
C2
80
ENDCHAR
STARTCHAR uni2198
ENCODING 8600
SWIDTH 600 0
DWIDTH 12 0
BBX 7 7 3 2
BITMAP
C4
E6
66
34
1C
3C
F8
ENDCHAR
STARTCHAR uni2199
ENCODING 8601
SWIDTH 600 0
DWIDTH 12 0
BBX 8 8 2 2
BITMAP
02
43
C6
4C
58
70
7C
1E
ENDCHAR
STARTCHAR partialdiff
ENCODING 8706
SWIDTH 606 0
DWIDTH 12 0
BBX 10 15 1 0
BITMAP
0800
FF00
4380
0180
00C0
00C0
3EC0
63C0
C1C0
C0C0
C0C0
C0C0
C180
7F00
3E00
ENDCHAR
STARTCHAR emptyset
ENCODING 8709
SWIDTH 487 0
DWIDTH 10 0
BBX 10 9 0 2
BITMAP
1EC0
3F00
6380
4480
4880
5080
6100
7F00
8C00
ENDCHAR
STARTCHAR uni2206
ENCODING 8710
SWIDTH 675 0
DWIDTH 14 0
BBX 14 14 0 0
BITMAP
0700
0780
0D80
0C80
08C0
18C0
1860
3060
3030
6030
6018
4018
FFF8
FFFC
ENDCHAR
STARTCHAR product
ENCODING 8719
SWIDTH 753 0
DWIDTH 15 0
BBX 11 19 2 -4
BITMAP
FFE0
C060
C060
C060
C060
C060
C060
C060
C060
C060
C060
C060
C060
C060
C060
C060
C060
C060
C060
ENDCHAR
STARTCHAR summation
ENCODING 8721
SWIDTH 609 0
DWIDTH 12 0
BBX 11 18 1 -3
BITMAP
FFE0
C000
6000
3000
3800
1800
0C00
0600
0300
0600
0C00
1C00
1800
3000
6000
C000
FFE0
FFE0
ENDCHAR
STARTCHAR minus
ENCODING 8722
SWIDTH 494 0
DWIDTH 10 0
BBX 8 1 1 6
BITMAP
FF
ENDCHAR
STARTCHAR uni2215
ENCODING 8725
SWIDTH 323 0
DWIDTH 6 0
BBX 8 20 0 -2
BITMAP
03
02
06
06
04
0C
0C
08
18
18
10
30
30
20
60
60
40
40
C0
80
ENDCHAR
STARTCHAR uni2219
ENCODING 8729
SWIDTH 262 0
DWIDTH 5 0
BBX 3 3 1 4
BITMAP
E0
E0
E0
ENDCHAR
STARTCHAR radical
ENCODING 8730
SWIDTH 682 0
DWIDTH 14 0
BBX 13 19 0 -3
BITMAP
0008
0018
0018
0018
0030
0030
0030
0020
F060
F860
1840
18C0
08C0
0CC0
0C80
0580
0780
0700
0300
ENDCHAR
STARTCHAR infinity
ENCODING 8734
SWIDTH 883 0
DWIDTH 18 0
BBX 16 8 1 2
BITMAP
7C3C
C646
8383
8181
8183
C2C3
7E7E
383C
ENDCHAR
STARTCHAR integral
ENCODING 8747
SWIDTH 325 0
DWIDTH 7 0
BBX 7 20 0 -3
BITMAP
1E
10
30
30
30
30
30
30
10
10
10
10
10
10
10
10
10
30
F0
40
ENDCHAR
STARTCHAR approxequal
ENCODING 8776
SWIDTH 494 0
DWIDTH 10 0
BBX 8 7 1 3
BITMAP
73
CE
00
00
73
7E
CE
ENDCHAR
STARTCHAR notequal
ENCODING 8800
SWIDTH 494 0
DWIDTH 10 0
BBX 8 12 1 1
BITMAP
04
04
0C
FF
FF
18
18
10
FF
30
20
60
ENDCHAR
STARTCHAR lessequal
ENCODING 8804
SWIDTH 494 0
DWIDTH 10 0
BBX 8 12 1 1
BITMAP
01
03
1E
70
C0
C0
70
1E
03
01
00
FF
ENDCHAR
STARTCHAR greaterequal
ENCODING 8805
SWIDTH 494 0
DWIDTH 10 0
BBX 8 12 1 1
BITMAP
80
C0
78
0E
03
03
1C
70
C0
80
00
FF
ENDCHAR
STARTCHAR filledbox
ENCODING 9632
SWIDTH 600 0
DWIDTH 12 0
BBX 8 8 2 1
BITMAP
FF
FF
FF
FF
FF
FF
FF
FF
ENDCHAR
STARTCHAR uni25A1
ENCODING 9633
SWIDTH 600 0
DWIDTH 12 0
BBX 8 8 2 1
BITMAP
FF
81
81
81
81
81
FF
FF
ENDCHAR
STARTCHAR triagup
ENCODING 9650
SWIDTH 600 0
DWIDTH 12 0
BBX 8 9 2 1
BITMAP
10
18
18
3C
3C
7E
7E
FF
FF
ENDCHAR
STARTCHAR uni25B3
ENCODING 9651
SWIDTH 600 0
DWIDTH 12 0
BBX 8 9 2 1
BITMAP
10
18
18
3C
24
66
42
C3
FF
ENDCHAR
STARTCHAR uni25B6
ENCODING 9654
SWIDTH 600 0
DWIDTH 12 0
BBX 9 9 2 1
BITMAP
8000
E000
F800
FE00
FF80
FE00
F800
E000
8000
ENDCHAR
STARTCHAR uni25B7
ENCODING 9655
SWIDTH 600 0
DWIDTH 12 0
BBX 9 9 2 1
BITMAP
8000
E000
F800
CE00
C380
CE00
F800
E000
8000
ENDCHAR
STARTCHAR triagdn
ENCODING 9660
SWIDTH 600 0
DWIDTH 12 0
BBX 8 9 2 1
BITMAP
FF
FF
7E
7E
3C
3C
18
18
10
ENDCHAR
STARTCHAR uni25BD
ENCODING 9661
SWIDTH 600 0
DWIDTH 12 0
BBX 8 9 2 1
BITMAP
FF
C3
42
66
24
3C
18
18
10
ENDCHAR
STARTCHAR uni25C0
ENCODING 9664
SWIDTH 600 0
DWIDTH 12 0
BBX 9 9 1 1
BITMAP
0080
0380
0F80
3F80
FF80
3F80
0F80
0380
0080
ENDCHAR
STARTCHAR uni25C1
ENCODING 9665
SWIDTH 600 0
DWIDTH 12 0
BBX 9 9 1 1
BITMAP
0080
0380
0F80
3980
E180
3980
0F80
0380
0080
ENDCHAR
STARTCHAR uni25C6
ENCODING 9670
SWIDTH 600 0
DWIDTH 12 0
BBX 11 11 0 0
BITMAP
0600
0F00
1F80
3FC0
7FC0
FFE0
7FE0
3FC0
1F80
0F00
0600
ENDCHAR
STARTCHAR uni25C7
ENCODING 9671
SWIDTH 600 0
DWIDTH 12 0
BBX 11 11 0 0
BITMAP
0600
0F00
1980
30C0
6040
C020
6060
30C0
1980
0F00
0600
ENDCHAR
STARTCHAR lozenge
ENCODING 9674
SWIDTH 528 0
DWIDTH 11 0
BBX 9 14 1 0
BITMAP
0800
1800
1C00
3400
2600
6300
C100
C180
4300
6600
3600
1C00
1800
0800
ENDCHAR
STARTCHAR uniA78B
ENCODING 42891
SWIDTH 255 0
DWIDTH 5 0
BBX 2 8 2 6
BITMAP
C0
80
80
80
80
80
80
80
ENDCHAR
STARTCHAR uniA78C
ENCODING 42892
SWIDTH 253 0
DWIDTH 5 0
BBX 1 7 2 6
BITMAP
80
80
80
80
80
80
80
ENDCHAR
STARTCHAR fi
ENCODING 64257
SWIDTH 616 0
DWIDTH 12 0
BBX 10 15 1 0
BITMAP
1FC0
3CC0
6000
6000
FCC0
FCC0
60C0
60C0
60C0
60C0
60C0
60C0
60C0
60C0
60C0
ENDCHAR
STARTCHAR fl
ENCODING 64258
SWIDTH 638 0
DWIDTH 13 0
BBX 10 15 1 0
BITMAP
1EC0
3CC0
60C0
60C0
FCC0
FCC0
60C0
60C0
60C0
60C0
60C0
60C0
60C0
60C0
60C0
ENDCHAR
STARTCHAR .notdef
ENCODING -1
SWIDTH 587 0
DWIDTH 12 0
BBX 10 14 1 0
BITMAP
FFC0
80C0
80C0
80C0
80C0
80C0
80C0
80C0
80C0
80C0
80C0
80C0
80C0
FFC0
ENDCHAR
STARTCHAR .null
ENCODING -1
SWIDTH 0 0
DWIDTH 0 0
BBX 1 1 0 0
BITMAP
00
ENDCHAR
STARTCHAR A.ss01
ENCODING -1
SWIDTH 765 0
DWIDTH 15 0
BBX 12 14 2 0
BITMAP
1F00
7FC0
60E0
C060
C020
C030
C030
C030
FFF0
FFF0
C030
C030
C030
C030
ENDCHAR
STARTCHAR Aacute.ss01
ENCODING -1
SWIDTH 765 0
DWIDTH 15 0
BBX 12 19 2 0
BITMAP
0200
0380
0600
0000
0000
1F00
7FC0
60E0
C060
C020
C030
C030
C030
FFF0
FFF0
C030
C030
C030
C030
ENDCHAR
STARTCHAR Abreve.ss01
ENCODING -1
SWIDTH 765 0
DWIDTH 15 0
BBX 12 19 2 0
BITMAP
1100
1F00
0E00
0000
0000
1F00
7FC0
60E0
C060
C020
C030
C030
C030
FFF0
FFF0
C030
C030
C030
C030
ENDCHAR
STARTCHAR uni1EAE.ss01
ENCODING -1
SWIDTH 765 0
DWIDTH 15 0
BBX 12 20 2 0
BITMAP
0300
0E00
1500
1F00
0600
0000
1F00
7FC0
60E0
C060
C020
C030
C030
C030
FFF0
FFF0
C030
C030
C030
C030
ENDCHAR
STARTCHAR uni1EB6.ss01
ENCODING -1
SWIDTH 765 0
DWIDTH 15 0
BBX 12 23 2 -4
BITMAP
1100
1F00
0E00
0000
0000
1F00
7FC0
60E0
C060
C020
C030
C030
C030
FFF0
FFF0
C030
C030
C030
C030
0000
0000
0E00
0600
ENDCHAR
STARTCHAR uni1EB0.ss01
ENCODING -1
SWIDTH 765 0
DWIDTH 15 0
BBX 12 20 2 0
BITMAP
1800
0E00
1D00
1F00
0600
0000
1F00
7FC0
60E0
C060
C020
C030
C030
C030
FFF0
FFF0
C030
C030
C030
C030
ENDCHAR
STARTCHAR uni1EB2.ss01
ENCODING -1
SWIDTH 765 0
DWIDTH 15 0
BBX 12 21 2 0
BITMAP
0C00
0E00
0600
1500
1F00
0600
0000
1F00
7FC0
60E0
C060
C020
C030
C030
C030
FFF0
FFF0
C030
C030
C030
C030
ENDCHAR
STARTCHAR uni1EB4.ss01
ENCODING -1
SWIDTH 765 0
DWIDTH 15 0
BBX 12 20 2 0
BITMAP
1C80
1F00
1100
1F00
0600
0000
1F00
7FC0
60E0
C060
C020
C030
C030
C030
FFF0
FFF0
C030
C030
C030
C030
ENDCHAR
STARTCHAR Acircumflex.ss01
ENCODING -1
SWIDTH 765 0
DWIDTH 15 0
BBX 12 19 2 0
BITMAP
0600
0E00
1B80
0000
0000
1F00
7FC0
60E0
C060
C020
C030
C030
C030
FFF0
FFF0
C030
C030
C030
C030
ENDCHAR
STARTCHAR uni1EA4.ss01
ENCODING -1
SWIDTH 765 0
DWIDTH 15 0
BBX 12 21 2 0
BITMAP
0300
0700
0C00
0000
0E00
3B80
0000
1F00
7FC0
60E0
C060
C020
C030
C030
C030
FFF0
FFF0
C030
C030
C030
C030
ENDCHAR
STARTCHAR uni1EAC.ss01
ENCODING -1
SWIDTH 765 0
DWIDTH 15 0
BBX 12 23 2 -4
BITMAP
0600
0E00
1B80
0000
0000
1F00
7FC0
60E0
C060
C020
C030
C030
C030
FFF0
FFF0
C030
C030
C030
C030
0000
0000
0E00
0600
ENDCHAR
STARTCHAR uni1EA6.ss01
ENCODING -1
SWIDTH 765 0
DWIDTH 15 0
BBX 12 21 2 0
BITMAP
1800
0E00
0400
0000
0E00
3B80
0000
1F00
7FC0
60E0
C060
C020
C030
C030
C030
FFF0
FFF0
C030
C030
C030
C030
ENDCHAR
STARTCHAR uni1EA8.ss01
ENCODING -1
SWIDTH 765 0
DWIDTH 15 0
BBX 12 22 2 0
BITMAP
0E00
0600
0200
0600
0000
0F00
3980
0000
1F00
7FC0
60E0
C060
C020
C030
C030
C030
FFF0
FFF0
C030
C030
C030
C030
ENDCHAR
STARTCHAR uni1EAA.ss01
ENCODING -1
SWIDTH 765 0
DWIDTH 15 0
BBX 12 20 2 0
BITMAP
1C80
1F00
0000
0F00
3980
0000
1F00
7FC0
60E0
C060
C020
C030
C030
C030
FFF0
FFF0
C030
C030
C030
C030
ENDCHAR
STARTCHAR uni0200.ss01
ENCODING -1
SWIDTH 765 0
DWIDTH 15 0
BBX 12 19 2 0
BITMAP
1200
3600
1B00
0000
0000
1F00
7FC0
60E0
C060
C020
C030
C030
C030
FFF0
FFF0
C030
C030
C030
C030
ENDCHAR
STARTCHAR Adieresis.alt
ENCODING -1
SWIDTH 726 0
DWIDTH 15 0
BBX 14 15 0 0
BITMAP
1010
3BB0
1790
06C0
04C0
0CC0
0C60
1860
1830
3030
3FF8
3018
6018
600C
C00C
ENDCHAR
STARTCHAR Adieresis.ss01
ENCODING -1
SWIDTH 765 0
DWIDTH 15 0
BBX 12 18 2 0
BITMAP
1B00
1B00
0000
0000
1F00
7FC0
60E0
C060
C020
C030
C030
C030
FFF0
FFF0
C030
C030
C030
C030
ENDCHAR
STARTCHAR uni1EA0.ss01
ENCODING -1
SWIDTH 765 0
DWIDTH 15 0
BBX 12 18 2 -4
BITMAP
1F00
7FC0
60E0
C060
C020
C030
C030
C030
FFF0
FFF0
C030
C030
C030
C030
0000
0000
0E00
0600
ENDCHAR
STARTCHAR Agrave.ss01
ENCODING -1
SWIDTH 765 0
DWIDTH 15 0
BBX 12 19 2 0
BITMAP
0800
1800
0E00
0000
0000
1F00
7FC0
60E0
C060
C020
C030
C030
C030
FFF0
FFF0
C030
C030
C030
C030
ENDCHAR
STARTCHAR uni1EA2.ss01
ENCODING -1
SWIDTH 765 0
DWIDTH 15 0
BBX 12 20 2 0
BITMAP
0400
0E00
0200
0200
0400
0000
1F00
7FC0
60E0
C060
C020
C030
C030
C030
FFF0
FFF0
C030
C030
C030
C030
ENDCHAR
STARTCHAR uni0202.ss01
ENCODING -1
SWIDTH 765 0
DWIDTH 15 0
BBX 12 19 2 0
BITMAP
0400
0F00
1900
0000
0000
1F00
7FC0
60E0
C060
C020
C030
C030
C030
FFF0
FFF0
C030
C030
C030
C030
ENDCHAR
STARTCHAR Amacron.ss01
ENCODING -1
SWIDTH 765 0
DWIDTH 15 0
BBX 12 18 2 0
BITMAP
1F80
1F80
0000
0000
1F00
7FC0
60E0
C060
C020
C030
C030
C030
FFF0
FFF0
C030
C030
C030
C030
ENDCHAR
STARTCHAR Aogonek.ss01
ENCODING -1
SWIDTH 765 0
DWIDTH 15 0
BBX 12 18 2 -4
BITMAP
1F00
7FC0
60E0
C060
C020
C030
C030
C030
FFF0
FFF0
C030
C030
C030
C030
0060
00C0
00E0
00F0
ENDCHAR
STARTCHAR Aring.ss01
ENCODING -1
SWIDTH 765 0
DWIDTH 15 0
BBX 12 19 2 0
BITMAP
0E00
0900
0900
0E00
0000
1F00
7FC0
60E0
C060
C020
C030
C030
C030
FFF0
FFF0
C030
C030
C030
C030
ENDCHAR
STARTCHAR Aringacute.ss01
ENCODING -1
SWIDTH 765 0
DWIDTH 15 0
BBX 12 23 2 0
BITMAP
0300
0700
0C00
0000
0E00
0900
0900
0E00
0000
1F00
7FC0
60E0
C060
C020
C030
C030
C030
FFF0
FFF0
C030
C030
C030
C030
ENDCHAR
STARTCHAR Atilde.ss01
ENCODING -1
SWIDTH 765 0
DWIDTH 15 0
BBX 12 19 2 0
BITMAP
0980
1F80
1300
0000
0000
1F00
7FC0
60E0
C060
C020
C030
C030
C030
FFF0
FFF0
C030
C030
C030
C030
ENDCHAR
STARTCHAR uni01C4.ss01
ENCODING -1
SWIDTH 1445 0
DWIDTH 29 0
BBX 26 19 2 0
BITMAP
00006600
00003C00
00001800
00000000
00000000
FF81FFC0
FFC1FFC0
C0600180
C0300300
C0300600
C0180C00
C018FF80
C018FF80
C0183000
C0306000
C030C000
C061C000
FFC1FFC0
FF03FFC0
ENDCHAR
STARTCHAR uni01C5.ss01
ENCODING -1
SWIDTH 1314 0
DWIDTH 26 0
BBX 23 16 2 0
BITMAP
0000CC
000078
FF8030
FFC000
C06000
C031FE
C031FE
C0180C
C01818
C019FE
C019FE
C03060
C030C0
C061C0
FFC1FE
FF01FE
ENDCHAR
STARTCHAR E.ss01
ENCODING -1
SWIDTH 581 0
DWIDTH 12 0
BBX 10 14 1 0
BITMAP
1F80
7FC0
6000
4000
6000
3F00
3F00
6000
C000
C000
C000
E040
7FC0
1F80
ENDCHAR
STARTCHAR Eacute.ss01
ENCODING -1
SWIDTH 581 0
DWIDTH 12 0
BBX 10 19 1 0
BITMAP
0200
0380
0600
0800
0000
1F80
7FC0
6000
4000
6000
3F00
3F00
6000
C000
C000
C000
E040
7FC0
1F80
ENDCHAR
STARTCHAR Ebreve.ss01
ENCODING -1
SWIDTH 581 0
DWIDTH 12 0
BBX 10 19 1 0
BITMAP
1100
1F00
0E00
0000
0000
1F80
7FC0
6000
4000
6000
3F00
3F00
6000
C000
C000
C000
E040
7FC0
1F80
ENDCHAR
STARTCHAR Ecaron.ss01
ENCODING -1
SWIDTH 581 0
DWIDTH 12 0
BBX 10 19 1 0
BITMAP
3300
1E00
0C00
0000
0000
1F80
7FC0
6000
4000
6000
3F00
3F00
6000
C000
C000
C000
E040
7FC0
1F80
ENDCHAR
STARTCHAR uni1E1C.ss01
ENCODING -1
SWIDTH 581 0
DWIDTH 12 0
BBX 10 23 1 -4
BITMAP
3300
1E00
0E00
0000
0000
1F80
7FC0
6000
4000
6000
1F00
3F00
6000
C000
C000
C000
E040
7FC0
3F80
0400
0A00
0F00
1E00
ENDCHAR
STARTCHAR Ecircumflex.ss01
ENCODING -1
SWIDTH 581 0
DWIDTH 12 0
BBX 10 19 1 0
BITMAP
0600
0E00
3B80
0000
0000
1F80
7FC0
6000
4000
6000
3F00
3F00
6000
C000
C000
C000
E040
7FC0
1F80
ENDCHAR
STARTCHAR uni1EBE.ss01
ENCODING -1
SWIDTH 581 0
DWIDTH 12 0
BBX 10 21 1 0
BITMAP
0300
0E00
0400
0000
0E00
3B80
0000
1F80
7FC0
6000
4000
6000
3F00
3F00
6000
C000
C000
C000
E040
7FC0
1F80
ENDCHAR
STARTCHAR uni1EC6.ss01
ENCODING -1
SWIDTH 581 0
DWIDTH 12 0
BBX 10 23 1 -4
BITMAP
0C00
0E00
3B00
0080
0000
1F80
7FC0
6000
4000
6000
3F00
3F00
6000
C000
C000
C000
E040
7FC0
1F80
0000
0000
0E00
0C00
ENDCHAR
STARTCHAR uni1EC0.ss01
ENCODING -1
SWIDTH 581 0
DWIDTH 12 0
BBX 10 21 1 0
BITMAP
1800
0C00
0600
0000
0E00
3B80
0000
1F80
7FC0
6000
4000
6000
3F00
3F00
6000
C000
C000
C000
E040
7FC0
1F80
ENDCHAR
STARTCHAR uni1EC2.ss01
ENCODING -1
SWIDTH 581 0
DWIDTH 12 0
BBX 10 22 1 0
BITMAP
0600
0E00
0200
0400
0000
0F00
3980
0000
1F80
7FC0
6000
4000
6000
3F00
3F00
6000
C000
C000
C000
E040
7FC0
1F80
ENDCHAR
STARTCHAR uni1EC4.ss01
ENCODING -1
SWIDTH 581 0
DWIDTH 12 0
BBX 10 20 1 0
BITMAP
1D80
1F00
2000
0E00
3B80
0000
1F80
7FC0
6000
4000
6000
3F00
3F00
6000
C000
C000
C000
E040
7FC0
1F80
ENDCHAR
STARTCHAR uni0204.ss01
ENCODING -1
SWIDTH 581 0
DWIDTH 12 0
BBX 10 19 1 0
BITMAP
1200
3600
1B00
0000
0000
1F80
7FC0
6000
4000
6000
3F00
3F00
6000
C000
C000
C000
E040
7FC0
1F80
ENDCHAR
STARTCHAR Edieresis.ss01
ENCODING -1
SWIDTH 581 0
DWIDTH 12 0
BBX 10 18 1 0
BITMAP
1B00
1B00
0000
0000
1F80
7FC0
6000
4000
6000
3F00
3F00
6000
C000
C000
C000
E040
7FC0
1F80
ENDCHAR
STARTCHAR Edotaccent.ss01
ENCODING -1
SWIDTH 581 0
DWIDTH 12 0
BBX 10 19 1 0
BITMAP
0400
0E00
0400
0000
0000
1F80
7FC0
6000
4000
6000
3F00
3F00
6000
C000
C000
C000
E040
7FC0
1F80
ENDCHAR
STARTCHAR uni1EB8.ss01
ENCODING -1
SWIDTH 581 0
DWIDTH 12 0
BBX 10 18 1 -4
BITMAP
1F80
7FC0
6000
4000
6000
3F00
3F00
6000
C000
C000
C000
E040
7FC0
1F80
0000
0000
0E00
0C00
ENDCHAR
STARTCHAR Egrave.ss01
ENCODING -1
SWIDTH 581 0
DWIDTH 12 0
BBX 10 19 1 0
BITMAP
0800
3800
0C00
0200
0000
1F80
7FC0
6000
4000
6000
3F00
3F00
6000
C000
C000
C000
E040
7FC0
1F80
ENDCHAR
STARTCHAR uni1EBA.ss01
ENCODING -1
SWIDTH 581 0
DWIDTH 12 0
BBX 10 20 1 0
BITMAP
0400
0E00
0200
0600
0400
0000
1F80
7FC0
6000
4000
6000
3F00
3F00
6000
C000
C000
C000
E040
7FC0
1F80
ENDCHAR
STARTCHAR uni0206.ss01
ENCODING -1
SWIDTH 581 0
DWIDTH 12 0
BBX 10 19 1 0
BITMAP
0400
1F00
1900
0000
0000
1F80
7FC0
6000
4000
6000
3F00
3F00
6000
C000
C000
C000
E040
7FC0
1F80
ENDCHAR
STARTCHAR Emacron.ss01
ENCODING -1
SWIDTH 581 0
DWIDTH 12 0
BBX 10 18 1 0
BITMAP
3F80
3F80
0000
0000
1F80
7FC0
6000
4000
6000
3F00
3F00
6000
C000
C000
C000
E040
7FC0
1F80
ENDCHAR
STARTCHAR uni1E16.ss01
ENCODING -1
SWIDTH 581 0
DWIDTH 12 0
BBX 10 20 1 0
BITMAP
0300
0600
1F00
1F00
0000
0000
1F80
7FC0
6000
4000
6000
3F00
3F00
6000
C000
C000
C000
E040
7FC0
1F80
ENDCHAR
STARTCHAR uni1E14.ss01
ENCODING -1
SWIDTH 581 0
DWIDTH 12 0
BBX 10 20 1 0
BITMAP
1800
0C00
1F00
1F00
0000
0000
1F80
7FC0
6000
4000
6000
3F00
3F00
6000
C000
C000
C000
E040
7FC0
1F80
ENDCHAR
STARTCHAR Eogonek.ss01
ENCODING -1
SWIDTH 581 0
DWIDTH 12 0
BBX 10 18 1 -4
BITMAP
1F80
7FC0
6000
4000
6000
1F00
3F00
6000
C000
C000
C000
E040
7FC0
1F80
0180
0100
03C0
01C0
ENDCHAR
STARTCHAR uni1EBC.ss01
ENCODING -1
SWIDTH 581 0
DWIDTH 12 0
BBX 10 19 1 0
BITMAP
1980
1F00
3700
0000
0000
1F80
7FC0
6000
4000
6000
3F00
3F00
6000
C000
C000
C000
E040
7FC0
1F80
ENDCHAR
STARTCHAR F.ss01
ENCODING -1
SWIDTH 523 0
DWIDTH 10 0
BBX 8 14 2 0
BITMAP
3E
7F
C0
C0
C0
C0
FE
FE
C0
C0
C0
C0
C0
C0
ENDCHAR
STARTCHAR G.ss01
ENCODING -1
SWIDTH 752 0
DWIDTH 15 0
BBX 12 14 1 0
BITMAP
0FC0
1FF0
7030
6000
C000
C000
C000
C010
C010
C010
6010
7030
3FF0
0F90
ENDCHAR
STARTCHAR Gbreve.ss01
ENCODING -1
SWIDTH 752 0
DWIDTH 15 0
BBX 12 19 1 0
BITMAP
0880
0F80
0700
0000
0000
0FC0
1FF0
7030
6000
C000
C000
C000
C010
C010
C010
6010
7030
3FF0
0F90
ENDCHAR
STARTCHAR Gcaron.ss01
ENCODING -1
SWIDTH 752 0
DWIDTH 15 0
BBX 12 19 1 0
BITMAP
1980
0F00
0600
0000
0000
0FC0
1FF0
7030
6000
C000
C000
C000
C010
C010
C010
6010
7030
3FF0
0F90
ENDCHAR
STARTCHAR Gcircumflex.ss01
ENCODING -1
SWIDTH 752 0
DWIDTH 15 0
BBX 12 19 1 0
BITMAP
0300
0700
1DC0
0000
0000
0FC0
1FF0
7030
6000
C000
C000
C000
C010
C010
C010
6010
7030
3FF0
0F90
ENDCHAR
STARTCHAR Gcommaaccent.ss01
ENCODING -1
SWIDTH 752 0
DWIDTH 15 0
BBX 12 18 1 -4
BITMAP
0FC0
1FF0
7030
6000
C000
C000
C000
C010
C010
C010
6010
7030
3FF0
0F90
0000
0200
0600
0600
ENDCHAR
STARTCHAR Gdotaccent.ss01
ENCODING -1
SWIDTH 752 0
DWIDTH 15 0
BBX 12 19 1 0
BITMAP
0200
0700
0200
0000
0000
0FC0
1FF0
7030
6000
C000
C000
C000
C010
C010
C010
6010
7030
3FF0
0F90
ENDCHAR
STARTCHAR uni1E20.ss01
ENCODING -1
SWIDTH 752 0
DWIDTH 15 0
BBX 12 18 1 0
BITMAP
1FC0
1FC0
0000
0000
0FC0
1FF0
7030
6000
C000
C000
C000
C010
C010
C010
6010
7030
3FF0
0F90
ENDCHAR
STARTCHAR I.ss01
ENCODING -1
SWIDTH 476 0
DWIDTH 10 0
BBX 7 14 1 0
BITMAP
FE
FE
18
18
18
18
18
18
18
18
18
18
FE
FE
ENDCHAR
STARTCHAR IJ.ss01
ENCODING -1
SWIDTH 966 0
DWIDTH 19 0
BBX 17 16 1 -2
BITMAP
FE3F80
FE3F80
180180
180180
180180
180180
180180
180180
180180
180180
180180
180180
FE0180
FE4300
00FF00
003E00
ENDCHAR
STARTCHAR Iacute.ss01
ENCODING -1
SWIDTH 476 0
DWIDTH 10 0
BBX 7 19 1 0
BITMAP
08
0E
18
00
00
FE
FE
18
18
18
18
18
18
18
18
18
18
FE
FE
ENDCHAR
STARTCHAR Iacute_J.loclNLD
ENCODING -1
SWIDTH 786 0
DWIDTH 16 0
BBX 12 19 2 0
BITMAP
2040
7070
C0C0
0100
0000
C7F0
C7F0
C030
C030
C030
C030
C030
C030
C030
C030
C030
CC30
CFE0
C3C0
ENDCHAR
STARTCHAR Iacute_J.loclNLD.ss01
ENCODING -1
SWIDTH 966 0
DWIDTH 19 0
BBX 17 21 1 -2
BITMAP
080200
0E0300
180E00
000000
000000
FE3F80
FE3F80
180180
180180
180180
180180
180180
180180
180180
180180
180180
180180
FE0180
FE4300
00FF00
003E00
ENDCHAR
STARTCHAR Ibreve.ss01
ENCODING -1
SWIDTH 476 0
DWIDTH 10 0
BBX 7 19 1 0
BITMAP
64
7C
38
00
00
FE
FE
18
18
18
18
18
18
18
18
18
18
FE
FE
ENDCHAR
STARTCHAR Icircumflex.ss01
ENCODING -1
SWIDTH 476 0
DWIDTH 10 0
BBX 7 19 1 0
BITMAP
18
3C
66
00
00
FE
FE
18
18
18
18
18
18
18
18
18
18
FE
FE
ENDCHAR
STARTCHAR uni0208.ss01
ENCODING -1
SWIDTH 476 0
DWIDTH 10 0
BBX 7 19 1 0
BITMAP
48
D8
6C
00
00
FE
FE
18
18
18
18
18
18
18
18
18
18
FE
FE
ENDCHAR
STARTCHAR Idieresis.ss01
ENCODING -1
SWIDTH 476 0
DWIDTH 10 0
BBX 7 18 1 0
BITMAP
6E
64
00
00
FE
FE
18
18
18
18
18
18
18
18
18
18
FE
FE
ENDCHAR
STARTCHAR uni1E2E.ss01
ENCODING -1
SWIDTH 476 0
DWIDTH 10 0
BBX 7 21 1 0
BITMAP
0E
1C
30
00
6C
24
00
FE
FE
18
18
18
18
18
18
18
18
18
18
FE
FE
ENDCHAR
STARTCHAR Idotaccent.ss01
ENCODING -1
SWIDTH 476 0
DWIDTH 10 0
BBX 7 19 1 0
BITMAP
18
18
18
00
00
FE
FE
18
18
18
18
18
18
18
18
18
18
FE
FE
ENDCHAR
STARTCHAR uni1ECA.ss01
ENCODING -1
SWIDTH 476 0
DWIDTH 10 0
BBX 7 18 1 -4
BITMAP
FE
FE
18
18
18
18
18
18
18
18
18
18
FE
FE
00
00
18
18
ENDCHAR
STARTCHAR Igrave.ss01
ENCODING -1
SWIDTH 476 0
DWIDTH 10 0
BBX 7 19 1 0
BITMAP
20
70
38
00
00
FE
FE
18
18
18
18
18
18
18
18
18
18
FE
FE
ENDCHAR
STARTCHAR uni1EC8.ss01
ENCODING -1
SWIDTH 476 0
DWIDTH 10 0
BBX 7 20 1 0
BITMAP
10
38
0C
08
10
00
FE
FE
18
18
18
18
18
18
18
18
18
18
FE
FE
ENDCHAR
STARTCHAR uni020A.ss01
ENCODING -1
SWIDTH 476 0
DWIDTH 10 0
BBX 7 19 1 0
BITMAP
18
3C
64
00
00
FE
FE
18
18
18
18
18
18
18
18
18
18
FE
FE
ENDCHAR
STARTCHAR Imacron.ss01
ENCODING -1
SWIDTH 476 0
DWIDTH 10 0
BBX 7 18 1 0
BITMAP
7E
7E
00
00
FE
FE
18
18
18
18
18
18
18
18
18
18
FE
FE
ENDCHAR
STARTCHAR Iogonek.ss01
ENCODING -1
SWIDTH 476 0
DWIDTH 10 0
BBX 7 18 1 -4
BITMAP
FE
FE
18
18
18
18
18
18
18
18
18
18
FE
FE
30
60
70
38
ENDCHAR
STARTCHAR Itilde.ss01
ENCODING -1
SWIDTH 476 0
DWIDTH 10 0
BBX 7 19 1 0
BITMAP
22
7E
4C
00
00
FE
FE
18
18
18
18
18
18
18
18
18
18
FE
FE
ENDCHAR
STARTCHAR J.ss01
ENCODING -1
SWIDTH 490 0
DWIDTH 10 0
BBX 8 16 0 -2
BITMAP
7F
7F
03
03
03
03
03
03
03
03
03
03
03
C3
FE
3C
ENDCHAR
STARTCHAR Jacute
ENCODING -1
SWIDTH 490 0
DWIDTH 10 0
BBX 8 19 0 0
BITMAP
04
07
0C
00
00
7F
7F
03
03
03
03
03
03
03
03
03
C3
FE
3C
ENDCHAR
STARTCHAR Jacute.ss01
ENCODING -1
SWIDTH 490 0
DWIDTH 10 0
BBX 8 21 0 -2
BITMAP
02
07
0C
00
00
7F
7F
03
03
03
03
03
03
03
03
03
03
03
C3
FE
3C
ENDCHAR
STARTCHAR Jcircumflex.ss01
ENCODING -1
SWIDTH 490 0
DWIDTH 10 0
BBX 8 21 0 -2
BITMAP
0C
1E
33
00
00
7F
7F
03
03
03
03
03
03
03
03
03
03
03
C3
FE
3C
ENDCHAR
STARTCHAR uni01C7.ss01
ENCODING -1
SWIDTH 1014 0
DWIDTH 20 0
BBX 17 16 2 -2
BITMAP
C03F80
C03F80
C00180
C00180
C00180
C00180
C00180
C00180
C00180
C00180
C00180
C00180
FF0180
FF4300
00FF00
003E00
ENDCHAR
STARTCHAR M.ss01
ENCODING -1
SWIDTH 1202 0
DWIDTH 24 0
BBX 20 14 2 0
BITMAP
CF87C0
DFCFE0
E0F870
E07030
C06030
C06030
C06030
C06030
C06030
C06030
C06030
C06030
C06030
C06030
ENDCHAR
STARTCHAR uni1E42.ss01
ENCODING -1
SWIDTH 1202 0
DWIDTH 24 0
BBX 20 18 2 -4
BITMAP
CF87C0
DFCFE0
E0F870
E07030
C06030
C06030
C06030
C06030
C06030
C06030
C06030
C06030
C06030
C06030
000000
000000
006000
006000
ENDCHAR
STARTCHAR N.ss01
ENCODING -1
SWIDTH 774 0
DWIDTH 15 0
BBX 12 14 2 0
BITMAP
CF80
DFE0
F060
E070
C030
C030
C030
C030
C030
C030
C030
C030
C030
C030
ENDCHAR
STARTCHAR uni01CA.ss01
ENCODING -1
SWIDTH 1264 0
DWIDTH 25 0
BBX 22 16 2 -2
BITMAP
CF81FC
DFE1FC
F0600C
E0700C
C0300C
C0300C
C0300C
C0300C
C0300C
C0300C
C0300C
C0300C
C0300C
C03218
0007F8
0001F0
ENDCHAR
STARTCHAR Nacute.ss01
ENCODING -1
SWIDTH 774 0
DWIDTH 15 0
BBX 12 19 2 0
BITMAP
0100
01C0
0300
0400
0000
CF80
DFE0
F060
E070
C030
C030
C030
C030
C030
C030
C030
C030
C030
C030
ENDCHAR
STARTCHAR Ncaron.ss01
ENCODING -1
SWIDTH 774 0
DWIDTH 15 0
BBX 12 19 2 0
BITMAP
1980
0F00
0600
0000
0000
CF80
DFE0
F060
E070
C030
C030
C030
C030
C030
C030
C030
C030
C030
C030
ENDCHAR
STARTCHAR Ncommaaccent.ss01
ENCODING -1
SWIDTH 774 0
DWIDTH 15 0
BBX 12 18 2 -4
BITMAP
CF80
DFE0
F060
E070
C030
C030
C030
C030
C030
C030
C030
C030
C030
C030
0000
0600
0400
0C00
ENDCHAR
STARTCHAR uni1E44.ss01
ENCODING -1
SWIDTH 774 0
DWIDTH 15 0
BBX 12 19 2 0
BITMAP
0200
0700
0200
0000
0000
CF80
DFE0
F060
E070
C030
C030
C030
C030
C030
C030
C030
C030
C030
C030
ENDCHAR
STARTCHAR uni1E46.ss01
ENCODING -1
SWIDTH 774 0
DWIDTH 15 0
BBX 12 18 2 -4
BITMAP
CF80
DFE0
F060
E070
C030
C030
C030
C030
C030
C030
C030
C030
C030
C030
0000
0000
0600
0600
ENDCHAR
STARTCHAR Eng.ss01
ENCODING -1
SWIDTH 775 0
DWIDTH 16 0
BBX 12 18 2 -4
BITMAP
CF80
DFC0
F060
E070
C030
C030
C030
C030
C030
C030
C030
C030
C030
C030
0030
0870
0FE0
07C0
ENDCHAR
STARTCHAR uni01CB.ss01
ENCODING -1
SWIDTH 1037 0
DWIDTH 21 0
BBX 17 19 2 -4
BITMAP
000180
CF8180
DFE000
F06000
E07180
C03180
C03180
C03180
C03180
C03180
C03180
C03180
C03180
C03180
C03180
000180
000180
000780
000F00
ENDCHAR
STARTCHAR uni1E48.ss01
ENCODING -1
SWIDTH 774 0
DWIDTH 15 0
BBX 12 17 2 -3
BITMAP
CF80
DFE0
F060
E070
C030
C030
C030
C030
C030
C030
C030
C030
C030
C030
0000
1F80
1F80
ENDCHAR
STARTCHAR Ntilde.ss01
ENCODING -1
SWIDTH 774 0
DWIDTH 15 0
BBX 12 19 2 0
BITMAP
0CC0
0F80
1B80
0000
0000
CF80
DFE0
F060
E070
C030
C030
C030
C030
C030
C030
C030
C030
C030
C030
ENDCHAR
STARTCHAR Q.ss01
ENCODING -1
SWIDTH 812 0
DWIDTH 16 0
BBX 14 17 1 -3
BITMAP
0FC0
1FF0
3038
6018
C00C
C00C
C00C
C004
C00C
C30C
631C
7318
3F70
1FE0
0300
0300
0300
ENDCHAR
STARTCHAR uni018F.ss01
ENCODING -1
SWIDTH 760 0
DWIDTH 15 0
BBX 13 14 1 0
BITMAP
0F80
3FE0
6070
2038
0018
0078
03E8
1F08
7C18
E018
C038
6070
3FE0
0F80
ENDCHAR
STARTCHAR T.ss01
ENCODING -1
SWIDTH 642 0
DWIDTH 13 0
BBX 11 14 1 0
BITMAP
3F80
FFE0
CC60
0C00
0C00
0C00
0C00
0C00
0C00
0C00
0C00
0C00
0C00
0C00
ENDCHAR
STARTCHAR Tbar.ss01
ENCODING -1
SWIDTH 642 0
DWIDTH 13 0
BBX 11 14 1 0
BITMAP
3F80
FFE0
CC60
0C00
0C00
0C00
0C00
7F80
0C00
0C00
0C00
0C00
0C00
0C00
ENDCHAR
STARTCHAR Tcaron.ss01
ENCODING -1
SWIDTH 642 0
DWIDTH 13 0
BBX 11 19 1 0
BITMAP
3300
1E00
0C00
0000
0000
3F80
FFE0
CC60
0C00
0C00
0C00
0C00
0C00
0C00
0C00
0C00
0C00
0C00
0C00
ENDCHAR
STARTCHAR uni0162.ss01
ENCODING -1
SWIDTH 642 0
DWIDTH 13 0
BBX 11 18 1 -4
BITMAP
3F80
FFE0
CC60
0C00
0C00
0C00
0C00
0C00
0C00
0C00
0C00
0C00
0C00
0C00
0400
0A00
0F00
1E00
ENDCHAR
STARTCHAR uni021A.ss01
ENCODING -1
SWIDTH 642 0
DWIDTH 13 0
BBX 11 18 1 -4
BITMAP
3F80
FFE0
CC60
0C00
0C00
0C00
0C00
0C00
0C00
0C00
0C00
0C00
0C00
0C00
0000
0C00
0C00
0800
ENDCHAR
STARTCHAR uni1E6C.ss01
ENCODING -1
SWIDTH 642 0
DWIDTH 13 0
BBX 11 18 1 -4
BITMAP
3F80
FFE0
CC60
0C00
0C00
0C00
0C00
0C00
0C00
0C00
0C00
0C00
0C00
0C00
0000
0000
0E00
0C00
ENDCHAR
STARTCHAR uni1E6E.ss01
ENCODING -1
SWIDTH 642 0
DWIDTH 13 0
BBX 11 17 1 -3
BITMAP
3F80
FFE0
CC60
0C00
0C00
0C00
0C00
0C00
0C00
0C00
0C00
0C00
0C00
0C00
0000
3F00
3F00
ENDCHAR
STARTCHAR U.ss01
ENCODING -1
SWIDTH 774 0
DWIDTH 15 0
BBX 11 14 2 0
BITMAP
C020
C020
C020
C020
C020
C020
C020
C020
C020
C060
C060
E0E0
7FA0
3E20
ENDCHAR
STARTCHAR Uacute.ss01
ENCODING -1
SWIDTH 774 0
DWIDTH 15 0
BBX 11 19 2 0
BITMAP
0200
0380
0600
0000
0000
C020
C020
C020
C020
C020
C020
C020
C020
C020
C060
C060
E0E0
7FA0
3E20
ENDCHAR
STARTCHAR Ubreve.ss01
ENCODING -1
SWIDTH 774 0
DWIDTH 15 0
BBX 11 19 2 0
BITMAP
1100
1F00
0E00
0000
0000
C020
C020
C020
C020
C020
C020
C020
C020
C020
C060
C060
E0E0
7FA0
3E20
ENDCHAR
STARTCHAR Ucircumflex.ss01
ENCODING -1
SWIDTH 774 0
DWIDTH 15 0
BBX 11 19 2 0
BITMAP
0600
0F00
1B80
0000
0000
C020
C020
C020
C020
C020
C020
C020
C020
C020
C060
C060
E0E0
7FA0
3E20
ENDCHAR
STARTCHAR uni0214.ss01
ENCODING -1
SWIDTH 774 0
DWIDTH 15 0
BBX 11 19 2 0
BITMAP
1200
3600
1B00
0000
0000
C020
C020
C020
C020
C020
C020
C020
C020
C020
C060
C060
E0E0
7FA0
3E20
ENDCHAR
STARTCHAR Udieresis.alt
ENCODING -1
SWIDTH 762 0
DWIDTH 15 0
BBX 12 15 2 0
BITMAP
1100
DB30
D930
C030
C030
C030
C030
C030
C030
C030
C060
C060
60E0
7FC0
1F80
ENDCHAR
STARTCHAR Udieresis.ss01
ENCODING -1
SWIDTH 774 0
DWIDTH 15 0
BBX 11 18 2 0
BITMAP
1B80
1900
0000
0000
C020
C020
C020
C020
C020
C020
C020
C020
C020
C060
C060
E0E0
7FA0
3E20
ENDCHAR
STARTCHAR Udieresis.ss01.alt
ENCODING -1
SWIDTH 774 0
DWIDTH 15 0
BBX 11 15 2 0
BITMAP
1100
DB20
D920
C020
C020
C020
C020
C020
C020
C060
C060
C060
E0E0
7FA0
3E20
ENDCHAR
STARTCHAR uni1EE4.ss01
ENCODING -1
SWIDTH 774 0
DWIDTH 15 0
BBX 11 18 2 -4
BITMAP
C020
C020
C020
C020
C020
C020
C020
C020
C020
C060
C060
E0E0
7FA0
3E20
0000
0000
0600
0600
ENDCHAR
STARTCHAR Ugrave.ss01
ENCODING -1
SWIDTH 774 0
DWIDTH 15 0
BBX 11 19 2 0
BITMAP
0800
1C00
0E00
0000
0000
C020
C020
C020
C020
C020
C020
C020
C020
C020
C060
C060
E0E0
7FA0
3E20
ENDCHAR
STARTCHAR uni1EE6.ss01
ENCODING -1
SWIDTH 774 0
DWIDTH 15 0
BBX 11 20 2 0
BITMAP
0400
0E00
0300
0200
0400
0000
C020
C020
C020
C020
C020
C020
C020
C020
C020
C060
C060
E0E0
7FA0
3E20
ENDCHAR
STARTCHAR Uhorn.ss01
ENCODING -1
SWIDTH 792 0
DWIDTH 16 0
BBX 14 17 2 0
BITMAP
0008
000C
000C
C038
C020
C020
C020
C020
C020
C020
C020
C020
C060
C060
E0E0
7FA0
3E20
ENDCHAR
STARTCHAR uni1EE8.ss01
ENCODING -1
SWIDTH 792 0
DWIDTH 16 0
BBX 14 19 2 0
BITMAP
0200
0380
0608
000C
000C
C038
C020
C020
C020
C020
C020
C020
C020
C020
C060
C060
E0E0
7FA0
3E20
ENDCHAR
STARTCHAR uni1EF0.ss01
ENCODING -1
SWIDTH 792 0
DWIDTH 16 0
BBX 14 21 2 -4
BITMAP
0008
000C
000C
C038
C020
C020
C020
C020
C020
C020
C020
C020
C060
C060
E0E0
7FA0
3E20
0000
0000
0600
0600
ENDCHAR
STARTCHAR uni1EEA.ss01
ENCODING -1
SWIDTH 792 0
DWIDTH 16 0
BBX 14 19 2 0
BITMAP
0800
1C00
0E08
000C
000C
C038
C020
C020
C020
C020
C020
C020
C020
C020
C060
C060
E0E0
7FA0
3E20
ENDCHAR
STARTCHAR uni1EEC.ss01
ENCODING -1
SWIDTH 792 0
DWIDTH 16 0
BBX 14 20 2 0
BITMAP
0400
0E00
0300
0208
040C
000C
C038
C020
C020
C020
C020
C020
C020
C020
C020
C060
C060
E0E0
7FA0
3E20
ENDCHAR
STARTCHAR uni1EEE.ss01
ENCODING -1
SWIDTH 792 0
DWIDTH 16 0
BBX 14 19 2 0
BITMAP
0880
1F80
1308
000C
000C
C038
C020
C020
C020
C020
C020
C020
C020
C020
C060
C060
E0E0
7FA0
3E20
ENDCHAR
STARTCHAR Uhungarumlaut.ss01
ENCODING -1
SWIDTH 774 0
DWIDTH 15 0
BBX 11 19 2 0
BITMAP
0880
0D80
1B00
0000
0000
C020
C020
C020
C020
C020
C020
C020
C020
C020
C060
C060
E0E0
7FA0
3E20
ENDCHAR
STARTCHAR uni0216.ss01
ENCODING -1
SWIDTH 774 0
DWIDTH 15 0
BBX 11 19 2 0
BITMAP
0600
0F00
1900
0000
0000
C020
C020
C020
C020
C020
C020
C020
C020
C020
C060
C060
E0E0
7FA0
3E20
ENDCHAR
STARTCHAR Umacron.ss01
ENCODING -1
SWIDTH 774 0
DWIDTH 15 0
BBX 11 18 2 0
BITMAP
1F80
1F80
0000
0000
C020
C020
C020
C020
C020
C020
C020
C020
C020
C060
C060
E0E0
7FA0
3E20
ENDCHAR
STARTCHAR uni1E7A.ss01
ENCODING -1
SWIDTH 774 0
DWIDTH 15 0
BBX 11 19 2 0
BITMAP
1B00
1F00
1F00
0000
0000
C020
C020
C020
C020
C020
C020
C020
C020
C020
C060
C060
E0E0
7FA0
3E20
ENDCHAR
STARTCHAR Uogonek.ss01
ENCODING -1
SWIDTH 774 0
DWIDTH 15 0
BBX 11 18 2 -4
BITMAP
C020
C020
C020
C020
C020
C020
C020
C020
C020
C060
C060
E0E0
7FA0
3E20
0060
00C0
00E0
00E0
ENDCHAR
STARTCHAR Uring.ss01
ENCODING -1
SWIDTH 774 0
DWIDTH 15 0
BBX 11 19 2 0
BITMAP
0E00
0900
0900
0E00
0000
C020
C020
C020
C020
C020
C020
C020
C020
C020
C060
C060
E0E0
7FA0
3E20
ENDCHAR
STARTCHAR Utilde.ss01
ENCODING -1
SWIDTH 774 0
DWIDTH 15 0
BBX 11 19 2 0
BITMAP
0880
1F80
1300
0000
0000
C020
C020
C020
C020
C020
C020
C020
C020
C020
C060
C060
E0E0
7FA0
3E20
ENDCHAR
STARTCHAR uni1E78.ss01
ENCODING -1
SWIDTH 774 0
DWIDTH 15 0
BBX 11 21 2 0
BITMAP
0380
0700
0C00
0000
1C80
1F00
0000
C020
C020
C020
C020
C020
C020
C020
C020
C020
C060
C060
E0E0
7FA0
3E20
ENDCHAR
STARTCHAR W.ss01
ENCODING -1
SWIDTH 1178 0
DWIDTH 24 0
BBX 20 14 2 0
BITMAP
C06030
C06030
C06030
C06030
C06030
C06030
C06030
C06030
C06030
C06030
C0E030
E0F060
7F9FE0
3E0F80
ENDCHAR
STARTCHAR Wacute.ss01
ENCODING -1
SWIDTH 1178 0
DWIDTH 24 0
BBX 20 19 2 0
BITMAP
002000
003800
006000
000000
000000
C06030
C06030
C06030
C06030
C06030
C06030
C06030
C06030
C06030
C06030
C0E030
E0F060
7F9FE0
3E0F80
ENDCHAR
STARTCHAR Wcircumflex.ss01
ENCODING -1
SWIDTH 1178 0
DWIDTH 24 0
BBX 20 19 2 0
BITMAP
006000
00F000
019800
000000
000000
C06030
C06030
C06030
C06030
C06030
C06030
C06030
C06030
C06030
C06030
C0E030
E0F060
7F9FE0
3E0F80
ENDCHAR
STARTCHAR Wdieresis.ss01
ENCODING -1
SWIDTH 1178 0
DWIDTH 24 0
BBX 20 18 2 0
BITMAP
01B800
019000
000000
000000
C06030
C06030
C06030
C06030
C06030
C06030
C06030
C06030
C06030
C06030
C0E030
E0F060
7F9FE0
3E0F80
ENDCHAR
STARTCHAR Wgrave.ss01
ENCODING -1
SWIDTH 1178 0
DWIDTH 24 0
BBX 20 19 2 0
BITMAP
008000
01C000
00E000
000000
000000
C06030
C06030
C06030
C06030
C06030
C06030
C06030
C06030
C06030
C06030
C0E030
E0F060
7F9FE0
3E0F80
ENDCHAR
STARTCHAR Y.ss01
ENCODING -1
SWIDTH 738 0
DWIDTH 15 0
BBX 11 17 2 -3
BITMAP
C060
C060
C060
C060
C060
C060
C060
C0E0
E0E0
7FE0
3E60
0060
0060
80E0
E1C0
7F80
0E00
ENDCHAR
STARTCHAR Yacute.ss01
ENCODING -1
SWIDTH 738 0
DWIDTH 15 0
BBX 11 22 2 -3
BITMAP
0200
0300
0E00
0000
0000
C060
C060
C060
C060
C060
C060
C060
C0E0
E0E0
7FE0
3E60
0060
0060
80E0
E1C0
7F80
0E00
ENDCHAR
STARTCHAR Ycircumflex.ss01
ENCODING -1
SWIDTH 738 0
DWIDTH 15 0
BBX 11 22 2 -3
BITMAP
0C00
0E00
3B00
0000
0000
C060
C060
C060
C060
C060
C060
C060
C0E0
E0E0
7FE0
3E60
0060
0060
80E0
E1C0
7F80
0E00
ENDCHAR
STARTCHAR Ydieresis.ss01
ENCODING -1
SWIDTH 738 0
DWIDTH 15 0
BBX 11 21 2 -3
BITMAP
1B00
1B00
0000
0000
C060
C060
C060
C060
C060
C060
C060
C0E0
E0E0
7FE0
3E60
0060
0060
80E0
E1C0
7F80
0E00
ENDCHAR
STARTCHAR uni1E8E.ss01
ENCODING -1
SWIDTH 738 0
DWIDTH 15 0
BBX 11 22 2 -3
BITMAP
0400
0E00
0C00
0000
0000
C060
C060
C060
C060
C060
C060
C060
C0E0
E0E0
7FE0
3E60
0060
0060
80E0
E1C0
7F80
0E00
ENDCHAR
STARTCHAR uni1EF4.ss01
ENCODING -1
SWIDTH 738 0
DWIDTH 15 0
BBX 11 20 2 -6
BITMAP
C060
C060
C060
C060
C060
C060
C060
C0E0
E0E0
7FE0
3E60
0060
0060
80E0
E1C0
7F80
0E00
0000
0E00
0600
ENDCHAR
STARTCHAR Ygrave.ss01
ENCODING -1
SWIDTH 738 0
DWIDTH 15 0
BBX 11 22 2 -3
BITMAP
0800
3800
0C00
0000
0000
C060
C060
C060
C060
C060
C060
C060
C0E0
E0E0
7FE0
3E60
0060
0060
80E0
E1C0
7F80
0E00
ENDCHAR
STARTCHAR uni1EF6.ss01
ENCODING -1
SWIDTH 738 0
DWIDTH 15 0
BBX 11 23 2 -3
BITMAP
0C00
0E00
0200
0600
0400
0000
C060
C060
C060
C060
C060
C060
C060
C0E0
E0E0
7FE0
3E60
0060
0060
80E0
E1C0
7F80
0E00
ENDCHAR
STARTCHAR uni0232.ss01
ENCODING -1
SWIDTH 738 0
DWIDTH 15 0
BBX 11 21 2 -3
BITMAP
3F00
3F00
0000
0000
C060
C060
C060
C060
C060
C060
C060
C0E0
E0E0
7FE0
3E60
0060
0060
80E0
E1C0
7F80
0E00
ENDCHAR
STARTCHAR uni1EF8.ss01
ENCODING -1
SWIDTH 738 0
DWIDTH 15 0
BBX 11 22 2 -3
BITMAP
1900
1F00
3700
0000
0000
C060
C060
C060
C060
C060
C060
C060
C0E0
E0E0
7FE0
3E60
0060
0060
80E0
E1C0
7F80
0E00
ENDCHAR
STARTCHAR Z.ss01
ENCODING -1
SWIDTH 662 0
DWIDTH 13 0
BBX 11 14 1 0
BITMAP
FFE0
FFE0
00C0
0180
0380
0300
7FC0
7FC0
1800
3800
3000
6000
FFE0
FFE0
ENDCHAR
STARTCHAR Zacute.ss01
ENCODING -1
SWIDTH 662 0
DWIDTH 13 0
BBX 11 19 1 0
BITMAP
0200
0380
0600
0000
0000
FFE0
FFE0
00C0
0180
0380
0300
7FC0
7FC0
1800
3800
3000
6000
FFE0
FFE0
ENDCHAR
STARTCHAR Zcaron.ss01
ENCODING -1
SWIDTH 662 0
DWIDTH 13 0
BBX 11 19 1 0
BITMAP
3300
1E00
0E00
0000
0000
FFE0
FFE0
00C0
0180
0380
0300
7FC0
7FC0
1800
3800
3000
6000
FFE0
FFE0
ENDCHAR
STARTCHAR Zdotaccent.ss01
ENCODING -1
SWIDTH 662 0
DWIDTH 13 0
BBX 11 19 1 0
BITMAP
0400
0600
0600
0000
0000
FFE0
FFE0
00C0
0180
0380
0300
7FC0
7FC0
1800
3800
3000
6000
FFE0
FFE0
ENDCHAR
STARTCHAR uni1E92.ss01
ENCODING -1
SWIDTH 662 0
DWIDTH 13 0
BBX 11 18 1 -4
BITMAP
FFE0
FFE0
00C0
0180
0380
0300
7FC0
7FC0
1800
3800
3000
6000
FFE0
FFE0
0000
0000
0E00
0600
ENDCHAR
STARTCHAR a.ss01
ENCODING -1
SWIDTH 673 0
DWIDTH 13 0
BBX 11 11 1 0
BITMAP
1E60
7F60
E0E0
C0E0
C060
C060
C060
C0E0
60E0
7F60
1E60
ENDCHAR
STARTCHAR aacute.ss01
ENCODING -1
SWIDTH 673 0
DWIDTH 13 0
BBX 11 16 1 0
BITMAP
0200
0380
0600
0000
0000
1E60
7F60
E0E0
C0E0
C060
C060
C060
C0E0
60E0
7F60
1E60
ENDCHAR
STARTCHAR abreve.ss01
ENCODING -1
SWIDTH 673 0
DWIDTH 13 0
BBX 11 16 1 0
BITMAP
1100
1F00
0E00
0000
0000
1E60
7F60
E0E0
C0E0
C060
C060
C060
C0E0
60E0
7F60
1E60
ENDCHAR
STARTCHAR uni1EAF.ss01
ENCODING -1
SWIDTH 673 0
DWIDTH 13 0
BBX 11 18 1 0
BITMAP
0300
0700
0C00
1100
1F00
0600
0000
1E60
7F60
E0E0
C0E0
C060
C060
C060
C0E0
60E0
7F60
1E60
ENDCHAR
STARTCHAR uni1EB7.ss01
ENCODING -1
SWIDTH 673 0
DWIDTH 13 0
BBX 11 20 1 -4
BITMAP
1100
1F00
0E00
0000
0000
1E60
7F60
E0E0
C0E0
C060
C060
C060
C0E0
60E0
7F60
1E60
0000
0000
0E00
0600
ENDCHAR
STARTCHAR uni1EB1.ss01
ENCODING -1
SWIDTH 673 0
DWIDTH 13 0
BBX 11 18 1 0
BITMAP
1800
0E00
0400
1100
1F00
0600
0000
1E60
7F60
E0E0
C0E0
C060
C060
C060
C0E0
60E0
7F60
1E60
ENDCHAR
STARTCHAR uni1EB3.ss01
ENCODING -1
SWIDTH 673 0
DWIDTH 13 0
BBX 11 19 1 0
BITMAP
0C00
0E00
0600
0400
1100
1F00
0600
0000
1E60
7F60
E0E0
C0E0
C060
C060
C060
C0E0
60E0
7F60
1E60
ENDCHAR
STARTCHAR uni1EB5.ss01
ENCODING -1
SWIDTH 673 0
DWIDTH 13 0
BBX 11 17 1 0
BITMAP
1C80
1F00
1100
1F00
0600
0000
1E60
7F60
E0E0
C0E0
C060
C060
C060
C0E0
60E0
7F60
1E60
ENDCHAR
STARTCHAR acircumflex.ss01
ENCODING -1
SWIDTH 673 0
DWIDTH 13 0
BBX 11 16 1 0
BITMAP
0E00
0F00
1B80
0000
0000
1E60
7F60
E0E0
C0E0
C060
C060
C060
C0E0
60E0
7F60
1E60
ENDCHAR
STARTCHAR uni1EA5.ss01
ENCODING -1
SWIDTH 673 0
DWIDTH 13 0
BBX 11 18 1 0
BITMAP
0300
0700
0C00
0000
0E00
3B80
0000
1E60
7F60
E0E0
C0E0
C060
C060
C060
C0E0
60E0
7F60
1E60
ENDCHAR
STARTCHAR uni1EAD.ss01
ENCODING -1
SWIDTH 673 0
DWIDTH 13 0
BBX 11 20 1 -4
BITMAP
0E00
0F00
1B80
0000
0000
1E60
7F60
E0E0
C0E0
C060
C060
C060
C0E0
60E0
7F60
1E60
0000
0000
0E00
0600
ENDCHAR
STARTCHAR uni1EA7.ss01
ENCODING -1
SWIDTH 673 0
DWIDTH 13 0
BBX 11 18 1 0
BITMAP
1800
0E00
0400
0000
0E00
3B80
0000
1E60
7F60
E0E0
C0E0
C060
C060
C060
C0E0
60E0
7F60
1E60
ENDCHAR
STARTCHAR uni1EA9.ss01
ENCODING -1
SWIDTH 673 0
DWIDTH 13 0
BBX 11 19 1 0
BITMAP
0C00
0E00
0600
0400
0000
0E00
3B80
0000
1E60
7F60
E0E0
C0E0
C060
C060
C060
C0E0
60E0
7F60
1E60
ENDCHAR
STARTCHAR uni1EAB.ss01
ENCODING -1
SWIDTH 673 0
DWIDTH 13 0
BBX 11 17 1 0
BITMAP
1C80
1F00
0000
0E00
3B80
0000
1E60
7F60
E0E0
C0E0
C060
C060
C060
C0E0
60E0
7F60
1E60
ENDCHAR
STARTCHAR uni0201.ss01
ENCODING -1
SWIDTH 673 0
DWIDTH 13 0
BBX 11 16 1 0
BITMAP
1200
3600
1B00
0000
0000
1E60
7F60
E0E0
C0E0
C060
C060
C060
C0E0
60E0
7F60
1E60
ENDCHAR
STARTCHAR adieresis.ss01
ENCODING -1
SWIDTH 673 0
DWIDTH 13 0
BBX 11 15 1 0
BITMAP
1900
1B00
0000
0000
1E60
7F60
E0E0
C0E0
C060
C060
C060
C0E0
60E0
7F60
1E60
ENDCHAR
STARTCHAR uni1EA1.ss01
ENCODING -1
SWIDTH 673 0
DWIDTH 13 0
BBX 11 15 1 -4
BITMAP
1E60
7F60
E0E0
C0E0
C060
C060
C060
C0E0
60E0
7F60
1E60
0000
0000
0E00
0600
ENDCHAR
STARTCHAR agrave.ss01
ENCODING -1
SWIDTH 673 0
DWIDTH 13 0
BBX 11 16 1 0
BITMAP
0800
1800
0C00
0200
0000
1E60
7F60
E0E0
C0E0
C060
C060
C060
C0E0
60E0
7F60
1E60
ENDCHAR
STARTCHAR uni1EA3.ss01
ENCODING -1
SWIDTH 673 0
DWIDTH 13 0
BBX 11 17 1 0
BITMAP
0400
0E00
0200
0200
0400
0000
1E60
7F60
E0E0
C0E0
C060
C060
C060
C0E0
60E0
7F60
1E60
ENDCHAR
STARTCHAR uni0203.ss01
ENCODING -1
SWIDTH 673 0
DWIDTH 13 0
BBX 11 16 1 0
BITMAP
0600
0F00
1900
0000
0000
1E60
7F60
E0E0
C0E0
C060
C060
C060
C0E0
60E0
7F60
1E60
ENDCHAR
STARTCHAR amacron.ss01
ENCODING -1
SWIDTH 673 0
DWIDTH 13 0
BBX 11 15 1 0
BITMAP
1F80
1F80
0000
0000
1E60
7F60
E0E0
C0E0
C060
C060
C060
C0E0
60E0
7F60
1E60
ENDCHAR
STARTCHAR aogonek.ss01
ENCODING -1
SWIDTH 673 0
DWIDTH 13 0
BBX 11 15 1 -4
BITMAP
1E60
7F60
E0E0
C0E0
C060
C060
C060
C0E0
60E0
7F60
1E60
00C0
0180
01A0
00E0
ENDCHAR
STARTCHAR aring.ss01
ENCODING -1
SWIDTH 673 0
DWIDTH 13 0
BBX 11 16 1 0
BITMAP
0E00
0900
0900
0E00
0000
1E60
7F60
E0E0
C0E0
C060
C060
C060
C0E0
60E0
7F60
1E60
ENDCHAR
STARTCHAR aringacute.ss01
ENCODING -1
SWIDTH 673 0
DWIDTH 13 0
BBX 11 19 1 0
BITMAP
0300
0700
0C00
0E00
0900
0900
0E00
0000
1E60
7F60
E0E0
C0E0
C060
C060
C060
C0E0
60E0
7F60
1E60
ENDCHAR
STARTCHAR atilde.ss01
ENCODING -1
SWIDTH 673 0
DWIDTH 13 0
BBX 11 16 1 0
BITMAP
0980
1F80
1300
0000
0000
1E60
7F60
E0E0
C0E0
C060
C060
C060
C0E0
60E0
7F60
1E60
ENDCHAR
STARTCHAR ae.ss01
ENCODING -1
SWIDTH 968 0
DWIDTH 19 0
BBX 18 11 1 0
BITMAP
3E3E00
7F7F00
41C180
01C0C0
1F8780
7FBC00
C1F000
C1C000
C3E080
FE7F80
3C3E00
ENDCHAR
STARTCHAR aeacute.ss01
ENCODING -1
SWIDTH 968 0
DWIDTH 19 0
BBX 18 16 1 0
BITMAP
004000
007000
00C000
000000
000000
3E3E00
7F7F00
41C180
01C0C0
1F8780
7FBC00
C1F000
C1C000
C3E080
FE7F80
3C3E00
ENDCHAR
STARTCHAR uni01C6.ss01
ENCODING -1
SWIDTH 1211 0
DWIDTH 24 0
BBX 22 16 1 0
BITMAP
000198
0060F0
006060
006000
006000
1E63FC
7F63FC
E0E018
C0E030
C063FC
C063FC
C060C0
C0E180
60E380
7F63FC
1E63FC
ENDCHAR
STARTCHAR e.ss01
ENCODING -1
SWIDTH 578 0
DWIDTH 12 0
BBX 10 11 1 0
BITMAP
1E00
7F80
6180
C0C0
C7C0
FE00
F000
C000
60C0
7F80
1F00
ENDCHAR
STARTCHAR eacute.ss01
ENCODING -1
SWIDTH 578 0
DWIDTH 12 0
BBX 10 16 1 0
BITMAP
0200
0700
0E00
0000
0000
1E00
7F80
6180
C0C0
C7C0
FE00
F000
C000
60C0
7F80
1F00
ENDCHAR
STARTCHAR ebreve.ss01
ENCODING -1
SWIDTH 578 0
DWIDTH 12 0
BBX 10 16 1 0
BITMAP
3300
1E00
1E00
0000
0000
1E00
7F80
6180
C0C0
C7C0
FE00
F000
C000
60C0
7F80
1F00
ENDCHAR
STARTCHAR ecaron.ss01
ENCODING -1
SWIDTH 578 0
DWIDTH 12 0
BBX 10 16 1 0
BITMAP
3300
1E00
0C00
0000
0000
1E00
7F80
6180
C0C0
C7C0
FE00
F000
C000
60C0
7F80
1F00
ENDCHAR
STARTCHAR uni1E1D.ss01
ENCODING -1
SWIDTH 578 0
DWIDTH 12 0
BBX 10 19 1 -4
BITMAP
3300
1E00
0C00
0000
1E00
7F80
E180
C0C0
C7C0
FC00
E000
C080
61C0
3F00
0400
0C00
0200
1E00
1C00
ENDCHAR
STARTCHAR ecircumflex.ss01
ENCODING -1
SWIDTH 578 0
DWIDTH 12 0
BBX 10 16 1 0
BITMAP
0C00
1E00
3300
0000
0000
1E00
7F80
6180
C0C0
C7C0
FE00
F000
C000
60C0
7F80
1F00
ENDCHAR
STARTCHAR uni1EBF.ss01
ENCODING -1
SWIDTH 578 0
DWIDTH 12 0
BBX 10 18 1 0
BITMAP
0700
0E00
0400
0000
1E00
3300
0000
1E00
7F80
6180
C0C0
C7C0
FE00
F000
C000
60C0
7F80
1F00
ENDCHAR
STARTCHAR uni1EC7.ss01
ENCODING -1
SWIDTH 578 0
DWIDTH 12 0
BBX 10 20 1 -4
BITMAP
0C00
1E00
3300
0000
0000
1E00
7F80
6180
C0C0
C7C0
FE00
F000
C000
60C0
7F80
1F00
0000
0000
0C00
0C00
ENDCHAR
STARTCHAR uni1EC1.ss01
ENCODING -1
SWIDTH 578 0
DWIDTH 12 0
BBX 10 18 1 0
BITMAP
3000
1C00
0800
0000
1E00
3300
0000
1E00
7F80
6180
C0C0
C7C0
FE00
F000
C000
60C0
7F80
1F00
ENDCHAR
STARTCHAR uni1EC3.ss01
ENCODING -1
SWIDTH 578 0
DWIDTH 12 0
BBX 10 19 1 0
BITMAP
1C00
0E00
0400
0C00
0000
1E00
3300
0000
1E00
7F80
6180
C0C0
C7C0
FE00
F000
C000
60C0
7F80
1F00
ENDCHAR
STARTCHAR uni1EC5.ss01
ENCODING -1
SWIDTH 578 0
DWIDTH 12 0
BBX 10 17 1 0
BITMAP
3900
3F00
0000
1E00
3300
0000
1E00
7F80
6180
C0C0
C7C0
FE00
F000
C000
60C0
7F80
1F00
ENDCHAR
STARTCHAR uni0205.ss01
ENCODING -1
SWIDTH 578 0
DWIDTH 12 0
BBX 10 16 1 0
BITMAP
2400
6E00
3600
0000
0000
1E00
7F80
6180
C0C0
C7C0
FE00
F000
C000
60C0
7F80
1F00
ENDCHAR
STARTCHAR edieresis.ss01
ENCODING -1
SWIDTH 578 0
DWIDTH 12 0
BBX 10 15 1 0
BITMAP
1200
3300
0000
0000
1E00
7F80
6180
C0C0
C7C0
FE00
F000
C000
60C0
7F80
1F00
ENDCHAR
STARTCHAR edotaccent.ss01
ENCODING -1
SWIDTH 578 0
DWIDTH 12 0
BBX 10 15 1 0
BITMAP
0C00
0C00
0000
0000
1E00
7F80
6180
C0C0
C7C0
FE00
F000
C000
60C0
7F80
1F00
ENDCHAR
STARTCHAR uni1EB9.ss01
ENCODING -1
SWIDTH 578 0
DWIDTH 12 0
BBX 10 15 1 -4
BITMAP
1E00
7F80
6180
C0C0
C7C0
FE00
F000
C000
60C0
7F80
1F00
0000
0000
0C00
0C00
ENDCHAR
STARTCHAR egrave.ss01
ENCODING -1
SWIDTH 578 0
DWIDTH 12 0
BBX 10 16 1 0
BITMAP
1000
3800
1C00
0000
0000
1E00
7F80
6180
C0C0
C7C0
FE00
F000
C000
60C0
7F80
1F00
ENDCHAR
STARTCHAR uni1EBB.ss01
ENCODING -1
SWIDTH 578 0
DWIDTH 12 0
BBX 10 17 1 0
BITMAP
0C00
1E00
0600
0400
0C00
0000
1E00
7F80
6180
C0C0
C7C0
FE00
F000
C000
60C0
7F80
1F00
ENDCHAR
STARTCHAR uni0207.ss01
ENCODING -1
SWIDTH 578 0
DWIDTH 12 0
BBX 10 16 1 0
BITMAP
0C00
1E00
3300
0000
0000
1E00
7F80
6180
C0C0
C7C0
FE00
F000
C000
60C0
7F80
1F00
ENDCHAR
STARTCHAR emacron.ss01
ENCODING -1
SWIDTH 578 0
DWIDTH 12 0
BBX 10 15 1 0
BITMAP
3F00
3F00
0000
0000
1E00
7F80
6180
C0C0
C7C0
FE00
F000
C000
60C0
7F80
1F00
ENDCHAR
STARTCHAR uni1E17.ss01
ENCODING -1
SWIDTH 578 0
DWIDTH 12 0
BBX 10 17 1 0
BITMAP
0700
0E00
1F00
1F00
0000
0000
1E00
7F80
6180
C0C0
C7C0
FE00
F000
C000
60C0
7F80
1F00
ENDCHAR
STARTCHAR uni1E15.ss01
ENCODING -1
SWIDTH 578 0
DWIDTH 12 0
BBX 10 17 1 0
BITMAP
3000
1C00
3E00
3E00
0000
0000
1E00
7F80
6180
C0C0
C7C0
FE00
F000
C000
60C0
7F80
1F00
ENDCHAR
STARTCHAR eogonek.ss01
ENCODING -1
SWIDTH 578 0
DWIDTH 12 0
BBX 10 15 1 -4
BITMAP
1E00
7F80
6180
C0C0
C7C0
FE00
F000
C000
60C0
7F80
1F00
0600
0600
0700
0700
ENDCHAR
STARTCHAR uni1EBD.ss01
ENCODING -1
SWIDTH 578 0
DWIDTH 12 0
BBX 10 16 1 0
BITMAP
1100
3F00
2700
0000
0000
1E00
7F80
6180
C0C0
C7C0
FE00
F000
C000
60C0
7F80
1F00
ENDCHAR
STARTCHAR uni0259.ss01
ENCODING -1
SWIDTH 578 0
DWIDTH 12 0
BBX 10 11 1 0
BITMAP
3E00
7F00
C180
0180
03C0
1FC0
F0C0
8080
C180
7F00
3E00
ENDCHAR
STARTCHAR f.orig
ENCODING -1
SWIDTH 332 0
DWIDTH 7 0
BBX 7 15 1 0
BITMAP
3E
32
60
60
FC
FC
60
60
60
60
60
60
60
60
60
ENDCHAR
STARTCHAR f.ss01
ENCODING -1
SWIDTH 312 0
DWIDTH 6 0
BBX 5 15 2 0
BITMAP
78
F8
C0
80
F0
F0
80
80
80
80
80
80
80
80
80
ENDCHAR
STARTCHAR iacute_j.loclNLD
ENCODING -1
SWIDTH 547 0
DWIDTH 11 0
BBX 9 20 2 -4
BITMAP
4100
7380
C700
0000
0000
C600
C600
C600
C600
C600
C600
C600
C600
C600
C600
C600
0600
0600
1E00
3C00
ENDCHAR
STARTCHAR i.loclTRK
ENCODING -1
SWIDTH 274 0
DWIDTH 5 0
BBX 2 15 2 0
BITMAP
C0
C0
00
00
C0
C0
C0
C0
C0
C0
C0
C0
C0
C0
C0
ENDCHAR
STARTCHAR uni0237.orig
ENCODING -1
SWIDTH 262 0
DWIDTH 5 0
BBX 6 15 -2 -4
BITMAP
0C
0C
0C
0C
0C
0C
0C
0C
0C
0C
0C
0C
0C
F8
F0
ENDCHAR
STARTCHAR jacute
ENCODING -1
SWIDTH 263 0
DWIDTH 5 0
BBX 7 20 -1 -4
BITMAP
08
0E
18
00
00
18
18
18
18
18
18
18
18
18
18
18
18
18
F0
E0
ENDCHAR
STARTCHAR l.ss01
ENCODING -1
SWIDTH 298 0
DWIDTH 6 0
BBX 4 15 2 0
BITMAP
C0
C0
C0
C0
C0
C0
C0
C0
C0
C0
C0
C0
C0
F0
70
ENDCHAR
STARTCHAR lacute.ss01
ENCODING -1
SWIDTH 298 0
DWIDTH 6 0
BBX 4 20 2 0
BITMAP
40
70
C0
00
00
C0
C0
C0
C0
C0
C0
C0
C0
C0
C0
C0
C0
C0
F0
70
ENDCHAR
STARTCHAR lcaron.ss01
ENCODING -1
SWIDTH 335 0
DWIDTH 7 0
BBX 5 15 2 0
BITMAP
D8
D8
D8
D0
C0
C0
C0
C0
C0
C0
C0
C0
C0
F0
70
ENDCHAR
STARTCHAR lcommaaccent.ss01
ENCODING -1
SWIDTH 298 0
DWIDTH 6 0
BBX 4 19 2 -4
BITMAP
C0
C0
C0
C0
C0
C0
C0
C0
C0
C0
C0
C0
C0
F0
70
00
60
40
C0
ENDCHAR
STARTCHAR ldot.ss01
ENCODING -1
SWIDTH 298 0
DWIDTH 6 0
BBX 5 15 2 0
BITMAP
C0
C0
C0
C0
C0
C0
D8
D8
C0
C0
C0
C0
C0
F0
70
ENDCHAR
STARTCHAR uni1E37.ss01
ENCODING -1
SWIDTH 298 0
DWIDTH 6 0
BBX 4 19 2 -4
BITMAP
C0
C0
C0
C0
C0
C0
C0
C0
C0
C0
C0
C0
C0
F0
70
00
00
60
60
ENDCHAR
STARTCHAR uni01C9.ss01
ENCODING -1
SWIDTH 560 0
DWIDTH 11 0
BBX 8 19 2 -4
BITMAP
C7
C3
C0
C0
C3
C3
C3
C3
C3
C3
C3
C3
C3
F3
73
03
03
1E
1C
ENDCHAR
STARTCHAR uni1E3B.ss01
ENCODING -1
SWIDTH 298 0
DWIDTH 6 0
BBX 6 18 1 -3
BITMAP
60
60
60
60
60
60
60
60
60
60
60
60
60
78
38
00
FC
FC
ENDCHAR
STARTCHAR lslash.ss01
ENCODING -1
SWIDTH 376 0
DWIDTH 8 0
BBX 6 15 1 0
BITMAP
30
30
30
30
30
34
3C
70
F0
B0
30
30
30
3C
1C
ENDCHAR
STARTCHAR oe.ss01
ENCODING -1
SWIDTH 1027 0
DWIDTH 21 0
BBX 19 11 1 0
BITMAP
1E0F00
7F9FC0
60F0C0
C0E060
C063E0
C07F00
C07800
C0E000
60F060
7F9FC0
1E0F80
ENDCHAR
STARTCHAR t.ss01
ENCODING -1
SWIDTH 364 0
DWIDTH 7 0
BBX 5 14 2 0
BITMAP
80
80
80
F8
F8
80
80
80
80
80
80
C0
F8
70
ENDCHAR
STARTCHAR tbar.ss01
ENCODING -1
SWIDTH 364 0
DWIDTH 7 0
BBX 5 14 2 0
BITMAP
80
80
80
F8
F8
80
80
F8
F8
80
80
C0
F8
70
ENDCHAR
STARTCHAR tcaron.ss01
ENCODING -1
SWIDTH 364 0
DWIDTH 7 0
BBX 5 15 2 0
BITMAP
18
90
90
80
F8
F8
80
80
80
80
80
80
C0
F8
70
ENDCHAR
STARTCHAR uni0163.ss01
ENCODING -1
SWIDTH 364 0
DWIDTH 7 0
BBX 5 18 2 -4
BITMAP
80
80
80
F8
F8
80
80
80
80
80
80
C8
F8
70
20
30
78
70
ENDCHAR
STARTCHAR uni021B.ss01
ENCODING -1
SWIDTH 364 0
DWIDTH 7 0
BBX 5 18 2 -4
BITMAP
80
80
80
F8
F8
80
80
80
80
80
80
C0
F8
70
00
20
60
60
ENDCHAR
STARTCHAR uni1E97.ss01
ENCODING -1
SWIDTH 364 0
DWIDTH 7 0
BBX 7 17 0 0
BITMAP
48
EC
00
20
20
20
3E
3E
20
20
20
20
20
20
30
3E
1C
ENDCHAR
STARTCHAR uni1E6D.ss01
ENCODING -1
SWIDTH 364 0
DWIDTH 7 0
BBX 5 18 2 -4
BITMAP
80
80
80
F8
F8
80
80
80
80
80
80
C0
F8
70
00
00
70
30
ENDCHAR
STARTCHAR uni1E6F.ss01
ENCODING -1
SWIDTH 364 0
DWIDTH 7 0
BBX 5 17 2 -3
BITMAP
80
80
80
F8
F8
80
80
80
80
80
80
C0
F8
70
00
F8
F8
ENDCHAR
STARTCHAR w.ss01
ENCODING -1
SWIDTH 967 0
DWIDTH 19 0
BBX 17 11 1 0
BITMAP
C0C180
C0C180
C0C180
C0C180
C0C180
C0C180
C0C180
40C180
61C380
7F7F00
1E3E00
ENDCHAR
STARTCHAR wacute.ss01
ENCODING -1
SWIDTH 967 0
DWIDTH 19 0
BBX 17 16 1 0
BITMAP
004000
007000
00C000
000000
000000
C0C180
C0C180
C0C180
C0C180
C0C180
C0C180
C0C180
40C180
61C380
7F7F00
1E3E00
ENDCHAR
STARTCHAR wcircumflex.ss01
ENCODING -1
SWIDTH 967 0
DWIDTH 19 0
BBX 17 16 1 0
BITMAP
01C000
01E000
037000
000000
000000
C0C180
C0C180
C0C180
C0C180
C0C180
C0C180
C0C180
40C180
61C380
7F7F00
1E3E00
ENDCHAR
STARTCHAR wdieresis.ss01
ENCODING -1
SWIDTH 967 0
DWIDTH 19 0
BBX 17 15 1 0
BITMAP
032000
036000
000000
000000
C0C180
C0C180
C0C180
C0C180
C0C180
C0C180
C0C180
40C180
61C380
7F7F00
1E3E00
ENDCHAR
STARTCHAR wgrave.ss01
ENCODING -1
SWIDTH 967 0
DWIDTH 19 0
BBX 17 16 1 0
BITMAP
010000
030000
018000
004000
000000
C0C180
C0C180
C0C180
C0C180
C0C180
C0C180
C0C180
40C180
61C380
7F7F00
1E3E00
ENDCHAR
STARTCHAR y.ss01
ENCODING -1
SWIDTH 646 0
DWIDTH 13 0
BBX 10 15 1 -4
BITMAP
C0C0
C0C0
C0C0
C0C0
C0C0
C0C0
C0C0
61C0
7FC0
3EC0
00C0
00C0
40C0
7F80
1F00
ENDCHAR
STARTCHAR yacute.ss01
ENCODING -1
SWIDTH 646 0
DWIDTH 13 0
BBX 10 20 1 -4
BITMAP
0200
0300
0600
0800
0000
C0C0
C0C0
C0C0
C0C0
C0C0
C0C0
C0C0
61C0
7FC0
3EC0
00C0
00C0
40C0
7F80
1F00
ENDCHAR
STARTCHAR ycircumflex.ss01
ENCODING -1
SWIDTH 646 0
DWIDTH 13 0
BBX 10 20 1 -4
BITMAP
0E00
1E00
3B00
0000
0000
C0C0
C0C0
C0C0
C0C0
C0C0
C0C0
C0C0
61C0
7FC0
3EC0
00C0
00C0
40C0
7F80
1F00
ENDCHAR
STARTCHAR ydieresis.ss01
ENCODING -1
SWIDTH 646 0
DWIDTH 13 0
BBX 10 19 1 -4
BITMAP
1100
1B00
0000
0000
C0C0
C0C0
C0C0
C0C0
C0C0
C0C0
C0C0
61C0
7FC0
3EC0
00C0
00C0
40C0
7F80
1F00
ENDCHAR
STARTCHAR uni1EF5.ss01
ENCODING -1
SWIDTH 646 0
DWIDTH 13 0
BBX 10 19 1 -8
BITMAP
C0C0
C0C0
C0C0
C0C0
C0C0
C0C0
C0C0
61C0
7FC0
3EC0
00C0
00C0
40C0
7F80
1F00
0000
0000
0C00
0C00
ENDCHAR
STARTCHAR ygrave.ss01
ENCODING -1
SWIDTH 646 0
DWIDTH 13 0
BBX 10 20 1 -4
BITMAP
0800
3800
0C00
0000
0000
C0C0
C0C0
C0C0
C0C0
C0C0
C0C0
C0C0
61C0
7FC0
3EC0
00C0
00C0
40C0
7F80
1F00
ENDCHAR
STARTCHAR uni1EF7.ss01
ENCODING -1
SWIDTH 646 0
DWIDTH 13 0
BBX 10 21 1 -4
BITMAP
0400
0E00
0200
0600
0400
0000
C0C0
C0C0
C0C0
C0C0
C0C0
C0C0
C0C0
61C0
7FC0
3EC0
00C0
00C0
40C0
7F80
1F00
ENDCHAR
STARTCHAR uni0233.ss01
ENCODING -1
SWIDTH 646 0
DWIDTH 13 0
BBX 10 19 1 -4
BITMAP
1F00
1F00
0000
0000
C0C0
C0C0
C0C0
C0C0
C0C0
C0C0
C0C0
61C0
7FC0
3EC0
00C0
00C0
40C0
7F80
1F00
ENDCHAR
STARTCHAR uni1EF9.ss01
ENCODING -1
SWIDTH 646 0
DWIDTH 13 0
BBX 10 20 1 -4
BITMAP
1900
1F00
3700
0000
0000
C0C0
C0C0
C0C0
C0C0
C0C0
C0C0
C0C0
61C0
7FC0
3EC0
00C0
00C0
40C0
7F80
1F00
ENDCHAR
STARTCHAR z.ss01
ENCODING -1
SWIDTH 531 0
DWIDTH 11 0
BBX 9 11 1 0
BITMAP
FF80
FF80
0300
0600
7F00
7F00
3000
3000
6000
FF80
FF80
ENDCHAR
STARTCHAR zacute.ss01
ENCODING -1
SWIDTH 531 0
DWIDTH 11 0
BBX 9 16 1 0
BITMAP
0400
0700
0C00
1000
0000
FF80
FF80
0300
0600
7F00
7F00
3000
3000
6000
FF80
FF80
ENDCHAR
STARTCHAR zcaron.ss01
ENCODING -1
SWIDTH 531 0
DWIDTH 11 0
BBX 9 16 1 0
BITMAP
7700
3C00
1C00
0000
0000
FF80
FF80
0300
0600
7F00
7F00
3000
3000
6000
FF80
FF80
ENDCHAR
STARTCHAR zdotaccent.ss01
ENCODING -1
SWIDTH 531 0
DWIDTH 11 0
BBX 9 15 1 0
BITMAP
1C00
1800
0000
0000
FF80
FF80
0300
0600
7F00
7F00
3000
3000
6000
FF80
FF80
ENDCHAR
STARTCHAR uni1E93.ss01
ENCODING -1
SWIDTH 531 0
DWIDTH 11 0
BBX 9 15 1 -4
BITMAP
FF80
FF80
0300
0600
7F00
7F00
3000
3000
6000
FF80
FF80
0000
0000
1C00
1800
ENDCHAR
STARTCHAR T_h
ENCODING -1
SWIDTH 1139 0
DWIDTH 23 0
BBX 21 14 0 0
BITMAP
FFFC00
FFFC00
060C00
060DE0
060FF8
060E18
060C18
060C18
060C18
060C18
060C18
060C18
060C18
060C18
ENDCHAR
STARTCHAR fi.ss01
ENCODING -1
SWIDTH 586 0
DWIDTH 12 0
BBX 8 15 2 0
BITMAP
7B
FB
C0
80
F3
F3
83
83
83
83
83
83
83
83
83
ENDCHAR
STARTCHAR fl.ss01
ENCODING -1
SWIDTH 640 0
DWIDTH 13 0
BBX 12 17 1 -2
BITMAP
1F00
3F80
6180
6180
F980
F980
6180
6180
6180
6180
6180
6180
6180
6180
6180
00F0
00F0
ENDCHAR
STARTCHAR a.sc
ENCODING -1
SWIDTH 610 0
DWIDTH 12 0
BBX 12 11 0 0
BITMAP
0600
0F00
0F00
0980
1980
18C0
30C0
3FE0
7FE0
6060
C030
ENDCHAR
STARTCHAR a.sc.ss01
ENCODING -1
SWIDTH 659 0
DWIDTH 13 0
BBX 10 12 2 0
BITMAP
3E00
7F00
C180
C180
C0C0
C0C0
C0C0
FFC0
FFC0
C0C0
C0C0
C0C0
ENDCHAR
STARTCHAR aacute.sc
ENCODING -1
SWIDTH 610 0
DWIDTH 12 0
BBX 12 16 0 0
BITMAP
0100
0380
0700
0000
0000
0600
0F00
0F00
0980
1980
18C0
30C0
3FE0
7FE0
6060
C030
ENDCHAR
STARTCHAR aacute.sc.ss01
ENCODING -1
SWIDTH 659 0
DWIDTH 13 0
BBX 10 16 2 0
BITMAP
0400
0600
0C00
1000
3E00
7F00
C180
C180
C0C0
C0C0
C0C0
FFC0
FFC0
C0C0
C0C0
C0C0
ENDCHAR
STARTCHAR abreve.sc
ENCODING -1
SWIDTH 610 0
DWIDTH 12 0
BBX 12 15 0 0
BITMAP
1980
0F80
0F00
0000
0600
0F00
0F00
0980
1980
18C0
30C0
3FE0
7FE0
6060
C030
ENDCHAR
STARTCHAR abreve.sc.ss01
ENCODING -1
SWIDTH 659 0
DWIDTH 13 0
BBX 10 15 2 0
BITMAP
2200
3E00
1C00
3E00
7F00
C180
C180
C0C0
C0C0
C0C0
FFC0
FFC0
C0C0
C0C0
C0C0
ENDCHAR
STARTCHAR uni1EAF.sc
ENCODING -1
SWIDTH 610 0
DWIDTH 12 0
BBX 12 18 0 0
BITMAP
0380
0700
0200
1980
0F00
0600
0000
0600
0F00
0F00
0980
1980
18C0
30C0
3FE0
7FE0
6060
C030
ENDCHAR
STARTCHAR uni1EAF.sc.ss01
ENCODING -1
SWIDTH 659 0
DWIDTH 13 0
BBX 10 18 2 0
BITMAP
0600
1C00
0800
2200
3E00
0800
3E00
7F00
C180
C180
C0C0
C0C0
C0C0
FFC0
FFC0
C0C0
C0C0
C0C0
ENDCHAR
STARTCHAR uni1EB7.sc
ENCODING -1
SWIDTH 610 0
DWIDTH 12 0
BBX 12 19 0 -4
BITMAP
1980
0F80
0F00
0000
0600
0F00
0F00
0980
1980
18C0
30C0
3FE0
7FE0
6060
C030
0000
0000
0600
0600
ENDCHAR
STARTCHAR uni1EB7.sc.ss01
ENCODING -1
SWIDTH 659 0
DWIDTH 13 0
BBX 10 19 2 -4
BITMAP
2200
3E00
1C00
3E00
7F00
C180
C180
C0C0
C0C0
C0C0
FFC0
FFC0
C0C0
C0C0
C0C0
0000
0000
1C00
0C00
ENDCHAR
STARTCHAR uni1EB1.sc
ENCODING -1
SWIDTH 610 0
DWIDTH 12 0
BBX 12 18 0 0
BITMAP
1C00
0E00
0200
0980
0F00
0600
0000
0600
0F00
0F00
0980
1980
18C0
30C0
3FE0
7FE0
6060
C030
ENDCHAR
STARTCHAR uni1EB1.sc.ss01
ENCODING -1
SWIDTH 659 0
DWIDTH 13 0
BBX 10 18 2 0
BITMAP
3000
1C00
0800
3200
3E00
0C00
3E00
7F00
C180
C180
C0C0
C0C0
C0C0
FFC0
FFC0
C0C0
C0C0
C0C0
ENDCHAR
STARTCHAR uni1EB3.sc
ENCODING -1
SWIDTH 610 0
DWIDTH 12 0
BBX 12 19 0 0
BITMAP
0E00
0700
0200
0600
1980
0F00
0600
0000
0600
0F00
0F00
0980
1980
18C0
30C0
3FE0
7FE0
6060
C030
ENDCHAR
STARTCHAR uni1EB3.sc.ss01
ENCODING -1
SWIDTH 659 0
DWIDTH 13 0
BBX 10 19 2 0
BITMAP
1800
1C00
0C00
0800
2200
3E00
0C00
3E00
7F00
C180
C180
C0C0
C0C0
C0C0
FFC0
FFC0
C0C0
C0C0
C0C0
ENDCHAR
STARTCHAR uni1EB5.sc
ENCODING -1
SWIDTH 610 0
DWIDTH 12 0
BBX 12 17 0 0
BITMAP
1C80
1F80
1980
0F00
0600
0000
0600
0F00
0F00
0980
1980
18C0
30C0
3FE0
7FE0
6060
C030
ENDCHAR
STARTCHAR uni1EB5.sc.ss01
ENCODING -1
SWIDTH 659 0
DWIDTH 13 0
BBX 10 18 2 0
BITMAP
3B00
3E00
0000
2200
3E00
0800
3E00
7F00
C180
C180
C0C0
C0C0
C0C0
FFC0
FFC0
C0C0
C0C0
C0C0
ENDCHAR
STARTCHAR acircumflex.sc
ENCODING -1
SWIDTH 610 0
DWIDTH 12 0
BBX 12 15 0 0
BITMAP
0600
0F00
1980
0000
0600
0F00
0F00
0980
1980
18C0
30C0
3FE0
7FE0
6060
C030
ENDCHAR
STARTCHAR acircumflex.sc.ss01
ENCODING -1
SWIDTH 659 0
DWIDTH 13 0
BBX 10 15 2 0
BITMAP
0C00
1C00
3700
7E00
7F00
C180
C180
C0C0
C0C0
C0C0
FFC0
FFC0
C0C0
C0C0
C0C0
ENDCHAR
STARTCHAR uni1EA5.sc
ENCODING -1
SWIDTH 610 0
DWIDTH 12 0
BBX 12 18 0 0
BITMAP
0180
0700
0200
0000
0F00
19C0
0000
0600
0F00
0F00
0980
1980
18C0
30C0
3FE0
7FE0
6060
C030
ENDCHAR
STARTCHAR uni1EA5.sc.ss01
ENCODING -1
SWIDTH 659 0
DWIDTH 13 0
BBX 10 18 2 0
BITMAP
0600
1C00
0800
0000
1C00
7700
3E00
7F00
C180
C180
C0C0
C0C0
C0C0
FFC0
FFC0
C0C0
C0C0
C0C0
ENDCHAR
STARTCHAR uni1EAD.sc
ENCODING -1
SWIDTH 610 0
DWIDTH 12 0
BBX 12 19 0 -4
BITMAP
0600
0F00
1980
0000
0600
0F00
0F00
0980
1980
18C0
30C0
3FE0
7FE0
6060
C030
0000
0000
0600
0600
ENDCHAR
STARTCHAR uni1EAD.sc.ss01
ENCODING -1
SWIDTH 659 0
DWIDTH 13 0
BBX 10 19 2 -4
BITMAP
0C00
1C00
3700
7E00
7F00
C180
C180
C0C0
C0C0
C0C0
FFC0
FFC0
C0C0
C0C0
C0C0
0000
0000
1C00
0C00
ENDCHAR
STARTCHAR uni1EA7.sc
ENCODING -1
SWIDTH 610 0
DWIDTH 12 0
BBX 12 18 0 0
BITMAP
1800
0E00
0400
0000
0F00
1980
0000
0600
0F00
0F00
0980
1980
18C0
30C0
3FE0
7FE0
6060
C030
ENDCHAR
STARTCHAR uni1EA7.sc.ss01
ENCODING -1
SWIDTH 659 0
DWIDTH 13 0
BBX 10 18 2 0
BITMAP
3000
1C00
0800
0000
1C00
7700
3E00
7F00
C180
C180
C0C0
C0C0
C0C0
FFC0
FFC0
C0C0
C0C0
C0C0
ENDCHAR
STARTCHAR uni1EA9.sc
ENCODING -1
SWIDTH 610 0
DWIDTH 12 0
BBX 12 19 0 0
BITMAP
0E00
0700
0200
0600
0000
0F00
1980
0000
0600
0F00
0F00
0980
1980
18C0
30C0
3FE0
7FE0
6060
C030
ENDCHAR
STARTCHAR uni1EA9.sc.ss01
ENCODING -1
SWIDTH 659 0
DWIDTH 13 0
BBX 10 19 2 0
BITMAP
1800
1C00
0C00
0800
0000
1C00
7700
3E00
7F00
C180
C180
C0C0
C0C0
C0C0
FFC0
FFC0
C0C0
C0C0
C0C0
ENDCHAR
STARTCHAR uni1EAB.sc
ENCODING -1
SWIDTH 610 0
DWIDTH 12 0
BBX 12 17 0 0
BITMAP
1C80
1F80
0000
0F00
19C0
0000
0600
0F00
0F00
0980
1980
18C0
30C0
3FE0
7FE0
6060
C030
ENDCHAR
STARTCHAR uni1EAB.sc.ss01
ENCODING -1
SWIDTH 659 0
DWIDTH 13 0
BBX 10 17 2 0
BITMAP
3B00
3E00
0000
1C00
7700
3E00
7F00
C180
C180
C0C0
C0C0
C0C0
FFC0
FFC0
C0C0
C0C0
C0C0
ENDCHAR
STARTCHAR uni0201.sc
ENCODING -1
SWIDTH 610 0
DWIDTH 12 0
BBX 12 16 0 0
BITMAP
1200
3F00
1B00
0480
0000
0600
0F00
0F00
0980
1980
18C0
30C0
3FE0
7FE0
6060
C030
ENDCHAR
STARTCHAR uni0201.sc.ss01
ENCODING -1
SWIDTH 659 0
DWIDTH 13 0
BBX 10 16 2 0
BITMAP
2400
6C00
3600
0000
3E00
7F00
C180
C180
C0C0
C0C0
C0C0
FFC0
FFC0
C0C0
C0C0
C0C0
ENDCHAR
STARTCHAR adieresis.alt.sc
ENCODING -1
SWIDTH 610 0
DWIDTH 12 0
BBX 12 15 0 0
BITMAP
0900
1980
0000
0000
0600
0F00
0F00
0980
1980
18C0
30C0
3FE0
7FE0
6060
C030
ENDCHAR
STARTCHAR adieresis.sc
ENCODING -1
SWIDTH 610 0
DWIDTH 12 0
BBX 12 15 0 0
BITMAP
0900
1980
0000
0000
0600
0F00
0F00
0980
1980
18C0
30C0
3FE0
7FE0
6060
C030
ENDCHAR
STARTCHAR adieresis.sc.ss01
ENCODING -1
SWIDTH 659 0
DWIDTH 13 0
BBX 10 15 2 0
BITMAP
3200
3600
0000
3E00
7F00
C180
C180
C0C0
C0C0
C0C0
FFC0
FFC0
C0C0
C0C0
C0C0
ENDCHAR
STARTCHAR uni1EA1.sc
ENCODING -1
SWIDTH 610 0
DWIDTH 12 0
BBX 12 15 0 -4
BITMAP
0600
0F00
0F00
0980
1980
18C0
30C0
3FE0
7FE0
6060
C030
0000
0000
0600
0600
ENDCHAR
STARTCHAR uni1EA1.sc.ss01
ENCODING -1
SWIDTH 659 0
DWIDTH 13 0
BBX 10 16 2 -4
BITMAP
3E00
7F00
C180
C180
C0C0
C0C0
C0C0
FFC0
FFC0
C0C0
C0C0
C0C0
0000
0000
1C00
0C00
ENDCHAR
STARTCHAR agrave.sc
ENCODING -1
SWIDTH 610 0
DWIDTH 12 0
BBX 12 16 0 0
BITMAP
0400
1C00
0600
0000
0000
0600
0F00
0F00
0980
1980
18C0
30C0
3FE0
7FE0
6060
C030
ENDCHAR
STARTCHAR agrave.sc.ss01
ENCODING -1
SWIDTH 659 0
DWIDTH 13 0
BBX 10 16 2 0
BITMAP
1000
3000
1C00
0000
3E00
7F00
C180
C180
C0C0
C0C0
C0C0
FFC0
FFC0
C0C0
C0C0
C0C0
ENDCHAR
STARTCHAR uni1EA3.sc
ENCODING -1
SWIDTH 610 0
DWIDTH 12 0
BBX 12 16 0 0
BITMAP
0600
0F00
0300
0200
0600
0600
0F00
0F00
0980
1980
18C0
30C0
3FE0
7FE0
6060
C030
ENDCHAR
STARTCHAR uni1EA3.sc.ss01
ENCODING -1
SWIDTH 659 0
DWIDTH 13 0
BBX 10 16 2 0
BITMAP
0800
1C00
0400
0400
3E00
7F00
C180
C180
C0C0
C0C0
C0C0
FFC0
FFC0
C0C0
C0C0
C0C0
ENDCHAR
STARTCHAR uni0203.sc
ENCODING -1
SWIDTH 610 0
DWIDTH 12 0
BBX 12 16 0 0
BITMAP
0600
0F00
0980
1000
0000
0600
0F00
0F00
0980
1980
18C0
30C0
3FE0
7FE0
6060
C030
ENDCHAR
STARTCHAR uni0203.sc.ss01
ENCODING -1
SWIDTH 659 0
DWIDTH 13 0
BBX 10 16 2 0
BITMAP
0C00
3E00
3200
0000
3E00
7F00
C180
C180
C0C0
C0C0
C0C0
FFC0
FFC0
C0C0
C0C0
C0C0
ENDCHAR
STARTCHAR amacron.sc
ENCODING -1
SWIDTH 610 0
DWIDTH 12 0
BBX 12 15 0 0
BITMAP
1F80
1F80
0000
0000
0600
0F00
0F00
0980
1980
18C0
30C0
3FE0
7FE0
6060
C030
ENDCHAR
STARTCHAR amacron.sc.ss01
ENCODING -1
SWIDTH 659 0
DWIDTH 13 0
BBX 10 15 2 0
BITMAP
3E00
3E00
0000
3E00
7F00
C180
C180
C0C0
C0C0
C0C0
FFC0
FFC0
C0C0
C0C0
C0C0
ENDCHAR
STARTCHAR aogonek.sc
ENCODING -1
SWIDTH 610 0
DWIDTH 12 0
BBX 12 16 0 -5
BITMAP
0600
0F00
0F00
0980
1980
18C0
30C0
3FE0
7FE0
6060
C030
0060
0040
00C0
0070
0030
ENDCHAR
STARTCHAR aogonek.sc.ss01
ENCODING -1
SWIDTH 659 0
DWIDTH 13 0
BBX 10 17 2 -4
BITMAP
1C00
7F00
E380
C180
C080
C0C0
C0C0
C0C0
FFC0
FFC0
C0C0
C0C0
C0C0
0180
0300
0380
03C0
ENDCHAR
STARTCHAR aring.sc
ENCODING -1
SWIDTH 610 0
DWIDTH 12 0
BBX 12 17 0 0
BITMAP
0600
0900
0900
0600
0000
0000
0600
0F00
0F00
0980
1980
18C0
30C0
3FE0
7FE0
6060
C030
ENDCHAR
STARTCHAR aring.sc.ss01
ENCODING -1
SWIDTH 659 0
DWIDTH 13 0
BBX 10 17 2 0
BITMAP
1C00
1200
3200
1C00
0000
3E00
7F00
C180
C180
C0C0
C0C0
C0C0
FFC0
FFC0
C0C0
C0C0
C0C0
ENDCHAR
STARTCHAR aringacute.sc
ENCODING -1
SWIDTH 610 0
DWIDTH 12 0
BBX 12 20 0 0
BITMAP
0180
0700
0200
0600
0900
0900
0600
0000
0000
0600
0F00
0F00
0980
1980
18C0
30C0
3FE0
7FE0
6060
C030
ENDCHAR
STARTCHAR aringacute.sc.ss01
ENCODING -1
SWIDTH 659 0
DWIDTH 13 0
BBX 10 20 2 0
BITMAP
0600
1C00
0800
1C00
1200
3200
1C00
0000
3E00
7F00
C180
C180
C0C0
C0C0
C0C0
FFC0
FFC0
C0C0
C0C0
C0C0
ENDCHAR
STARTCHAR atilde.sc
ENCODING -1
SWIDTH 610 0
DWIDTH 12 0
BBX 12 14 0 0
BITMAP
1E80
1F80
0000
0600
0F00
0F00
0980
1980
18C0
30C0
3FE0
7FE0
6060
C030
ENDCHAR
STARTCHAR atilde.sc.ss01
ENCODING -1
SWIDTH 659 0
DWIDTH 13 0
BBX 10 14 2 0
BITMAP
3B00
3E00
7E00
7F00
C180
C180
C0C0
C0C0
C0C0
FFC0
FFC0
C0C0
C0C0
C0C0
ENDCHAR
STARTCHAR ae.sc
ENCODING -1
SWIDTH 864 0
DWIDTH 17 0
BBX 16 11 0 0
BITMAP
03FF
03FF
06C0
0CC0
0CFE
18FE
1FC0
3FC0
60C0
60FF
C0FF
ENDCHAR
STARTCHAR aeacute.sc
ENCODING -1
SWIDTH 864 0
DWIDTH 17 0
BBX 16 16 0 0
BITMAP
0010
0038
0070
0000
0000
03FF
03FF
06C0
0CC0
0CFE
18FE
1FC0
3FC0
60C0
60FF
C0FF
ENDCHAR
STARTCHAR b.sc
ENCODING -1
SWIDTH 626 0
DWIDTH 13 0
BBX 9 11 2 0
BITMAP
FE00
FF80
C180
C180
FF00
FF00
C180
C180
C180
FF80
FF00
ENDCHAR
STARTCHAR c.sc
ENCODING -1
SWIDTH 592 0
DWIDTH 12 0
BBX 10 11 1 0
BITMAP
1F00
3FC0
60C0
C000
C000
C000
C000
C000
6040
3FC0
1F00
ENDCHAR
STARTCHAR cacute.sc
ENCODING -1
SWIDTH 592 0
DWIDTH 12 0
BBX 10 16 1 0
BITMAP
0200
0380
0600
0000
0000
1F00
3FC0
60C0
C000
C000
C000
C000
C000
6040
3FC0
1F00
ENDCHAR
STARTCHAR ccaron.sc
ENCODING -1
SWIDTH 592 0
DWIDTH 12 0
BBX 10 15 1 0
BITMAP
1980
0F00
0600
0000
1F00
3FC0
60C0
C000
C000
C000
C000
C000
6040
3FC0
1F00
ENDCHAR
STARTCHAR ccedilla.sc
ENCODING -1
SWIDTH 592 0
DWIDTH 12 0
BBX 10 16 1 -5
BITMAP
1F00
3FC0
60C0
E000
C000
C000
C000
C000
6000
70C0
3F80
0400
0600
0300
0F00
0E00
ENDCHAR
STARTCHAR uni1E09.sc
ENCODING -1
SWIDTH 592 0
DWIDTH 12 0
BBX 10 20 1 -5
BITMAP
0200
0700
0C00
0000
1F00
3FC0
60C0
E000
C000
C000
C000
C000
6000
70C0
3F80
0400
0600
0300
0F00
0E00
ENDCHAR
STARTCHAR ccircumflex.sc
ENCODING -1
SWIDTH 592 0
DWIDTH 12 0
BBX 10 15 1 0
BITMAP
0600
0F00
1980
0000
1F00
3FC0
60C0
C000
C000
C000
C000
C000
6040
3FC0
1F00
ENDCHAR
STARTCHAR cdotaccent.sc
ENCODING -1
SWIDTH 592 0
DWIDTH 12 0
BBX 10 14 1 0
BITMAP
0600
0600
0000
1F00
3FC0
60C0
C000
C000
C000
C000
C000
6040
3FC0
1F00
ENDCHAR
STARTCHAR d.sc
ENCODING -1
SWIDTH 679 0
DWIDTH 14 0
BBX 11 11 2 0
BITMAP
FE00
FF80
C1C0
C0C0
C060
C060
C060
C0C0
C1C0
FF80
FE00
ENDCHAR
STARTCHAR eth.sc
ENCODING -1
SWIDTH 679 0
DWIDTH 14 0
BBX 12 11 1 0
BITMAP
7F00
7FC0
60E0
6060
6030
FC30
6030
6060
60E0
7FC0
7F00
ENDCHAR
STARTCHAR dcaron.sc
ENCODING -1
SWIDTH 679 0
DWIDTH 14 0
BBX 11 15 2 0
BITMAP
6600
3600
1C00
0000
FE00
FF80
C1C0
C0C0
C060
C060
C060
C0C0
C1C0
FF80
FE00
ENDCHAR
STARTCHAR dcroat.sc
ENCODING -1
SWIDTH 689 0
DWIDTH 14 0
BBX 12 11 1 0
BITMAP
7F00
7FC0
60E0
6060
6030
FC30
6030
6060
60E0
7FC0
7F00
ENDCHAR
STARTCHAR uni1E0D.sc
ENCODING -1
SWIDTH 679 0
DWIDTH 14 0
BBX 11 15 2 -4
BITMAP
FE00
FF80
C1C0
C0C0
C060
C060
C060
C0C0
C1C0
FF80
FE00
0000
0000
1C00
0C00
ENDCHAR
STARTCHAR uni1E0F.sc
ENCODING -1
SWIDTH 679 0
DWIDTH 14 0
BBX 11 14 2 -3
BITMAP
FE00
FF80
C1C0
C0C0
C060
C060
C060
C0C0
C1C0
FF80
FE00
0000
3E00
3E00
ENDCHAR
STARTCHAR uni01C6.sc
ENCODING -1
SWIDTH 1223 0
DWIDTH 24 0
BBX 22 15 2 0
BITMAP
000330
0001E0
0000C0
000000
FE0FFC
FF8FFC
C1C018
C0C030
C06060
C060C0
C06180
C0C300
C1C600
FF8FFC
FE0FFC
ENDCHAR
STARTCHAR uni01C6.sc.ss01
ENCODING -1
SWIDTH 1251 0
DWIDTH 25 0
BBX 22 15 2 0
BITMAP
000310
0001B0
0000E0
0007FC
FE07FC
FF8018
C1C038
C0C070
C063F8
C063F8
C06180
C0C380
C1C700
FF87FC
FE0FFC
ENDCHAR
STARTCHAR e.sc
ENCODING -1
SWIDTH 568 0
DWIDTH 11 0
BBX 8 11 2 0
BITMAP
FF
FF
C0
C0
FF
FF
C0
C0
C0
FF
FF
ENDCHAR
STARTCHAR e.sc.ss01
ENCODING -1
SWIDTH 522 0
DWIDTH 10 0
BBX 9 12 1 0
BITMAP
3F00
7F00
6000
4000
6000
3E00
7E00
C000
C000
C080
7F80
3F00
ENDCHAR
STARTCHAR eacute.sc
ENCODING -1
SWIDTH 568 0
DWIDTH 11 0
BBX 8 16 2 0
BITMAP
04
0E
1C
00
00
FF
FF
C0
C0
FF
FF
C0
C0
C0
FF
FF
ENDCHAR
STARTCHAR eacute.sc.ss01
ENCODING -1
SWIDTH 522 0
DWIDTH 10 0
BBX 9 16 1 0
BITMAP
0400
0700
0C00
0000
3F00
7F00
6000
4000
6000
3E00
7E00
C000
C000
C080
7F80
3F00
ENDCHAR
STARTCHAR ebreve.sc
ENCODING -1
SWIDTH 568 0
DWIDTH 11 0
BBX 8 15 2 0
BITMAP
22
3E
1C
00
FF
FF
C0
C0
FF
FF
C0
C0
C0
FF
FF
ENDCHAR
STARTCHAR ebreve.sc.ss01
ENCODING -1
SWIDTH 522 0
DWIDTH 10 0
BBX 9 15 1 0
BITMAP
3300
3E00
1E00
3F00
7F00
6000
4000
6000
3E00
7E00
C000
C000
C080
7F80
3F00
ENDCHAR
STARTCHAR ecaron.sc
ENCODING -1
SWIDTH 568 0
DWIDTH 11 0
BBX 8 15 2 0
BITMAP
66
3C
1C
00
FF
FF
C0
C0
FF
FF
C0
C0
C0
FF
FF
ENDCHAR
STARTCHAR ecaron.sc.ss01
ENCODING -1
SWIDTH 522 0
DWIDTH 10 0
BBX 9 15 1 0
BITMAP
3300
1E00
1C00
3F00
7F00
6000
4000
6000
3E00
7E00
C000
C000
C080
7F80
3F00
ENDCHAR
STARTCHAR uni1E1D.sc
ENCODING -1
SWIDTH 568 0
DWIDTH 11 0
BBX 8 21 2 -5
BITMAP
66
26
3C
18
00
FF
FF
C0
C0
FF
FF
C0
C0
C0
FF
FF
08
1C
04
3C
18
ENDCHAR
STARTCHAR uni1E1D.sc.ss01
ENCODING -1
SWIDTH 522 0
DWIDTH 10 0
BBX 9 21 1 -4
BITMAP
2200
2200
3600
1E00
1C00
7F00
6100
4000
6000
3E00
3E00
6000
C000
C000
E080
7F80
3F00
0800
0600
1E00
1C00
ENDCHAR
STARTCHAR ecircumflex.sc
ENCODING -1
SWIDTH 568 0
DWIDTH 11 0
BBX 8 15 2 0
BITMAP
18
3C
66
00
FF
FF
C0
C0
FF
FF
C0
C0
C0
FF
FF
ENDCHAR
STARTCHAR ecircumflex.sc.ss01
ENCODING -1
SWIDTH 522 0
DWIDTH 10 0
BBX 9 15 1 0
BITMAP
0C00
1E00
3300
3F00
7F00
6000
4000
6000
3E00
7E00
C000
C000
C080
7F80
3F00
ENDCHAR
STARTCHAR uni1EBF.sc
ENCODING -1
SWIDTH 568 0
DWIDTH 11 0
BBX 8 18 2 0
BITMAP
06
1C
08
00
3C
67
00
FF
FF
C0
C0
FF
FF
C0
C0
C0
FF
FF
ENDCHAR
STARTCHAR uni1EBF.sc.ss01
ENCODING -1
SWIDTH 522 0
DWIDTH 10 0
BBX 9 18 1 0
BITMAP
0700
0E00
1800
0000
1E00
7300
3F00
7F00
6000
4000
6000
3E00
7E00
C000
C000
C080
7F80
3F00
ENDCHAR
STARTCHAR uni1EC7.sc
ENCODING -1
SWIDTH 568 0
DWIDTH 11 0
BBX 8 19 2 -4
BITMAP
18
3C
66
00
FF
FF
C0
C0
FF
FF
C0
C0
C0
FF
FF
00
00
18
18
ENDCHAR
STARTCHAR uni1EC7.sc.ss01
ENCODING -1
SWIDTH 522 0
DWIDTH 10 0
BBX 9 19 1 -4
BITMAP
0C00
1E00
3600
3F00
7F00
6000
4000
6000
3E00
7E00
C000
C000
C080
7F80
3F00
0000
0000
0C00
0C00
ENDCHAR
STARTCHAR uni1EC1.sc
ENCODING -1
SWIDTH 568 0
DWIDTH 11 0
BBX 8 18 2 0
BITMAP
70
38
10
00
3C
67
00
FF
FF
C0
C0
FF
FF
C0
C0
C0
FF
FF
ENDCHAR
STARTCHAR uni1EC1.sc.ss01
ENCODING -1
SWIDTH 522 0
DWIDTH 10 0
BBX 9 18 1 0
BITMAP
3000
1C00
0800
0000
1E00
7300
3F00
7F00
6000
4000
6000
3E00
7E00
C000
C000
C080
7F80
3F00
ENDCHAR
STARTCHAR uni1EC3.sc
ENCODING -1
SWIDTH 568 0
DWIDTH 11 0
BBX 8 19 2 0
BITMAP
38
1C
08
18
00
3C
67
00
FF
FF
C0
C0
FF
FF
C0
C0
C0
FF
FF
ENDCHAR
STARTCHAR uni1EC3.sc.ss01
ENCODING -1
SWIDTH 522 0
DWIDTH 10 0
BBX 9 19 1 0
BITMAP
0C00
1C00
0400
0C00
0000
1E00
7300
3F00
7F00
6000
4000
6000
3E00
7E00
C000
C000
C080
7F80
3F00
ENDCHAR
STARTCHAR uni1EC5.sc
ENCODING -1
SWIDTH 568 0
DWIDTH 11 0
BBX 8 17 2 0
BITMAP
32
7E
00
3C
67
00
FF
FF
C0
C0
FF
FF
C0
C0
C0
FF
FF
ENDCHAR
STARTCHAR uni1EC5.sc.ss01
ENCODING -1
SWIDTH 522 0
DWIDTH 10 0
BBX 9 17 1 0
BITMAP
3900
3F00
0000
1E00
7300
3F00
7F00
6000
4000
6000
3E00
7E00
C000
C000
C080
7F80
3F00
ENDCHAR
STARTCHAR uni0205.sc
ENCODING -1
SWIDTH 568 0
DWIDTH 11 0
BBX 8 16 2 0
BITMAP
48
FC
64
12
00
FF
FF
C0
C0
FF
FF
C0
C0
C0
FF
FF
ENDCHAR
STARTCHAR uni0205.sc.ss01
ENCODING -1
SWIDTH 522 0
DWIDTH 10 0
BBX 9 16 1 0
BITMAP
2400
6C00
3600
0000
3F00
7F00
6000
4000
6000
3E00
7E00
C000
C000
C080
7F80
3F00
ENDCHAR
STARTCHAR edieresis.sc
ENCODING -1
SWIDTH 568 0
DWIDTH 11 0
BBX 8 15 2 0
BITMAP
26
76
00
00
FF
FF
C0
C0
FF
FF
C0
C0
C0
FF
FF
ENDCHAR
STARTCHAR edieresis.sc.ss01
ENCODING -1
SWIDTH 522 0
DWIDTH 10 0
BBX 9 15 1 0
BITMAP
3200
3700
0000
3F00
7F00
6000
4000
6000
3E00
7E00
C000
C000
C080
7F80
3F00
ENDCHAR
STARTCHAR edotaccent.sc
ENCODING -1
SWIDTH 568 0
DWIDTH 11 0
BBX 8 14 2 0
BITMAP
18
18
00
FF
FF
C0
C0
FF
FF
C0
C0
C0
FF
FF
ENDCHAR
STARTCHAR edotaccent.sc.ss01
ENCODING -1
SWIDTH 522 0
DWIDTH 10 0
BBX 9 14 1 0
BITMAP
0C00
0C00
3F00
7F00
6000
4000
6000
3E00
7E00
C000
C000
C080
7F80
3F00
ENDCHAR
STARTCHAR uni1EB9.sc
ENCODING -1
SWIDTH 568 0
DWIDTH 11 0
BBX 8 15 2 -4
BITMAP
FF
FF
C0
C0
FF
FF
C0
C0
C0
FF
FF
00
00
18
18
ENDCHAR
STARTCHAR uni1EB9.sc.ss01
ENCODING -1
SWIDTH 522 0
DWIDTH 10 0
BBX 9 16 1 -4
BITMAP
3F00
7F00
6000
4000
6000
3E00
7E00
C000
C000
C080
7F80
3F00
0000
0000
0C00
0C00
ENDCHAR
STARTCHAR egrave.sc
ENCODING -1
SWIDTH 568 0
DWIDTH 11 0
BBX 8 16 2 0
BITMAP
10
70
18
00
00
FF
FF
C0
C0
FF
FF
C0
C0
C0
FF
FF
ENDCHAR
STARTCHAR egrave.sc.ss01
ENCODING -1
SWIDTH 522 0
DWIDTH 10 0
BBX 9 16 1 0
BITMAP
1000
3800
1C00
0000
3F00
7F00
6000
4000
6000
3E00
7E00
C000
C000
C080
7F80
3F00
ENDCHAR
STARTCHAR uni1EBB.sc
ENCODING -1
SWIDTH 568 0
DWIDTH 11 0
BBX 8 16 2 0
BITMAP
18
3C
0C
0C
08
FF
FF
C0
C0
FF
FF
C0
C0
C0
FF
FF
ENDCHAR
STARTCHAR uni1EBB.sc.ss01
ENCODING -1
SWIDTH 522 0
DWIDTH 10 0
BBX 9 16 1 0
BITMAP
0C00
1E00
0600
0400
3F00
7F00
6000
4000
6000
3E00
7E00
C000
C000
C080
7F80
3F00
ENDCHAR
STARTCHAR uni0207.sc
ENCODING -1
SWIDTH 568 0
DWIDTH 11 0
BBX 8 16 2 0
BITMAP
18
3C
26
00
00
FF
FF
C0
C0
FF
FF
C0
C0
C0
FF
FF
ENDCHAR
STARTCHAR uni0207.sc.ss01
ENCODING -1
SWIDTH 522 0
DWIDTH 10 0
BBX 9 16 1 0
BITMAP
0C00
1E00
3200
0100
3F00
7F00
6000
4000
6000
3E00
7E00
C000
C000
C080
7F80
3F00
ENDCHAR
STARTCHAR emacron.sc
ENCODING -1
SWIDTH 568 0
DWIDTH 11 0
BBX 8 15 2 0
BITMAP
7E
7E
00
00
FF
FF
C0
C0
FF
FF
C0
C0
C0
FF
FF
ENDCHAR
STARTCHAR emacron.sc.ss01
ENCODING -1
SWIDTH 522 0
DWIDTH 10 0
BBX 9 15 1 0
BITMAP
3F00
3F00
0000
3F00
7F00
6000
4000
6000
3E00
7E00
C000
C000
C080
7F80
3F00
ENDCHAR
STARTCHAR uni1E17.sc
ENCODING -1
SWIDTH 568 0
DWIDTH 11 0
BBX 8 17 2 0
BITMAP
0E
1C
3C
3C
00
00
FF
FF
C0
C0
FF
FF
C0
C0
C0
FF
FF
ENDCHAR
STARTCHAR uni1E17.sc.ss01
ENCODING -1
SWIDTH 522 0
DWIDTH 10 0
BBX 9 18 1 0
BITMAP
0600
0E00
1800
3E00
3E00
0000
3F00
7F00
6000
4000
6000
3E00
7E00
C000
C000
C080
7F80
3F00
ENDCHAR
STARTCHAR uni1E15.sc
ENCODING -1
SWIDTH 568 0
DWIDTH 11 0
BBX 8 17 2 0
BITMAP
70
38
3E
3E
00
00
FF
FF
C0
C0
FF
FF
C0
C0
C0
FF
FF
ENDCHAR
STARTCHAR uni1E15.sc.ss01
ENCODING -1
SWIDTH 522 0
DWIDTH 10 0
BBX 9 18 1 0
BITMAP
3000
1C00
0800
1F00
1F00
0000
3F00
7F00
6000
4000
6000
3E00
7E00
C000
C000
C080
7F80
3F00
ENDCHAR
STARTCHAR eogonek.sc
ENCODING -1
SWIDTH 568 0
DWIDTH 11 0
BBX 8 16 2 -5
BITMAP
FF
FF
C0
C0
FF
FF
C0
C0
C0
FF
FF
03
06
04
07
03
ENDCHAR
STARTCHAR eogonek.sc.ss01
ENCODING -1
SWIDTH 522 0
DWIDTH 10 0
BBX 9 17 1 -4
BITMAP
1C00
7F00
6100
4000
6000
3E00
3E00
6000
C000
C000
E080
7F80
3F00
0200
0600
0700
0380
ENDCHAR
STARTCHAR uni1EBD.sc
ENCODING -1
SWIDTH 568 0
DWIDTH 11 0
BBX 8 14 2 0
BITMAP
3A
7E
00
FF
FF
C0
C0
FF
FF
C0
C0
C0
FF
FF
ENDCHAR
STARTCHAR uni1EBD.sc.ss01
ENCODING -1
SWIDTH 522 0
DWIDTH 10 0
BBX 9 14 1 0
BITMAP
3B00
3F00
3F00
7F00
6000
4000
6000
3E00
7E00
C000
C000
C080
7F80
3F00
ENDCHAR
STARTCHAR uni0259.sc
ENCODING -1
SWIDTH 667 0
DWIDTH 13 0
BBX 12 11 1 0
BITMAP
1F00
7FC0
20E0
0060
FFE0
FFF0
C060
C060
60E0
3FC0
1F00
ENDCHAR
STARTCHAR uni0259.sc.ss01
ENCODING -1
SWIDTH 648 0
DWIDTH 13 0
BBX 11 12 1 0
BITMAP
1F00
7F80
60C0
0060
00E0
07E0
1E60
F060
C060
60C0
7F80
1F00
ENDCHAR
STARTCHAR f.sc
ENCODING -1
SWIDTH 514 0
DWIDTH 10 0
BBX 8 11 2 0
BITMAP
FF
FF
C0
C0
C0
FE
FE
C0
C0
C0
C0
ENDCHAR
STARTCHAR f.sc.ss01
ENCODING -1
SWIDTH 478 0
DWIDTH 10 0
BBX 7 12 2 0
BITMAP
7E
FE
C2
C0
C0
C0
FC
FC
C0
C0
C0
C0
ENDCHAR
STARTCHAR g.sc
ENCODING -1
SWIDTH 640 0
DWIDTH 13 0
BBX 10 11 1 0
BITMAP
1F80
3FC0
6040
C000
C000
C000
C040
C040
6040
3FC0
1F80
ENDCHAR
STARTCHAR g.sc.ss01
ENCODING -1
SWIDTH 646 0
DWIDTH 13 0
BBX 10 12 1 0
BITMAP
0F80
3FC0
7040
E000
C000
C000
C040
C040
E040
70C0
3FC0
1F40
ENDCHAR
STARTCHAR gbreve.sc
ENCODING -1
SWIDTH 640 0
DWIDTH 13 0
BBX 10 15 1 0
BITMAP
1100
1F00
0E00
0000
1F80
3FC0
6040
C000
C000
C000
C040
C040
6040
3FC0
1F80
ENDCHAR
STARTCHAR gbreve.sc.ss01
ENCODING -1
SWIDTH 646 0
DWIDTH 13 0
BBX 10 15 1 0
BITMAP
1100
1F00
0E00
0F80
3FC0
7040
E000
C000
C000
C040
C040
E040
70C0
3FC0
1F40
ENDCHAR
STARTCHAR gcaron.sc
ENCODING -1
SWIDTH 640 0
DWIDTH 13 0
BBX 10 15 1 0
BITMAP
1980
1B00
0E00
0000
1F80
3FC0
6040
C000
C000
C000
C040
C040
6040
3FC0
1F80
ENDCHAR
STARTCHAR gcaron.sc.ss01
ENCODING -1
SWIDTH 646 0
DWIDTH 13 0
BBX 10 15 1 0
BITMAP
1180
1B00
0E00
0F80
3FC0
7040
E000
C000
C000
C040
C040
E040
70C0
3FC0
1F40
ENDCHAR
STARTCHAR gcircumflex.sc
ENCODING -1
SWIDTH 640 0
DWIDTH 13 0
BBX 10 15 1 0
BITMAP
0600
0F00
1B80
0000
1F80
3FC0
6040
C000
C000
C000
C040
C040
6040
3FC0
1F80
ENDCHAR
STARTCHAR gcircumflex.sc.ss01
ENCODING -1
SWIDTH 646 0
DWIDTH 13 0
BBX 10 15 1 0
BITMAP
0600
0E00
1B00
0F80
3FC0
7040
E000
C000
C000
C040
C040
E040
70C0
3FC0
1F40
ENDCHAR
STARTCHAR gcommaaccent.sc
ENCODING -1
SWIDTH 640 0
DWIDTH 13 0
BBX 10 15 1 -4
BITMAP
1F80
3FC0
6040
C000
C000
C000
C040
C040
6040
3FC0
1F80
0000
0600
0C00
0C00
ENDCHAR
STARTCHAR gcommaaccent.sc.ss01
ENCODING -1
SWIDTH 646 0
DWIDTH 13 0
BBX 10 16 1 -4
BITMAP
0F80
3FC0
7040
E000
C000
C000
C040
C040
E040
70C0
3FC0
1F40
0000
0600
0C00
0C00
ENDCHAR
STARTCHAR gdotaccent.sc
ENCODING -1
SWIDTH 640 0
DWIDTH 13 0
BBX 10 14 1 0
BITMAP
0600
0600
0000
1F80
3FC0
6040
C000
C000
C000
C040
C040
6040
3FC0
1F80
ENDCHAR
STARTCHAR gdotaccent.sc.ss01
ENCODING -1
SWIDTH 646 0
DWIDTH 13 0
BBX 10 14 1 0
BITMAP
0E00
0600
0F80
3FC0
7040
E000
C000
C000
C040
C040
E040
70C0
3FC0
1F40
ENDCHAR
STARTCHAR uni1E21.sc
ENCODING -1
SWIDTH 640 0
DWIDTH 13 0
BBX 10 15 1 0
BITMAP
1F80
1F80
0000
0000
1F80
3FC0
6040
C000
C000
C000
C040
C040
6040
3FC0
1F80
ENDCHAR
STARTCHAR uni1E21.sc.ss01
ENCODING -1
SWIDTH 646 0
DWIDTH 13 0
BBX 10 15 1 0
BITMAP
1F00
1F00
0000
0F80
3FC0
7040
E000
C000
C000
C040
C040
E040
70C0
3FC0
1F40
ENDCHAR
STARTCHAR h.sc
ENCODING -1
SWIDTH 690 0
DWIDTH 14 0
BBX 10 11 2 0
BITMAP
C0C0
C0C0
C0C0
C0C0
FFC0
FFC0
C0C0
C0C0
C0C0
C0C0
C0C0
ENDCHAR
STARTCHAR hbar.sc
ENCODING -1
SWIDTH 720 0
DWIDTH 14 0
BBX 13 11 1 0
BITMAP
6060
FFF8
6060
6060
7FE0
7FE0
6060
6060
6060
6060
6060
ENDCHAR
STARTCHAR uni1E2B.sc
ENCODING -1
SWIDTH 690 0
DWIDTH 14 0
BBX 10 15 2 -4
BITMAP
C0C0
C0C0
C0C0
C0C0
FFC0
FFC0
C0C0
C0C0
C0C0
C0C0
C0C0
0000
3300
1E00
1C00
ENDCHAR
STARTCHAR hcircumflex.sc
ENCODING -1
SWIDTH 690 0
DWIDTH 14 0
BBX 10 15 2 0
BITMAP
0C00
1E00
3300
0000
C0C0
C0C0
C0C0
C0C0
FFC0
FFC0
C0C0
C0C0
C0C0
C0C0
C0C0
ENDCHAR
STARTCHAR uni1E25.sc
ENCODING -1
SWIDTH 690 0
DWIDTH 14 0
BBX 10 15 2 -4
BITMAP
C0C0
C0C0
C0C0
C0C0
FFC0
FFC0
C0C0
C0C0
C0C0
C0C0
C0C0
0000
0000
0C00
0C00
ENDCHAR
STARTCHAR i.sc
ENCODING -1
SWIDTH 289 0
DWIDTH 6 0
BBX 2 11 2 0
BITMAP
C0
C0
C0
C0
C0
C0
C0
C0
C0
C0
C0
ENDCHAR
STARTCHAR i.sc.ss01
ENCODING -1
SWIDTH 386 0
DWIDTH 8 0
BBX 6 12 1 0
BITMAP
FC
FC
30
30
30
30
30
30
30
30
FC
FC
ENDCHAR
STARTCHAR dotlessi.sc
ENCODING -1
SWIDTH 289 0
DWIDTH 6 0
BBX 2 11 2 0
BITMAP
C0
C0
C0
C0
C0
C0
C0
C0
C0
C0
C0
ENDCHAR
STARTCHAR dotlessi.sc.ss01
ENCODING -1
SWIDTH 386 0
DWIDTH 8 0
BBX 6 12 1 0
BITMAP
FC
FC
30
30
30
30
30
30
30
30
FC
FC
ENDCHAR
STARTCHAR iacute.sc
ENCODING -1
SWIDTH 289 0
DWIDTH 6 0
BBX 4 16 2 0
BITMAP
40
70
C0
00
00
C0
C0
C0
C0
C0
C0
C0
C0
C0
C0
C0
ENDCHAR
STARTCHAR iacute.sc.ss01
ENCODING -1
SWIDTH 386 0
DWIDTH 8 0
BBX 6 16 1 0
BITMAP
10
1C
30
00
FC
FC
30
30
30
30
30
30
30
30
FC
FC
ENDCHAR
STARTCHAR iacute_j.loclNLD.sc
ENCODING -1
SWIDTH 743 0
DWIDTH 15 0
BBX 11 16 2 0
BITMAP
4040
70E0
C1C0
0000
0000
C7E0
C7E0
C060
C060
C060
C060
C060
C060
C460
CFE0
C7C0
ENDCHAR
STARTCHAR iacute_j.loclNLD.sc.ss01
ENCODING -1
SWIDTH 834 0
DWIDTH 17 0
BBX 14 18 1 -2
BITMAP
1010
1C1C
3030
0000
FCFC
FCFC
300C
300C
300C
300C
300C
300C
300C
300C
FC0C
FD0C
01F8
00F0
ENDCHAR
STARTCHAR ibreve.sc
ENCODING -1
SWIDTH 289 0
DWIDTH 6 0
BBX 6 15 0 0
BITMAP
CC
F8
78
00
30
30
30
30
30
30
30
30
30
30
30
ENDCHAR
STARTCHAR ibreve.sc.ss01
ENCODING -1
SWIDTH 386 0
DWIDTH 8 0
BBX 6 15 1 0
BITMAP
CC
F8
78
FC
FC
30
30
30
30
30
30
30
30
FC
FC
ENDCHAR
STARTCHAR icircumflex.sc
ENCODING -1
SWIDTH 289 0
DWIDTH 6 0
BBX 6 15 0 0
BITMAP
30
78
CC
00
30
30
30
30
30
30
30
30
30
30
30
ENDCHAR
STARTCHAR icircumflex.sc.ss01
ENCODING -1
SWIDTH 386 0
DWIDTH 8 0
BBX 6 15 1 0
BITMAP
30
78
CC
FC
FC
30
30
30
30
30
30
30
30
FC
FC
ENDCHAR
STARTCHAR uni0209.sc
ENCODING -1
SWIDTH 289 0
DWIDTH 6 0
BBX 6 16 -1 0
BITMAP
48
D8
6C
00
00
18
18
18
18
18
18
18
18
18
18
18
ENDCHAR
STARTCHAR uni0209.sc.ss01
ENCODING -1
SWIDTH 386 0
DWIDTH 8 0
BBX 7 16 0 0
BITMAP
48
D8
6C
00
7E
7E
18
18
18
18
18
18
18
18
7E
7E
ENDCHAR
STARTCHAR idieresis.sc
ENCODING -1
SWIDTH 289 0
DWIDTH 6 0
BBX 6 15 0 0
BITMAP
C8
CC
00
00
30
30
30
30
30
30
30
30
30
30
30
ENDCHAR
STARTCHAR idieresis.sc.ss01
ENCODING -1
SWIDTH 386 0
DWIDTH 8 0
BBX 6 15 1 0
BITMAP
C8
CC
00
FC
FC
30
30
30
30
30
30
30
30
FC
FC
ENDCHAR
STARTCHAR uni1E2F.sc
ENCODING -1
SWIDTH 289 0
DWIDTH 6 0
BBX 6 17 0 0
BITMAP
1C
38
60
D8
48
00
30
30
30
30
30
30
30
30
30
30
30
ENDCHAR
STARTCHAR uni1E2F.sc.ss01
ENCODING -1
SWIDTH 386 0
DWIDTH 8 0
BBX 6 18 1 0
BITMAP
1C
38
60
00
D8
48
FC
FC
30
30
30
30
30
30
30
30
FC
FC
ENDCHAR
STARTCHAR i.sc.loclTRK
ENCODING -1
SWIDTH 289 0
DWIDTH 6 0
BBX 2 14 2 0
BITMAP
C0
C0
00
C0
C0
C0
C0
C0
C0
C0
C0
C0
C0
C0
ENDCHAR
STARTCHAR uni1ECB.sc
ENCODING -1
SWIDTH 289 0
DWIDTH 6 0
BBX 2 15 2 -4
BITMAP
C0
C0
C0
C0
C0
C0
C0
C0
C0
C0
C0
00
00
C0
C0
ENDCHAR
STARTCHAR uni1ECB.sc.ss01
ENCODING -1
SWIDTH 386 0
DWIDTH 8 0
BBX 6 16 1 -4
BITMAP
FC
FC
30
30
30
30
30
30
30
30
FC
FC
00
00
30
30
ENDCHAR
STARTCHAR igrave.sc
ENCODING -1
SWIDTH 289 0
DWIDTH 6 0
BBX 4 16 0 0
BITMAP
40
E0
70
00
00
30
30
30
30
30
30
30
30
30
30
30
ENDCHAR
STARTCHAR igrave.sc.ss01
ENCODING -1
SWIDTH 386 0
DWIDTH 8 0
BBX 6 16 1 0
BITMAP
40
E0
70
00
FC
FC
30
30
30
30
30
30
30
30
FC
FC
ENDCHAR
STARTCHAR uni1EC9.sc
ENCODING -1
SWIDTH 289 0
DWIDTH 6 0
BBX 4 16 1 0
BITMAP
60
F0
30
20
60
60
60
60
60
60
60
60
60
60
60
60
ENDCHAR
STARTCHAR uni1EC9.sc.ss01
ENCODING -1
SWIDTH 386 0
DWIDTH 8 0
BBX 6 16 1 0
BITMAP
30
78
18
10
FC
FC
30
30
30
30
30
30
30
30
FC
FC
ENDCHAR
STARTCHAR uni020B.sc
ENCODING -1
SWIDTH 289 0
DWIDTH 6 0
BBX 6 16 0 0
BITMAP
30
78
C8
04
00
30
30
30
30
30
30
30
30
30
30
30
ENDCHAR
STARTCHAR uni020B.sc.ss01
ENCODING -1
SWIDTH 386 0
DWIDTH 8 0
BBX 6 16 1 0
BITMAP
30
78
C8
04
FC
FC
30
30
30
30
30
30
30
30
FC
FC
ENDCHAR
STARTCHAR ij.sc
ENCODING -1
SWIDTH 744 0
DWIDTH 15 0
BBX 11 11 2 0
BITMAP
C7E0
C7E0
C060
C060
C060
C060
C060
C060
C460
CFE0
C7C0
ENDCHAR
STARTCHAR ij.sc.ss01
ENCODING -1
SWIDTH 834 0
DWIDTH 17 0
BBX 14 14 1 -2
BITMAP
FCFC
FCFC
300C
300C
300C
300C
300C
300C
300C
300C
FC0C
FD0C
01F8
00F0
ENDCHAR
STARTCHAR imacron.sc
ENCODING -1
SWIDTH 289 0
DWIDTH 6 0
BBX 5 14 0 0
BITMAP
F8
00
00
30
30
30
30
30
30
30
30
30
30
30
ENDCHAR
STARTCHAR imacron.sc.ss01
ENCODING -1
SWIDTH 386 0
DWIDTH 8 0
BBX 6 15 1 0
BITMAP
FC
FC
00
FC
FC
30
30
30
30
30
30
30
30
FC
FC
ENDCHAR
STARTCHAR iogonek.sc
ENCODING -1
SWIDTH 289 0
DWIDTH 6 0
BBX 4 15 0 -4
BITMAP
30
30
30
30
30
30
30
30
30
30
30
60
C0
C0
F0
ENDCHAR
STARTCHAR iogonek.sc.ss01
ENCODING -1
SWIDTH 386 0
DWIDTH 8 0
BBX 6 16 1 -4
BITMAP
FC
FC
30
30
30
30
30
30
30
30
FC
FC
60
C0
E0
70
ENDCHAR
STARTCHAR itilde.sc
ENCODING -1
SWIDTH 289 0
DWIDTH 6 0
BBX 6 14 0 0
BITMAP
E4
FC
00
30
30
30
30
30
30
30
30
30
30
30
ENDCHAR
STARTCHAR itilde.sc.ss01
ENCODING -1
SWIDTH 386 0
DWIDTH 8 0
BBX 6 14 1 0
BITMAP
E4
FC
FC
FC
30
30
30
30
30
30
30
30
FC
FC
ENDCHAR
STARTCHAR j.sc
ENCODING -1
SWIDTH 454 0
DWIDTH 9 0
BBX 7 11 0 0
BITMAP
7E
7E
06
06
06
06
06
06
46
FE
3C
ENDCHAR
STARTCHAR j.sc.ss01
ENCODING -1
SWIDTH 448 0
DWIDTH 9 0
BBX 7 14 0 -2
BITMAP
7E
7E
06
06
06
06
06
06
06
06
06
46
FC
78
ENDCHAR
STARTCHAR jcircumflex.sc
ENCODING -1
SWIDTH 454 0
DWIDTH 9 0
BBX 8 15 0 0
BITMAP
08
1C
77
00
7E
7E
06
06
06
06
06
06
46
FE
3C
ENDCHAR
STARTCHAR jcircumflex.sc.ss01
ENCODING -1
SWIDTH 448 0
DWIDTH 9 0
BBX 7 17 0 -2
BITMAP
18
3C
26
7E
7E
06
06
06
06
06
06
06
06
06
46
FC
78
ENDCHAR
STARTCHAR k.sc
ENCODING -1
SWIDTH 597 0
DWIDTH 12 0
BBX 10 11 2 0
BITMAP
C1C0
C300
C600
CC00
D800
FC00
EC00
C600
C300
C380
C1C0
ENDCHAR
STARTCHAR kcommaaccent.sc
ENCODING -1
SWIDTH 597 0
DWIDTH 12 0
BBX 10 15 2 -4
BITMAP
C1C0
C300
C600
CC00
D800
FC00
EC00
C600
C300
C380
C1C0
0000
1800
1800
1000
ENDCHAR
STARTCHAR kgreenlandic.sc
ENCODING -1
SWIDTH 597 0
DWIDTH 12 0
BBX 10 12 2 0
BITMAP
C1C0
C300
C600
CE00
CC00
D800
FC00
EE00
C600
C300
C180
C1C0
ENDCHAR
STARTCHAR l.sc
ENCODING -1
SWIDTH 444 0
DWIDTH 9 0
BBX 7 11 2 0
BITMAP
C0
C0
C0
C0
C0
C0
C0
C0
C0
FE
FE
ENDCHAR
STARTCHAR lacute.sc
ENCODING -1
SWIDTH 444 0
DWIDTH 9 0
BBX 7 16 2 0
BITMAP
40
70
C0
00
00
C0
C0
C0
C0
C0
C0
C0
C0
C0
FE
FE
ENDCHAR
STARTCHAR lcaron.sc
ENCODING -1
SWIDTH 444 0
DWIDTH 9 0
BBX 7 11 2 0
BITMAP
C6
C6
C6
C6
C0
C0
C0
C0
C0
FE
FE
ENDCHAR
STARTCHAR lcommaaccent.sc
ENCODING -1
SWIDTH 444 0
DWIDTH 9 0
BBX 7 15 2 -4
BITMAP
C0
C0
C0
C0
C0
C0
C0
C0
C0
FE
FE
00
30
30
20
ENDCHAR
STARTCHAR ldot.sc
ENCODING -1
SWIDTH 444 0
DWIDTH 9 0
BBX 7 11 2 0
BITMAP
C0
C0
C0
C4
CC
C0
C0
C0
C0
FE
FE
ENDCHAR
STARTCHAR uni1E37.sc
ENCODING -1
SWIDTH 444 0
DWIDTH 9 0
BBX 7 15 2 -4
BITMAP
C0
C0
C0
C0
C0
C0
C0
C0
C0
FE
FE
00
00
38
30
ENDCHAR
STARTCHAR uni01C9.sc
ENCODING -1
SWIDTH 898 0
DWIDTH 18 0
BBX 14 11 2 0
BITMAP
C0FC
C0FC
C00C
C00C
C00C
C00C
C00C
C00C
C08C
FFFC
FE78
ENDCHAR
STARTCHAR uni01C9.sc.ss01
ENCODING -1
SWIDTH 892 0
DWIDTH 18 0
BBX 14 14 2 -2
BITMAP
00FC
C0FC
C00C
C00C
C00C
C00C
C00C
C00C
C00C
C00C
FE0C
FF0C
01F8
00F0
ENDCHAR
STARTCHAR uni1E3B.sc
ENCODING -1
SWIDTH 444 0
DWIDTH 9 0
BBX 7 14 2 -3
BITMAP
C0
C0
C0
C0
C0
C0
C0
C0
C0
FE
FE
00
FC
FC
ENDCHAR
STARTCHAR lslash.sc
ENCODING -1
SWIDTH 463 0
DWIDTH 9 0
BBX 8 11 1 0
BITMAP
60
60
60
68
78
E0
E0
60
60
7F
7F
ENDCHAR
STARTCHAR m.sc
ENCODING -1
SWIDTH 798 0
DWIDTH 16 0
BBX 12 11 2 0
BITMAP
C030
E070
E070
F0F0
D0B0
D9B0
CB30
CF30
C630
C630
C030
ENDCHAR
STARTCHAR m.sc.ss01
ENCODING -1
SWIDTH 1022 0
DWIDTH 20 0
BBX 17 12 2 0
BITMAP
DE1E00
FF3F00
E1C300
C1C180
C18180
C18180
C18180
C18180
C18180
C18180
C18180
C18180
ENDCHAR
STARTCHAR uni1E43.sc
ENCODING -1
SWIDTH 798 0
DWIDTH 16 0
BBX 12 15 2 -4
BITMAP
C030
E070
E070
F0F0
D0B0
D9B0
CB30
CF30
C630
C630
C030
0000
0000
0600
0600
ENDCHAR
STARTCHAR uni1E43.sc.ss01
ENCODING -1
SWIDTH 1022 0
DWIDTH 20 0
BBX 17 16 2 -4
BITMAP
DE1E00
FF3F00
E1C300
C1C180
C18180
C18180
C18180
C18180
C18180
C18180
C18180
C18180
000000
000000
018000
018000
ENDCHAR
STARTCHAR n.sc
ENCODING -1
SWIDTH 691 0
DWIDTH 14 0
BBX 10 11 2 0
BITMAP
C0C0
E0C0
F0C0
F0C0
D8C0
CCC0
C6C0
C7C0
C3C0
C1C0
C0C0
ENDCHAR
STARTCHAR n.sc.ss01
ENCODING -1
SWIDTH 676 0
DWIDTH 14 0
BBX 10 12 2 0
BITMAP
CF00
FF80
E180
C0C0
C0C0
C0C0
C0C0
C0C0
C0C0
C0C0
C0C0
C0C0
ENDCHAR
STARTCHAR nacute.sc
ENCODING -1
SWIDTH 691 0
DWIDTH 14 0
BBX 10 16 2 0
BITMAP
0200
0700
0E00
0000
0000
C0C0
E0C0
F0C0
F0C0
D8C0
CCC0
C6C0
C7C0
C3C0
C1C0
C0C0
ENDCHAR
STARTCHAR nacute.sc.ss01
ENCODING -1
SWIDTH 676 0
DWIDTH 14 0
BBX 10 16 2 0
BITMAP
0200
0700
0E00
0000
CF00
FF80
E180
C0C0
C0C0
C0C0
C0C0
C0C0
C0C0
C0C0
C0C0
C0C0
ENDCHAR
STARTCHAR napostrophe.sc
ENCODING -1
SWIDTH 784 0
DWIDTH 16 0
BBX 13 12 1 0
BITMAP
8000
9818
9C18
9E18
9E18
1B18
1998
19D8
18D8
1878
1838
1818
ENDCHAR
STARTCHAR ncaron.sc
ENCODING -1
SWIDTH 691 0
DWIDTH 14 0
BBX 10 15 2 0
BITMAP
3300
1E00
0C00
0000
C0C0
E0C0
F0C0
F0C0
D8C0
CCC0
C6C0
C7C0
C3C0
C1C0
C0C0
ENDCHAR
STARTCHAR ncaron.sc.ss01
ENCODING -1
SWIDTH 676 0
DWIDTH 14 0
BBX 10 15 2 0
BITMAP
3300
1E00
0E00
CF00
FF80
E180
C0C0
C0C0
C0C0
C0C0
C0C0
C0C0
C0C0
C0C0
C0C0
ENDCHAR
STARTCHAR ncommaaccent.sc
ENCODING -1
SWIDTH 691 0
DWIDTH 14 0
BBX 10 15 2 -4
BITMAP
C0C0
E0C0
F0C0
F0C0
D8C0
CCC0
C6C0
C7C0
C3C0
C1C0
C0C0
0000
0C00
0800
1800
ENDCHAR
STARTCHAR ncommaaccent.sc.ss01
ENCODING -1
SWIDTH 676 0
DWIDTH 14 0
BBX 10 16 2 -4
BITMAP
CF00
FF80
E180
C0C0
C0C0
C0C0
C0C0
C0C0
C0C0
C0C0
C0C0
C0C0
0000
0C00
0800
1800
ENDCHAR
STARTCHAR uni1E45.sc
ENCODING -1
SWIDTH 691 0
DWIDTH 14 0
BBX 10 14 2 0
BITMAP
0C00
0C00
0000
C0C0
E0C0
F0C0
F0C0
D8C0
CCC0
C6C0
C7C0
C3C0
C1C0
C0C0
ENDCHAR
STARTCHAR uni1E45.sc.ss01
ENCODING -1
SWIDTH 676 0
DWIDTH 14 0
BBX 10 14 2 0
BITMAP
0C00
0C00
CF00
FF80
E180
C0C0
C0C0
C0C0
C0C0
C0C0
C0C0
C0C0
C0C0
C0C0
ENDCHAR
STARTCHAR uni1E47.sc
ENCODING -1
SWIDTH 691 0
DWIDTH 14 0
BBX 10 15 2 -4
BITMAP
C0C0
E0C0
F0C0
F0C0
D8C0
CCC0
C6C0
C7C0
C3C0
C1C0
C0C0
0000
0000
0C00
0C00
ENDCHAR
STARTCHAR uni1E47.sc.ss01
ENCODING -1
SWIDTH 676 0
DWIDTH 14 0
BBX 10 16 2 -4
BITMAP
CF00
FF80
E180
C0C0
C0C0
C0C0
C0C0
C0C0
C0C0
C0C0
C0C0
C0C0
0000
0000
0C00
0C00
ENDCHAR
STARTCHAR eng.sc
ENCODING -1
SWIDTH 691 0
DWIDTH 14 0
BBX 10 14 2 -3
BITMAP
C0C0
E0C0
F0C0
F0C0
D8C0
CCC0
C6C0
C7C0
C3C0
C1C0
C0C0
00C0
1F80
0F00
ENDCHAR
STARTCHAR eng.sc.ss01
ENCODING -1
SWIDTH 675 0
DWIDTH 14 0
BBX 10 16 2 -4
BITMAP
CF00
FF80
E180
C0C0
C0C0
C0C0
C0C0
C0C0
C0C0
C0C0
C0C0
C0C0
00C0
09C0
1F80
0600
ENDCHAR
STARTCHAR uni01CC.sc
ENCODING -1
SWIDTH 1145 0
DWIDTH 23 0
BBX 19 11 2 0
BITMAP
C0C7E0
E0C7E0
F0C060
F0C060
D8C060
CCC060
C6C060
C7C060
C3C460
C1CFE0
C0C3C0
ENDCHAR
STARTCHAR uni01CC.sc.ss01
ENCODING -1
SWIDTH 1123 0
DWIDTH 22 0
BBX 19 14 2 -2
BITMAP
CF07E0
FF87E0
E18060
C0C060
C0C060
C0C060
C0C060
C0C060
C0C060
C0C060
C0C060
C0C8C0
000FC0
000780
ENDCHAR
STARTCHAR uni1E49.sc
ENCODING -1
SWIDTH 691 0
DWIDTH 14 0
BBX 10 14 2 -3
BITMAP
C0C0
E0C0
F0C0
F0C0
D8C0
CCC0
C6C0
C7C0
C3C0
C1C0
C0C0
0000
3F00
3F00
ENDCHAR
STARTCHAR uni1E49.sc.ss01
ENCODING -1
SWIDTH 676 0
DWIDTH 14 0
BBX 10 15 2 -3
BITMAP
CF00
FF80
E180
C0C0
C0C0
C0C0
C0C0
C0C0
C0C0
C0C0
C0C0
C0C0
0000
3F00
3F00
ENDCHAR
STARTCHAR ntilde.sc
ENCODING -1
SWIDTH 691 0
DWIDTH 14 0
BBX 10 14 2 0
BITMAP
3D00
3F00
0000
C0C0
E0C0
F0C0
F0C0
D8C0
CCC0
C6C0
C7C0
C3C0
C1C0
C0C0
ENDCHAR
STARTCHAR ntilde.sc.ss01
ENCODING -1
SWIDTH 676 0
DWIDTH 14 0
BBX 10 14 2 0
BITMAP
1D00
3F00
CF00
FF80
E180
C0C0
C0C0
C0C0
C0C0
C0C0
C0C0
C0C0
C0C0
C0C0
ENDCHAR
STARTCHAR o.sc
ENCODING -1
SWIDTH 699 0
DWIDTH 14 0
BBX 12 11 1 0
BITMAP
1F80
3FC0
6060
C030
C030
C030
C030
C030
6060
3FC0
1F80
ENDCHAR
STARTCHAR oacute.sc
ENCODING -1
SWIDTH 699 0
DWIDTH 14 0
BBX 12 16 1 0
BITMAP
0100
0380
0600
0000
0000
1F80
3FC0
6060
C030
C030
C030
C030
C030
6060
3FC0
1F80
ENDCHAR
STARTCHAR obreve.sc
ENCODING -1
SWIDTH 699 0
DWIDTH 14 0
BBX 12 15 1 0
BITMAP
1980
0F80
0F00
0000
1F80
3FC0
6060
C030
C030
C030
C030
C030
6060
3FC0
1F80
ENDCHAR
STARTCHAR ocircumflex.sc
ENCODING -1
SWIDTH 699 0
DWIDTH 14 0
BBX 12 15 1 0
BITMAP
0600
0F00
1980
0000
1F80
3FC0
6060
C030
C030
C030
C030
C030
6060
3FC0
1F80
ENDCHAR
STARTCHAR uni1ED1.sc
ENCODING -1
SWIDTH 699 0
DWIDTH 14 0
BBX 12 18 1 0
BITMAP
0380
0700
0200
0000
0F00
1980
0000
1F80
3FC0
6060
C030
C030
C030
C030
C030
6060
3FC0
1F80
ENDCHAR
STARTCHAR uni1ED9.sc
ENCODING -1
SWIDTH 699 0
DWIDTH 14 0
BBX 12 19 1 -4
BITMAP
0600
0F00
1980
0000
1F80
3FC0
6060
C030
C030
C030
C030
C030
6060
3FC0
1F80
0000
0000
0600
0600
ENDCHAR
STARTCHAR uni1ED3.sc
ENCODING -1
SWIDTH 699 0
DWIDTH 14 0
BBX 12 18 1 0
BITMAP
1800
0E00
0400
0000
0F00
1980
0000
1F80
3FC0
6060
C030
C030
C030
C030
C030
6060
3FC0
1F80
ENDCHAR
STARTCHAR uni1ED5.sc
ENCODING -1
SWIDTH 699 0
DWIDTH 14 0
BBX 12 19 1 0
BITMAP
0E00
0700
0200
0600
0000
0F00
1980
0000
1F80
3FC0
6060
C030
C030
C030
C030
C030
6060
3FC0
1F80
ENDCHAR
STARTCHAR uni1ED7.sc
ENCODING -1
SWIDTH 699 0
DWIDTH 14 0
BBX 12 17 1 0
BITMAP
1C80
1F80
0000
0F00
19C0
0000
1F80
3FC0
6060
C030
C030
C030
C030
C030
6060
3FC0
1F80
ENDCHAR
STARTCHAR uni020D.sc
ENCODING -1
SWIDTH 699 0
DWIDTH 14 0
BBX 12 16 1 0
BITMAP
1200
3700
1B00
0080
0000
1F80
3FC0
6060
C030
C030
C030
C030
C030
6060
3FC0
1F80
ENDCHAR
STARTCHAR odieresis.sc
ENCODING -1
SWIDTH 699 0
DWIDTH 14 0
BBX 12 15 1 0
BITMAP
0900
1980
0000
0000
1F80
3FC0
6060
C030
C030
C030
C030
C030
6060
3FC0
1F80
ENDCHAR
STARTCHAR uni022B.sc
ENCODING -1
SWIDTH 699 0
DWIDTH 14 0
BBX 12 18 1 0
BITMAP
0F80
0F80
0000
0000
1980
0900
0000
1F80
3FC0
6060
C030
C030
C030
C030
C030
6060
3FC0
1F80
ENDCHAR
STARTCHAR uni0231.sc
ENCODING -1
SWIDTH 699 0
DWIDTH 14 0
BBX 12 18 1 0
BITMAP
07C0
07C0
0000
0000
0300
0300
0000
1F80
3FC0
6060
C030
C030
C030
C030
C030
6060
3FC0
1F80
ENDCHAR
STARTCHAR uni1ECD.sc
ENCODING -1
SWIDTH 699 0
DWIDTH 14 0
BBX 12 15 1 -4
BITMAP
1F80
3FC0
6060
C030
C030
C030
C030
C030
6060
3FC0
1F80
0000
0000
0600
0600
ENDCHAR
STARTCHAR ograve.sc
ENCODING -1
SWIDTH 699 0
DWIDTH 14 0
BBX 12 16 1 0
BITMAP
0400
1C00
0600
0000
0000
1F80
3FC0
6060
C030
C030
C030
C030
C030
6060
3FC0
1F80
ENDCHAR
STARTCHAR uni1ECF.sc
ENCODING -1
SWIDTH 699 0
DWIDTH 14 0
BBX 12 16 1 0
BITMAP
0600
0F00
0300
0200
0600
1F80
3FC0
6060
C030
C030
C030
C030
C030
6060
3FC0
1F80
ENDCHAR
STARTCHAR ohorn.sc
ENCODING -1
SWIDTH 711 0
DWIDTH 14 0
BBX 13 14 1 0
BITMAP
0010
0030
0018
1F30
3FF0
60E0
C060
C030
C030
C030
C070
60E0
3FC0
1F00
ENDCHAR
STARTCHAR uni1EDB.sc
ENCODING -1
SWIDTH 711 0
DWIDTH 14 0
BBX 13 16 1 0
BITMAP
0200
0380
0610
0030
0018
1F30
3FF0
60E0
C060
C030
C030
C030
C070
60E0
3FC0
1F00
ENDCHAR
STARTCHAR uni1EE3.sc
ENCODING -1
SWIDTH 712 0
DWIDTH 14 0
BBX 13 18 1 -4
BITMAP
0010
0030
0018
1F30
3FF0
60E0
C060
C030
C030
C030
C070
60E0
3FC0
1F00
0000
0000
0600
0600
ENDCHAR
STARTCHAR uni1EDD.sc
ENCODING -1
SWIDTH 711 0
DWIDTH 14 0
BBX 13 16 1 0
BITMAP
0800
1C00
0E10
0030
0018
1F30
3FF0
60E0
C060
C030
C030
C030
C070
60E0
3FC0
1F00
ENDCHAR
STARTCHAR uni1EDF.sc
ENCODING -1
SWIDTH 711 0
DWIDTH 14 0
BBX 13 16 1 0
BITMAP
0600
0F00
0310
0230
0618
1F30
3FF0
60E0
C060
C030
C030
C030
C070
60E0
3FC0
1F00
ENDCHAR
STARTCHAR uni1EE1.sc
ENCODING -1
SWIDTH 711 0
DWIDTH 14 0
BBX 13 14 1 0
BITMAP
1C90
1FB0
0018
1F30
3FF0
60E0
C060
C030
C030
C030
C070
60E0
3FC0
1F00
ENDCHAR
STARTCHAR ohungarumlaut.sc
ENCODING -1
SWIDTH 699 0
DWIDTH 14 0
BBX 12 16 1 0
BITMAP
0480
0FC0
0900
1200
0000
1F80
3FC0
6060
C030
C030
C030
C030
C030
6060
3FC0
1F80
ENDCHAR
STARTCHAR uni020F.sc
ENCODING -1
SWIDTH 699 0
DWIDTH 14 0
BBX 12 16 1 0
BITMAP
0600
0F00
0980
1000
0000
1F80
3FC0
6060
C030
C030
C030
C030
C030
6060
3FC0
1F80
ENDCHAR
STARTCHAR omacron.sc
ENCODING -1
SWIDTH 699 0
DWIDTH 14 0
BBX 12 15 1 0
BITMAP
1F80
1F80
0000
0000
1F80
3FC0
6060
C030
C030
C030
C030
C030
6060
3FC0
1F80
ENDCHAR
STARTCHAR uni1E53.sc
ENCODING -1
SWIDTH 699 0
DWIDTH 14 0
BBX 12 18 1 0
BITMAP
0380
0700
0C00
1F00
1F00
0000
0000
1F80
3FC0
6060
C030
C030
C030
C030
C030
6060
3FC0
1F80
ENDCHAR
STARTCHAR uni1E51.sc
ENCODING -1
SWIDTH 699 0
DWIDTH 14 0
BBX 12 18 1 0
BITMAP
1C00
0E00
0300
0F80
0F80
0000
0000
1F80
3FC0
6060
C030
C030
C030
C030
C030
6060
3FC0
1F80
ENDCHAR
STARTCHAR uni01EB.sc
ENCODING -1
SWIDTH 699 0
DWIDTH 14 0
BBX 12 15 1 -4
BITMAP
1F80
3FC0
6060
C030
C030
C030
C030
C030
6060
3FC0
1F80
0300
0200
0380
0380
ENDCHAR
STARTCHAR oslash.sc
ENCODING -1
SWIDTH 699 0
DWIDTH 14 0
BBX 12 14 1 -1
BITMAP
0030
0020
1FE0
3FC0
60E0
C170
C330
C630
CC30
C830
7060
3FC0
7F80
C000
ENDCHAR
STARTCHAR oslashacute.sc
ENCODING -1
SWIDTH 699 0
DWIDTH 14 0
BBX 12 17 1 -1
BITMAP
0200
0380
0600
0030
0020
1FE0
3FC0
60E0
C170
C330
C630
CC30
C830
7060
3FC0
7F80
C000
ENDCHAR
STARTCHAR otilde.sc
ENCODING -1
SWIDTH 699 0
DWIDTH 14 0
BBX 12 14 1 0
BITMAP
1E80
1F80
0000
1F80
3FC0
6060
C030
C030
C030
C030
C030
6060
3FC0
1F80
ENDCHAR
STARTCHAR uni1E4D.sc
ENCODING -1
SWIDTH 699 0
DWIDTH 14 0
BBX 12 18 1 0
BITMAP
0180
0700
0200
0000
1C80
1F80
0000
1F80
3FC0
6060
C030
C030
C030
C030
C030
6060
3FC0
1F80
ENDCHAR
STARTCHAR uni1E4F.sc
ENCODING -1
SWIDTH 699 0
DWIDTH 14 0
BBX 12 17 1 0
BITMAP
1980
0900
0000
1C80
1F80
0000
1F80
3FC0
6060
C030
C030
C030
C030
C030
6060
3FC0
1F80
ENDCHAR
STARTCHAR uni022D.sc
ENCODING -1
SWIDTH 699 0
DWIDTH 14 0
BBX 12 18 1 0
BITMAP
0F80
0F80
0000
0000
1C80
1F80
0000
1F80
3FC0
6060
C030
C030
C030
C030
C030
6060
3FC0
1F80
ENDCHAR
STARTCHAR oe.sc
ENCODING -1
SWIDTH 924 0
DWIDTH 18 0
BBX 16 11 1 0
BITMAP
1FFF
3FFF
60C0
C0C0
C0FF
C0FF
C0C0
C0C0
60C0
3FFF
1FFF
ENDCHAR
STARTCHAR p.sc
ENCODING -1
SWIDTH 586 0
DWIDTH 12 0
BBX 9 11 2 0
BITMAP
FE00
FF00
C180
C180
C180
C380
FF00
FC00
C000
C000
C000
ENDCHAR
STARTCHAR thorn.sc
ENCODING -1
SWIDTH 590 0
DWIDTH 12 0
BBX 9 11 2 0
BITMAP
C000
FE00
FF00
C180
C180
C180
C180
FF00
FE00
C000
C000
ENDCHAR
STARTCHAR q.sc
ENCODING -1
SWIDTH 707 0
DWIDTH 14 0
BBX 13 14 1 -3
BITMAP
1F80
3FC0
6060
C030
C030
C030
C030
C030
6060
3FC0
1F80
0390
01F8
0060
ENDCHAR
STARTCHAR q.sc.ss01
ENCODING -1
SWIDTH 699 0
DWIDTH 14 0
BBX 12 14 1 -2
BITMAP
1F00
3FC0
7060
E070
C030
C030
C030
C630
E670
76E0
3FC0
0F00
0600
0600
ENDCHAR
STARTCHAR r.sc
ENCODING -1
SWIDTH 618 0
DWIDTH 12 0
BBX 9 11 2 0
BITMAP
FE00
FF00
C180
C180
C180
C180
FF00
FE00
C300
C300
C180
ENDCHAR
STARTCHAR racute.sc
ENCODING -1
SWIDTH 618 0
DWIDTH 12 0
BBX 9 16 2 0
BITMAP
0800
0E00
1800
0000
0000
FE00
FF00
C180
C180
C180
C180
FF00
FE00
C300
C300
C180
ENDCHAR
STARTCHAR rcaron.sc
ENCODING -1
SWIDTH 618 0
DWIDTH 12 0
BBX 9 15 2 0
BITMAP
6600
3C00
3800
0000
FE00
FF00
C180
C180
C180
C180
FF00
FE00
C300
C300
C180
ENDCHAR
STARTCHAR rcommaaccent.sc
ENCODING -1
SWIDTH 618 0
DWIDTH 12 0
BBX 9 15 2 -4
BITMAP
FE00
FF00
C180
C180
C180
C180
FF00
FE00
C300
C300
C180
0000
1800
1800
1000
ENDCHAR
STARTCHAR uni0211.sc
ENCODING -1
SWIDTH 618 0
DWIDTH 12 0
BBX 9 16 2 0
BITMAP
4800
D800
6C00
0000
0000
FE00
FF00
C180
C180
C180
C180
FF00
FE00
C300
C300
C180
ENDCHAR
STARTCHAR uni1E5B.sc
ENCODING -1
SWIDTH 618 0
DWIDTH 12 0
BBX 9 15 2 -4
BITMAP
FE00
FF00
C180
C180
C180
C180
FF00
FE00
C300
C300
C180
0000
0000
1800
1800
ENDCHAR
STARTCHAR uni0213.sc
ENCODING -1
SWIDTH 618 0
DWIDTH 12 0
BBX 9 16 2 0
BITMAP
1800
3C00
6400
0000
0000
FE00
FF00
C180
C180
C180
C180
FF00
FE00
C300
C300
C180
ENDCHAR
STARTCHAR uni1E5F.sc
ENCODING -1
SWIDTH 618 0
DWIDTH 12 0
BBX 9 14 2 -3
BITMAP
FE00
FF00
C180
C180
C180
C180
FF00
FE00
C300
C300
C180
0000
7E00
7E00
ENDCHAR
STARTCHAR s.sc
ENCODING -1
SWIDTH 538 0
DWIDTH 11 0
BBX 9 11 1 0
BITMAP
3E00
7F80
E100
E000
7000
3E00
0700
0180
C180
FF00
3E00
ENDCHAR
STARTCHAR sacute.sc
ENCODING -1
SWIDTH 538 0
DWIDTH 11 0
BBX 9 16 1 0
BITMAP
0400
0700
0C00
0000
0000
3E00
7F80
E100
E000
7000
3E00
0700
0180
C180
FF00
3E00
ENDCHAR
STARTCHAR uni1E65.sc
ENCODING -1
SWIDTH 538 0
DWIDTH 11 0
BBX 9 17 1 0
BITMAP
0C00
0C00
0E00
1C00
0800
0000
3E00
7F80
E100
E000
7000
3E00
0700
0180
C180
FF00
3E00
ENDCHAR
STARTCHAR uniA78C.sc
ENCODING -1
SWIDTH 253 0
DWIDTH 5 0
BBX 1 7 2 6
BITMAP
80
80
80
80
80
80
80
ENDCHAR
STARTCHAR scaron.sc
ENCODING -1
SWIDTH 538 0
DWIDTH 11 0
BBX 9 15 1 0
BITMAP
3300
1600
1C00
0000
3E00
7F80
E100
E000
7000
3E00
0700
0180
C180
FF00
3E00
ENDCHAR
STARTCHAR uni1E67.sc
ENCODING -1
SWIDTH 538 0
DWIDTH 11 0
BBX 9 16 1 0
BITMAP
0C00
0C00
7300
1E00
0000
3E00
7F80
E100
E000
7000
3E00
0700
0180
C180
FF00
3E00
ENDCHAR
STARTCHAR scedilla.sc
ENCODING -1
SWIDTH 538 0
DWIDTH 11 0
BBX 9 16 1 -5
BITMAP
3E00
7F80
E100
E000
7000
3E00
0700
0180
C180
FF00
3E00
0800
1C00
0600
1C00
1800
ENDCHAR
STARTCHAR scircumflex.sc
ENCODING -1
SWIDTH 538 0
DWIDTH 11 0
BBX 9 15 1 0
BITMAP
0C00
1E00
3700
0000
3E00
7F80
E100
E000
7000
3E00
0700
0180
C180
FF00
3E00
ENDCHAR
STARTCHAR scommaaccent.sc
ENCODING -1
SWIDTH 538 0
DWIDTH 11 0
BBX 9 15 1 -4
BITMAP
3E00
7F80
E100
E000
7000
3E00
0700
0180
C180
FF00
3E00
0000
0800
1800
1000
ENDCHAR
STARTCHAR uni1E61.sc
ENCODING -1
SWIDTH 538 0
DWIDTH 11 0
BBX 9 14 1 0
BITMAP
0C00
0C00
0000
3E00
7F80
E100
E000
7000
3E00
0700
0180
C180
FF00
3E00
ENDCHAR
STARTCHAR uni1E63.sc
ENCODING -1
SWIDTH 538 0
DWIDTH 11 0
BBX 9 15 1 -4
BITMAP
3E00
7F80
E100
E000
7000
3E00
0700
0180
C180
FF00
3E00
0000
0000
1C00
0800
ENDCHAR
STARTCHAR uni1E69.sc
ENCODING -1
SWIDTH 538 0
DWIDTH 11 0
BBX 9 18 1 -4
BITMAP
1C00
0800
0000
3E00
7F80
E100
E000
7000
3E00
0700
0180
C180
FF00
3E00
0000
0000
1C00
0800
ENDCHAR
STARTCHAR germandbls.sc
ENCODING -1
SWIDTH 603 0
DWIDTH 12 0
BBX 9 11 2 0
BITMAP
3E00
7F00
C300
C600
CE00
CF00
C180
C180
C180
CF80
CE00
ENDCHAR
STARTCHAR t.sc
ENCODING -1
SWIDTH 464 0
DWIDTH 9 0
BBX 9 11 0 0
BITMAP
FF80
FF80
0C00
0C00
0C00
0C00
0C00
0C00
0C00
0C00
0C00
ENDCHAR
STARTCHAR t.sc.ss01
ENCODING -1
SWIDTH 493 0
DWIDTH 10 0
BBX 10 12 0 0
BITMAP
3F00
FFC0
4C80
0C00
0C00
0C00
0C00
0C00
0C00
0C00
0C00
0C00
ENDCHAR
STARTCHAR tbar.sc
ENCODING -1
SWIDTH 464 0
DWIDTH 9 0
BBX 9 11 0 0
BITMAP
FF80
FF80
0C00
0C00
0C00
7F00
7F00
0C00
0C00
0C00
0C00
ENDCHAR
STARTCHAR tbar.sc.ss01
ENCODING -1
SWIDTH 493 0
DWIDTH 10 0
BBX 10 12 0 0
BITMAP
3F00
FFC0
4C80
0C00
0C00
0C00
3F00
0C00
0C00
0C00
0C00
0C00
ENDCHAR
STARTCHAR tcaron.sc
ENCODING -1
SWIDTH 464 0
DWIDTH 9 0
BBX 9 15 0 0
BITMAP
3300
1600
1C00
0000
FF80
FF80
0C00
0C00
0C00
0C00
0C00
0C00
0C00
0C00
0C00
ENDCHAR
STARTCHAR tcaron.sc.ss01
ENCODING -1
SWIDTH 493 0
DWIDTH 10 0
BBX 10 15 0 0
BITMAP
3300
1E00
0C00
3F00
FFC0
4C80
0C00
0C00
0C00
0C00
0C00
0C00
0C00
0C00
0C00
ENDCHAR
STARTCHAR uni0163.sc
ENCODING -1
SWIDTH 464 0
DWIDTH 9 0
BBX 9 16 0 -5
BITMAP
FF80
FF80
0C00
0C00
0C00
0C00
0C00
0C00
0C00
0C00
0C00
0800
0C00
0600
1E00
1C00
ENDCHAR
STARTCHAR uni0163.sc.ss01
ENCODING -1
SWIDTH 493 0
DWIDTH 10 0
BBX 10 16 0 -4
BITMAP
3F00
FFC0
4C80
0C00
0C00
0C00
0C00
0C00
0C00
0C00
0C00
0C00
0C00
0600
1E00
1C00
ENDCHAR
STARTCHAR uni021B.sc
ENCODING -1
SWIDTH 464 0
DWIDTH 9 0
BBX 9 15 0 -4
BITMAP
FF80
FF80
0C00
0C00
0C00
0C00
0C00
0C00
0C00
0C00
0C00
0000
0C00
1800
1800
ENDCHAR
STARTCHAR uni021B.sc.ss01
ENCODING -1
SWIDTH 493 0
DWIDTH 10 0
BBX 10 16 0 -4
BITMAP
3F00
FFC0
4C80
0C00
0C00
0C00
0C00
0C00
0C00
0C00
0C00
0C00
0000
0C00
0800
1800
ENDCHAR
STARTCHAR uni1E97.sc
ENCODING -1
SWIDTH 464 0
DWIDTH 9 0
BBX 9 15 0 0
BITMAP
3200
3700
0000
0000
FF80
FF80
0C00
0C00
0C00
0C00
0C00
0C00
0C00
0C00
0C00
ENDCHAR
STARTCHAR uni1E97.sc.ss01
ENCODING -1
SWIDTH 493 0
DWIDTH 10 0
BBX 10 15 0 0
BITMAP
1200
3300
0000
3F00
FFC0
4C80
0C00
0C00
0C00
0C00
0C00
0C00
0C00
0C00
0C00
ENDCHAR
STARTCHAR uni1E6D.sc
ENCODING -1
SWIDTH 464 0
DWIDTH 9 0
BBX 9 15 0 -4
BITMAP
FF80
FF80
0C00
0C00
0C00
0C00
0C00
0C00
0C00
0C00
0C00
0000
0000
1C00
0C00
ENDCHAR
STARTCHAR uni1E6D.sc.ss01
ENCODING -1
SWIDTH 493 0
DWIDTH 10 0
BBX 10 16 0 -4
BITMAP
3F00
FFC0
4C80
0C00
0C00
0C00
0C00
0C00
0C00
0C00
0C00
0C00
0000
0000
0C00
0C00
ENDCHAR
STARTCHAR uni1E6F.sc
ENCODING -1
SWIDTH 464 0
DWIDTH 9 0
BBX 9 14 0 -3
BITMAP
FF80
FF80
0C00
0C00
0C00
0C00
0C00
0C00
0C00
0C00
0C00
0000
3E00
3E00
ENDCHAR
STARTCHAR uni1E6F.sc.ss01
ENCODING -1
SWIDTH 493 0
DWIDTH 10 0
BBX 10 15 0 -3
BITMAP
3F00
FFC0
4C80
0C00
0C00
0C00
0C00
0C00
0C00
0C00
0C00
0C00
0000
3F00
3F00
ENDCHAR
STARTCHAR u.sc
ENCODING -1
SWIDTH 656 0
DWIDTH 13 0
BBX 9 11 2 0
BITMAP
C080
C080
C080
C080
C080
C080
C080
C180
C180
7F00
3E00
ENDCHAR
STARTCHAR u.sc.ss01
ENCODING -1
SWIDTH 676 0
DWIDTH 14 0
BBX 10 12 2 0
BITMAP
C0C0
C0C0
C0C0
C0C0
C0C0
C0C0
C0C0
C0C0
C1C0
C1C0
7EC0
3CC0
ENDCHAR
STARTCHAR uacute.sc
ENCODING -1
SWIDTH 656 0
DWIDTH 13 0
BBX 9 16 2 0
BITMAP
0400
0600
0C00
1000
0000
C080
C080
C080
C080
C080
C080
C080
C180
C180
7F00
3E00
ENDCHAR
STARTCHAR uacute.sc.ss01
ENCODING -1
SWIDTH 676 0
DWIDTH 14 0
BBX 10 16 2 0
BITMAP
0400
0700
0C00
0000
C0C0
C0C0
C0C0
C0C0
C0C0
C0C0
C0C0
C0C0
C1C0
C1C0
7EC0
3CC0
ENDCHAR
STARTCHAR ubreve.sc
ENCODING -1
SWIDTH 656 0
DWIDTH 13 0
BBX 9 15 2 0
BITMAP
2200
3E00
1C00
0000
C080
C080
C080
C080
C080
C080
C080
C180
C180
7F00
3E00
ENDCHAR
STARTCHAR ubreve.sc.ss01
ENCODING -1
SWIDTH 676 0
DWIDTH 14 0
BBX 10 15 2 0
BITMAP
2200
3E00
1C00
C0C0
C0C0
C0C0
C0C0
C0C0
C0C0
C0C0
C0C0
C1C0
C1C0
7EC0
3CC0
ENDCHAR
STARTCHAR ucircumflex.sc
ENCODING -1
SWIDTH 656 0
DWIDTH 13 0
BBX 9 15 2 0
BITMAP
0C00
1C00
7700
0000
C080
C080
C080
C080
C080
C080
C080
C180
C180
7F00
3E00
ENDCHAR
STARTCHAR ucircumflex.sc.ss01
ENCODING -1
SWIDTH 676 0
DWIDTH 14 0
BBX 10 15 2 0
BITMAP
0C00
1E00
3700
C0C0
C0C0
C0C0
C0C0
C0C0
C0C0
C0C0
C0C0
C1C0
C1C0
7EC0
3CC0
ENDCHAR
STARTCHAR uni0215.sc
ENCODING -1
SWIDTH 656 0
DWIDTH 13 0
BBX 9 16 2 0
BITMAP
2400
6C00
3600
0000
0000
C080
C080
C080
C080
C080
C080
C080
C180
C180
7F00
3E00
ENDCHAR
STARTCHAR uni0215.sc.ss01
ENCODING -1
SWIDTH 676 0
DWIDTH 14 0
BBX 10 16 2 0
BITMAP
2400
6C00
3600
0000
C0C0
C0C0
C0C0
C0C0
C0C0
C0C0
C0C0
C0C0
C1C0
C1C0
7EC0
3CC0
ENDCHAR
ENDFONT
